<svg width="1920" height="1080" viewBox="0 0 1920 1080" fill="none" xmlns="http://www.w3.org/2000/svg">
<rect width="1920" height="1080" fill="url(#paint0_linear_215_38)"/>
<rect width="1920" height="1080" fill="#0B1828"/>
<path d="M1034.61 452.524L973.707 471.329C966.299 473.482 960.387 481.233 960.387 488.626V553.293C960.387 553.293 955.971 550.279 946.141 551.714C931.682 553.796 920 564.92 920 576.619C920 588.318 931.682 595.496 946.141 593.414C960.601 591.333 971.143 580.567 971.143 568.868V506.426C971.143 501.258 977.34 499.033 977.34 499.033L1031.19 482.023C1031.19 482.023 1037.17 480.013 1037.17 485.54V537.073C1037.17 537.073 1031.69 533.915 1021.86 535.063C1007.4 536.857 995.717 547.767 995.717 559.466C995.717 571.165 1007.4 578.557 1021.86 576.835C1036.32 575.04 1048 564.131 1048 552.432V462.07C1047.93 454.749 1041.95 450.443 1034.61 452.524Z" fill="#515151"/>
<path d="M1707.2 54H1716.8M1724 54C1724 60.6274 1718.63 66 1712 66C1705.37 66 1700 60.6274 1700 54C1700 47.3726 1705.37 42 1712 42C1718.63 42 1724 47.3726 1724 54Z" stroke="#FEFFFF" stroke-width="2.5" stroke-linecap="round" stroke-linejoin="round"/>
<path d="M1778.38 42H1762.63C1761.73 42 1761.01 42.7218 1761.01 43.6088V46.9665H1757.62C1756.73 46.9665 1756 47.6883 1756 48.5754V64.3911C1756 65.2782 1756.73 66 1757.62 66H1773.37C1774.27 66 1774.99 65.2782 1774.99 64.3911V61.0333H1778.38C1779.27 61.0333 1780 60.3117 1780 59.4244V43.6088C1780 42.7218 1779.27 42 1778.38 42ZM1773.19 64.2123H1757.8V48.7541H1773.19V64.2123ZM1778.2 59.2458H1774.99V48.5754C1774.99 47.6883 1774.27 46.9665 1773.37 46.9665H1762.81V43.7875H1778.2V59.2458Z" fill="#FEFFFF"/>
<path d="M1827.6 50.4L1820.4 57.6M1820.4 50.4L1827.6 57.6M1836 54C1836 60.6274 1830.63 66 1824 66C1817.37 66 1812 60.6274 1812 54C1812 47.3726 1817.37 42 1824 42C1830.63 42 1836 47.3726 1836 54Z" stroke="#FEFFFF" stroke-width="2.5" stroke-linecap="round" stroke-linejoin="round"/>
<rect width="1632" height="62" transform="translate(145 914)" fill="#2A2A2A" fill-opacity="0.15"/>
<path d="M198.335 951.222C197.4 951.222 196.597 950.985 195.926 950.511C195.259 950.034 194.746 949.347 194.386 948.449C194.03 947.547 193.852 946.462 193.852 945.193C193.856 943.924 194.036 942.845 194.392 941.955C194.752 941.061 195.265 940.379 195.932 939.909C196.602 939.439 197.403 939.205 198.335 939.205C199.267 939.205 200.068 939.439 200.739 939.909C201.409 940.379 201.922 941.061 202.278 941.955C202.638 942.848 202.818 943.928 202.818 945.193C202.818 946.466 202.638 947.553 202.278 948.455C201.922 949.352 201.409 950.038 200.739 950.511C200.072 950.985 199.271 951.222 198.335 951.222ZM198.335 949.443C199.063 949.443 199.636 949.085 200.057 948.369C200.481 947.65 200.693 946.591 200.693 945.193C200.693 944.269 200.597 943.492 200.403 942.864C200.21 942.235 199.938 941.761 199.585 941.443C199.233 941.121 198.816 940.96 198.335 940.96C197.612 940.96 197.04 941.32 196.619 942.04C196.199 942.756 195.987 943.807 195.983 945.193C195.979 946.121 196.072 946.902 196.261 947.534C196.455 948.167 196.727 948.644 197.08 948.966C197.432 949.284 197.85 949.443 198.335 949.443ZM209.007 951.222C208.071 951.222 207.268 950.985 206.598 950.511C205.931 950.034 205.418 949.347 205.058 948.449C204.702 947.547 204.524 946.462 204.524 945.193C204.528 943.924 204.708 942.845 205.064 941.955C205.424 941.061 205.937 940.379 206.604 939.909C207.274 939.439 208.075 939.205 209.007 939.205C209.939 939.205 210.74 939.439 211.411 939.909C212.081 940.379 212.594 941.061 212.95 941.955C213.31 942.848 213.49 943.928 213.49 945.193C213.49 946.466 213.31 947.553 212.95 948.455C212.594 949.352 212.081 950.038 211.411 950.511C210.744 950.985 209.943 951.222 209.007 951.222ZM209.007 949.443C209.734 949.443 210.308 949.085 210.729 948.369C211.153 947.65 211.365 946.591 211.365 945.193C211.365 944.269 211.268 943.492 211.075 942.864C210.882 942.235 210.609 941.761 210.257 941.443C209.905 941.121 209.488 940.96 209.007 940.96C208.284 940.96 207.712 941.32 207.291 942.04C206.871 942.756 206.659 943.807 206.655 945.193C206.651 946.121 206.744 946.902 206.933 947.534C207.126 948.167 207.399 948.644 207.751 948.966C208.104 949.284 208.522 949.443 209.007 949.443ZM216.668 949.602C216.323 949.602 216.027 949.481 215.781 949.239C215.535 948.992 215.414 948.697 215.418 948.352C215.414 948.011 215.535 947.72 215.781 947.477C216.027 947.235 216.323 947.114 216.668 947.114C217.001 947.114 217.291 947.235 217.537 947.477C217.787 947.72 217.914 948.011 217.918 948.352C217.914 948.583 217.853 948.794 217.736 948.983C217.622 949.172 217.471 949.324 217.281 949.438C217.096 949.547 216.891 949.602 216.668 949.602ZM216.668 943.835C216.323 943.835 216.027 943.714 215.781 943.472C215.535 943.225 215.414 942.93 215.418 942.585C215.414 942.244 215.535 941.953 215.781 941.71C216.027 941.464 216.323 941.341 216.668 941.341C217.001 941.341 217.291 941.464 217.537 941.71C217.787 941.953 217.914 942.244 217.918 942.585C217.914 942.812 217.853 943.021 217.736 943.21C217.622 943.4 217.471 943.551 217.281 943.665C217.096 943.778 216.891 943.835 216.668 943.835ZM224.32 951.222C223.384 951.222 222.581 950.985 221.911 950.511C221.244 950.034 220.731 949.347 220.371 948.449C220.015 947.547 219.837 946.462 219.837 945.193C219.84 943.924 220.02 942.845 220.376 941.955C220.736 941.061 221.25 940.379 221.916 939.909C222.587 939.439 223.388 939.205 224.32 939.205C225.251 939.205 226.053 939.439 226.723 939.909C227.393 940.379 227.907 941.061 228.263 941.955C228.623 942.848 228.803 943.928 228.803 945.193C228.803 946.466 228.623 947.553 228.263 948.455C227.907 949.352 227.393 950.038 226.723 950.511C226.056 950.985 225.255 951.222 224.32 951.222ZM224.32 949.443C225.047 949.443 225.621 949.085 226.041 948.369C226.465 947.65 226.678 946.591 226.678 945.193C226.678 944.269 226.581 943.492 226.388 942.864C226.195 942.235 225.922 941.761 225.57 941.443C225.217 941.121 224.801 940.96 224.32 940.96C223.596 940.96 223.024 941.32 222.604 942.04C222.183 942.756 221.971 943.807 221.967 945.193C221.964 946.121 222.056 946.902 222.246 947.534C222.439 948.167 222.712 948.644 223.064 948.966C223.416 949.284 223.835 949.443 224.32 949.443ZM234.736 951.159C233.978 951.159 233.3 951.017 232.702 950.733C232.103 950.445 231.628 950.051 231.276 949.551C230.927 949.051 230.741 948.479 230.719 947.835H232.764C232.802 948.312 233.009 948.703 233.384 949.006C233.759 949.305 234.209 949.455 234.736 949.455C235.149 949.455 235.516 949.36 235.838 949.17C236.16 948.981 236.414 948.718 236.599 948.381C236.785 948.044 236.876 947.659 236.872 947.227C236.876 946.788 236.783 946.398 236.594 946.057C236.404 945.716 236.145 945.449 235.815 945.256C235.486 945.059 235.107 944.96 234.679 944.96C234.33 944.956 233.988 945.021 233.651 945.153C233.313 945.286 233.046 945.46 232.849 945.676L230.946 945.364L231.554 939.364H238.304V941.125H233.298L232.963 944.21H233.031C233.247 943.956 233.552 943.746 233.946 943.58C234.34 943.409 234.772 943.324 235.241 943.324C235.946 943.324 236.575 943.491 237.128 943.824C237.681 944.153 238.116 944.608 238.435 945.188C238.753 945.767 238.912 946.43 238.912 947.176C238.912 947.945 238.734 948.631 238.378 949.233C238.026 949.831 237.535 950.303 236.906 950.648C236.281 950.989 235.558 951.159 234.736 951.159ZM245.588 938.818L241.838 952.75H240.037L243.787 938.818H245.588ZM251.054 951.159C250.236 951.159 249.509 951.019 248.872 950.739C248.24 950.458 247.74 950.068 247.372 949.568C247.005 949.068 246.81 948.491 246.787 947.835H248.923C248.942 948.15 249.046 948.424 249.236 948.659C249.425 948.89 249.677 949.07 249.991 949.199C250.306 949.328 250.658 949.392 251.048 949.392C251.465 949.392 251.834 949.32 252.156 949.176C252.478 949.028 252.73 948.824 252.912 948.562C253.094 948.301 253.183 948 253.179 947.659C253.183 947.307 253.092 946.996 252.906 946.727C252.721 946.458 252.452 946.248 252.099 946.097C251.751 945.945 251.33 945.869 250.838 945.869H249.81V944.244H250.838C251.243 944.244 251.598 944.174 251.901 944.034C252.207 943.894 252.448 943.697 252.622 943.443C252.796 943.186 252.882 942.888 252.878 942.551C252.882 942.222 252.808 941.936 252.656 941.693C252.509 941.447 252.298 941.256 252.026 941.119C251.757 940.983 251.44 940.915 251.077 940.915C250.721 940.915 250.391 940.979 250.088 941.108C249.785 941.237 249.541 941.42 249.355 941.659C249.17 941.894 249.071 942.174 249.06 942.5H247.031C247.046 941.848 247.234 941.277 247.594 940.784C247.957 940.288 248.442 939.902 249.048 939.625C249.654 939.345 250.334 939.205 251.088 939.205C251.865 939.205 252.539 939.35 253.111 939.642C253.687 939.93 254.132 940.318 254.446 940.807C254.76 941.295 254.918 941.835 254.918 942.426C254.921 943.081 254.728 943.631 254.338 944.074C253.952 944.517 253.444 944.807 252.815 944.943V945.034C253.634 945.148 254.26 945.451 254.696 945.943C255.135 946.432 255.353 947.04 255.349 947.767C255.349 948.419 255.164 949.002 254.793 949.517C254.425 950.028 253.918 950.43 253.27 950.722C252.626 951.013 251.887 951.159 251.054 951.159ZM261.339 939.205C261.896 939.208 262.438 939.307 262.964 939.5C263.495 939.689 263.972 940 264.396 940.432C264.821 940.86 265.158 941.434 265.408 942.153C265.658 942.873 265.783 943.763 265.783 944.824C265.786 945.824 265.68 946.718 265.464 947.506C265.252 948.29 264.947 948.953 264.55 949.494C264.152 950.036 263.673 950.449 263.112 950.733C262.552 951.017 261.921 951.159 261.22 951.159C260.485 951.159 259.834 951.015 259.266 950.727C258.701 950.439 258.245 950.045 257.896 949.545C257.548 949.045 257.334 948.473 257.254 947.83H259.328C259.434 948.292 259.65 948.659 259.976 948.932C260.305 949.201 260.72 949.335 261.22 949.335C262.027 949.335 262.648 948.985 263.084 948.284C263.519 947.583 263.737 946.61 263.737 945.364H263.658C263.472 945.697 263.232 945.985 262.936 946.227C262.641 946.466 262.305 946.65 261.93 946.778C261.559 946.907 261.165 946.972 260.749 946.972C260.067 946.972 259.453 946.809 258.908 946.483C258.366 946.157 257.936 945.71 257.618 945.142C257.304 944.574 257.144 943.924 257.141 943.193C257.141 942.436 257.315 941.756 257.663 941.153C258.016 940.547 258.506 940.07 259.135 939.722C259.764 939.369 260.499 939.197 261.339 939.205ZM261.345 940.909C260.936 940.909 260.567 941.009 260.237 941.21C259.911 941.407 259.654 941.676 259.464 942.017C259.279 942.354 259.186 942.731 259.186 943.148C259.19 943.561 259.283 943.936 259.464 944.273C259.65 944.61 259.902 944.877 260.22 945.074C260.542 945.271 260.91 945.369 261.322 945.369C261.629 945.369 261.915 945.311 262.18 945.193C262.446 945.076 262.677 944.913 262.874 944.705C263.074 944.492 263.23 944.252 263.339 943.983C263.453 943.714 263.508 943.43 263.504 943.131C263.504 942.733 263.41 942.366 263.22 942.028C263.035 941.691 262.779 941.42 262.453 941.216C262.131 941.011 261.762 940.909 261.345 940.909ZM268.964 949.602C268.62 949.602 268.324 949.481 268.078 949.239C267.832 948.992 267.711 948.697 267.714 948.352C267.711 948.011 267.832 947.72 268.078 947.477C268.324 947.235 268.62 947.114 268.964 947.114C269.298 947.114 269.588 947.235 269.834 947.477C270.084 947.72 270.211 948.011 270.214 948.352C270.211 948.583 270.15 948.794 270.033 948.983C269.919 949.172 269.768 949.324 269.578 949.438C269.393 949.547 269.188 949.602 268.964 949.602ZM268.964 943.835C268.62 943.835 268.324 943.714 268.078 943.472C267.832 943.225 267.711 942.93 267.714 942.585C267.711 942.244 267.832 941.953 268.078 941.71C268.324 941.464 268.62 941.341 268.964 941.341C269.298 941.341 269.588 941.464 269.834 941.71C270.084 941.953 270.211 942.244 270.214 942.585C270.211 942.812 270.15 943.021 270.033 943.21C269.919 943.4 269.768 943.551 269.578 943.665C269.393 943.778 269.188 943.835 268.964 943.835ZM276.491 951.159C275.673 951.159 274.946 951.019 274.31 950.739C273.677 950.458 273.177 950.068 272.81 949.568C272.442 949.068 272.247 948.491 272.224 947.835H274.361C274.38 948.15 274.484 948.424 274.673 948.659C274.863 948.89 275.115 949.07 275.429 949.199C275.743 949.328 276.096 949.392 276.486 949.392C276.902 949.392 277.272 949.32 277.594 949.176C277.916 949.028 278.168 948.824 278.349 948.562C278.531 948.301 278.62 948 278.616 947.659C278.62 947.307 278.529 946.996 278.344 946.727C278.158 946.458 277.889 946.248 277.537 946.097C277.188 945.945 276.768 945.869 276.276 945.869H275.247V944.244H276.276C276.681 944.244 277.035 944.174 277.338 944.034C277.645 943.894 277.885 943.697 278.06 943.443C278.234 943.186 278.319 942.888 278.315 942.551C278.319 942.222 278.245 941.936 278.094 941.693C277.946 941.447 277.736 941.256 277.463 941.119C277.194 940.983 276.878 940.915 276.514 940.915C276.158 940.915 275.829 940.979 275.526 941.108C275.223 941.237 274.978 941.42 274.793 941.659C274.607 941.894 274.509 942.174 274.497 942.5H272.469C272.484 941.848 272.671 941.277 273.031 940.784C273.395 940.288 273.88 939.902 274.486 939.625C275.092 939.345 275.772 939.205 276.526 939.205C277.302 939.205 277.976 939.35 278.548 939.642C279.124 939.93 279.569 940.318 279.884 940.807C280.198 941.295 280.355 941.835 280.355 942.426C280.359 943.081 280.166 943.631 279.776 944.074C279.389 944.517 278.882 944.807 278.253 944.943V945.034C279.071 945.148 279.698 945.451 280.134 945.943C280.573 946.432 280.791 947.04 280.787 947.767C280.787 948.419 280.601 949.002 280.23 949.517C279.863 950.028 279.355 950.43 278.707 950.722C278.063 951.013 277.325 951.159 276.491 951.159ZM287.038 951.222C286.103 951.222 285.3 950.985 284.629 950.511C283.963 950.034 283.449 949.347 283.089 948.449C282.733 947.547 282.555 946.462 282.555 945.193C282.559 943.924 282.739 942.845 283.095 941.955C283.455 941.061 283.968 940.379 284.635 939.909C285.305 939.439 286.107 939.205 287.038 939.205C287.97 939.205 288.771 939.439 289.442 939.909C290.112 940.379 290.625 941.061 290.982 941.955C291.341 942.848 291.521 943.928 291.521 945.193C291.521 946.466 291.341 947.553 290.982 948.455C290.625 949.352 290.112 950.038 289.442 950.511C288.775 950.985 287.974 951.222 287.038 951.222ZM287.038 949.443C287.766 949.443 288.339 949.085 288.76 948.369C289.184 947.65 289.396 946.591 289.396 945.193C289.396 944.269 289.3 943.492 289.107 942.864C288.913 942.235 288.641 941.761 288.288 941.443C287.936 941.121 287.519 940.96 287.038 940.96C286.315 940.96 285.743 941.32 285.322 942.04C284.902 942.756 284.69 943.807 284.686 945.193C284.682 946.121 284.775 946.902 284.964 947.534C285.158 948.167 285.43 948.644 285.783 948.966C286.135 949.284 286.554 949.443 287.038 949.443Z" fill="#FEFFFF"/>
<rect x="317" y="940.285" width="1358" height="7.54444" rx="3.77222" fill="#605F77"/>
<rect x="317" y="940.285" width="188.611" height="9.43055" rx="4.71528" fill="#FEFFFF"/>
<ellipse cx="503.725" cy="945" rx="7.54444" ry="7.54444" fill="#FEFFFF"/>
<path d="M1721.37 948.082L1704.72 959.371C1703.03 960.512 1700.75 960.058 1699.62 958.356C1699.22 957.744 1699 957.025 1699 956.289V933.711C1699 931.661 1700.64 930 1702.67 930C1703.4 930 1704.11 930.219 1704.72 930.629L1721.37 941.918C1723.06 943.059 1723.51 945.364 1722.38 947.066C1722.11 947.468 1721.77 947.813 1721.37 948.082Z" fill="#FEFFFF"/>
<defs>
<linearGradient id="paint0_linear_215_38" x1="960" y1="0" x2="960" y2="1080" gradientUnits="userSpaceOnUse">
<stop stop-color="#050505"/>
<stop offset="1" stop-color="#2A2720"/>
</linearGradient>
</defs>
</svg>
