<svg width="1440" height="810" viewBox="0 0 1440 810" fill="none" xmlns="http://www.w3.org/2000/svg">
<rect width="1440" height="810" fill="url(#paint0_linear_347_358)"/>
<rect width="1440" height="810" fill="#0B1828"/>
<rect x="42" y="42" width="32" height="32" rx="10" fill="url(#paint1_linear_347_358)"/>
<path d="M44.0568 62V53.2727H45.1136V61.0625H49.1705V62H44.0568ZM53.3295 62.1364C52.7386 62.1364 52.2202 61.9957 51.7741 61.7145C51.331 61.4332 50.9844 61.0398 50.7344 60.5341C50.4872 60.0284 50.3636 59.4375 50.3636 58.7614C50.3636 58.0795 50.4872 57.4844 50.7344 56.9759C50.9844 56.4673 51.331 56.0724 51.7741 55.7912C52.2202 55.5099 52.7386 55.3693 53.3295 55.3693C53.9205 55.3693 54.4375 55.5099 54.8807 55.7912C55.3267 56.0724 55.6733 56.4673 55.9205 56.9759C56.1705 57.4844 56.2955 58.0795 56.2955 58.7614C56.2955 59.4375 56.1705 60.0284 55.9205 60.5341C55.6733 61.0398 55.3267 61.4332 54.8807 61.7145C54.4375 61.9957 53.9205 62.1364 53.3295 62.1364ZM53.3295 61.233C53.7784 61.233 54.1477 61.1179 54.4375 60.8878C54.7273 60.6577 54.9418 60.3551 55.081 59.9801C55.2202 59.6051 55.2898 59.1989 55.2898 58.7614C55.2898 58.3239 55.2202 57.9162 55.081 57.5384C54.9418 57.1605 54.7273 56.8551 54.4375 56.6222C54.1477 56.3892 53.7784 56.2727 53.3295 56.2727C52.8807 56.2727 52.5114 56.3892 52.2216 56.6222C51.9318 56.8551 51.7173 57.1605 51.5781 57.5384C51.4389 57.9162 51.3693 58.3239 51.3693 58.7614C51.3693 59.1989 51.4389 59.6051 51.5781 59.9801C51.7173 60.3551 51.9318 60.6577 52.2216 60.8878C52.5114 61.1179 52.8807 61.233 53.3295 61.233ZM60.4727 64.5909C59.9869 64.5909 59.5692 64.5284 59.2198 64.4034C58.8704 64.2812 58.5792 64.1193 58.3462 63.9176C58.1161 63.7188 57.9329 63.5057 57.7965 63.2784L58.5977 62.7159C58.6886 62.8352 58.8036 62.9716 58.9428 63.125C59.082 63.2812 59.2724 63.4162 59.5138 63.5298C59.7582 63.6463 60.0778 63.7045 60.4727 63.7045C61.0011 63.7045 61.4371 63.5767 61.7809 63.321C62.1246 63.0653 62.2965 62.6648 62.2965 62.1193V60.7898H62.2113C62.1374 60.9091 62.0323 61.0568 61.896 61.233C61.7624 61.4062 61.5692 61.5611 61.3164 61.6974C61.0664 61.831 60.7283 61.8977 60.3022 61.8977C59.7738 61.8977 59.2994 61.7727 58.8789 61.5227C58.4613 61.2727 58.1303 60.9091 57.886 60.4318C57.6445 59.9545 57.5238 59.375 57.5238 58.6932C57.5238 58.0227 57.6417 57.4389 57.8775 56.9418C58.1133 56.4418 58.4414 56.0554 58.8619 55.7827C59.2823 55.5071 59.7681 55.3693 60.3192 55.3693C60.7454 55.3693 61.0835 55.4403 61.3335 55.5824C61.5863 55.7216 61.7795 55.8807 61.913 56.0597C62.0494 56.2358 62.1545 56.3807 62.2283 56.4943H62.3306V55.4545H63.3022V62.1875C63.3022 62.75 63.1744 63.2074 62.9187 63.5597C62.6658 63.9148 62.3249 64.1747 61.896 64.3395C61.4698 64.5071 60.9954 64.5909 60.4727 64.5909ZM60.4386 60.9943C60.842 60.9943 61.1829 60.902 61.4613 60.7173C61.7397 60.5327 61.9513 60.267 62.0962 59.9205C62.2411 59.5739 62.3136 59.1591 62.3136 58.6761C62.3136 58.2045 62.2425 57.7884 62.1005 57.4276C61.9585 57.0668 61.7482 56.7841 61.4698 56.5795C61.1914 56.375 60.8477 56.2727 60.4386 56.2727C60.0124 56.2727 59.6573 56.3807 59.3732 56.5966C59.092 56.8125 58.8803 57.1023 58.7383 57.4659C58.5991 57.8295 58.5295 58.233 58.5295 58.6761C58.5295 59.1307 58.6005 59.5327 58.7425 59.8821C58.8874 60.2287 59.1005 60.5014 59.3817 60.7003C59.6658 60.8963 60.0181 60.9943 60.4386 60.9943ZM67.8022 62.1364C67.2113 62.1364 66.6928 61.9957 66.2468 61.7145C65.8036 61.4332 65.457 61.0398 65.207 60.5341C64.9599 60.0284 64.8363 59.4375 64.8363 58.7614C64.8363 58.0795 64.9599 57.4844 65.207 56.9759C65.457 56.4673 65.8036 56.0724 66.2468 55.7912C66.6928 55.5099 67.2113 55.3693 67.8022 55.3693C68.3931 55.3693 68.9102 55.5099 69.3533 55.7912C69.7994 56.0724 70.146 56.4673 70.3931 56.9759C70.6431 57.4844 70.7681 58.0795 70.7681 58.7614C70.7681 59.4375 70.6431 60.0284 70.3931 60.5341C70.146 61.0398 69.7994 61.4332 69.3533 61.7145C68.9102 61.9957 68.3931 62.1364 67.8022 62.1364ZM67.8022 61.233C68.2511 61.233 68.6204 61.1179 68.9102 60.8878C69.1999 60.6577 69.4144 60.3551 69.5536 59.9801C69.6928 59.6051 69.7624 59.1989 69.7624 58.7614C69.7624 58.3239 69.6928 57.9162 69.5536 57.5384C69.4144 57.1605 69.1999 56.8551 68.9102 56.6222C68.6204 56.3892 68.2511 56.2727 67.8022 56.2727C67.3533 56.2727 66.984 56.3892 66.6942 56.6222C66.4045 56.8551 66.19 57.1605 66.0508 57.5384C65.9116 57.9162 65.842 58.3239 65.842 58.7614C65.842 59.1989 65.9116 59.6051 66.0508 59.9801C66.19 60.3551 66.4045 60.6577 66.6942 60.8878C66.984 61.1179 67.3533 61.233 67.8022 61.233Z" fill="#FEFFFF"/>
<path d="M86.272 55.672H104.464V58.48H86.272V55.672ZM84.448 49.096H103.96V51.832H84.448V49.096ZM84.664 55.672H87.688V59.056C87.688 59.824 87.648 60.656 87.568 61.552C87.488 62.448 87.352 63.368 87.16 64.312C86.984 65.256 86.72 66.168 86.368 67.048C86.016 67.928 85.56 68.728 85 69.448C84.84 69.256 84.608 69.016 84.304 68.728C84 68.456 83.688 68.192 83.368 67.936C83.064 67.68 82.8 67.496 82.576 67.384C83.216 66.552 83.68 65.648 83.968 64.672C84.256 63.68 84.44 62.688 84.52 61.696C84.616 60.704 84.664 59.808 84.664 59.008V55.672ZM87.904 52.72L90.424 51.64C90.808 52.136 91.2 52.696 91.6 53.32C92 53.928 92.288 54.464 92.464 54.928L89.776 56.128C89.632 55.648 89.376 55.096 89.008 54.472C88.656 53.832 88.288 53.248 87.904 52.72ZM98.128 51.856L101.368 52.864C100.856 53.568 100.36 54.264 99.88 54.952C99.416 55.624 98.992 56.208 98.608 56.704L96.304 55.792C96.528 55.408 96.752 54.992 96.976 54.544C97.216 54.096 97.432 53.632 97.624 53.152C97.832 52.672 98 52.24 98.128 51.856ZM91.672 47.224L94.648 46.504C94.984 46.92 95.296 47.392 95.584 47.92C95.888 48.448 96.112 48.912 96.256 49.312L93.16 50.2C93.048 49.784 92.848 49.296 92.56 48.736C92.272 48.176 91.976 47.672 91.672 47.224ZM113.776 50.32V53.536H122.224V50.32H113.776ZM110.992 47.56H125.152V56.272H110.992V47.56ZM107.68 58.288H116.872V69.016H113.992V61.048H110.416V69.16H107.68V58.288ZM118.888 58.288H128.392V69.04H125.512V61.048H121.648V69.16H118.888V58.288ZM108.88 65.176H115.192V67.936H108.88V65.176ZM120.208 65.176H126.928V67.936H120.208V65.176ZM139.168 65.584H149.896V68.2H139.168V65.584ZM137.944 48.976H146.464V51.52H137.944V48.976ZM138.592 46.48L141.832 47.104C141.144 48.272 140.352 49.408 139.456 50.512C138.576 51.6 137.568 52.648 136.432 53.656C135.312 54.648 134.032 55.568 132.592 56.416C132.448 56.176 132.256 55.92 132.016 55.648C131.776 55.36 131.528 55.08 131.272 54.808C131.016 54.536 130.776 54.32 130.552 54.16C131.88 53.456 133.056 52.68 134.08 51.832C135.12 50.984 136.016 50.104 136.768 49.192C137.52 48.264 138.128 47.36 138.592 46.48ZM145.552 48.976H146.08L146.56 48.832L148.552 49.864C147.848 51.736 146.936 53.448 145.816 55C144.712 56.536 143.44 57.92 142 59.152C140.576 60.384 139.032 61.456 137.368 62.368C135.704 63.28 133.976 64.04 132.184 64.648C132.072 64.376 131.92 64.08 131.728 63.76C131.536 63.44 131.336 63.128 131.128 62.824C130.92 62.52 130.712 62.264 130.504 62.056C132.168 61.592 133.776 60.96 135.328 60.16C136.896 59.344 138.344 58.392 139.672 57.304C141.016 56.216 142.192 55.016 143.2 53.704C144.208 52.376 144.992 50.96 145.552 49.456V48.976ZM134.8 54.232L136.96 52.384C137.52 52.768 138.104 53.2 138.712 53.68C139.336 54.16 139.92 54.648 140.464 55.144C141.024 55.624 141.48 56.08 141.832 56.512L139.504 58.576C139.2 58.16 138.784 57.696 138.256 57.184C137.728 56.656 137.16 56.136 136.552 55.624C135.944 55.112 135.36 54.648 134.8 54.232ZM148.576 58.288H151.552V69.16H148.576V58.288ZM140.392 58.288H150.016V60.88H140.392V69.136H137.488V60.4L139.696 58.288H140.392ZM159.616 53.536H170.344V56.152H159.616V53.536ZM155.536 59.488H176.536V62.224H155.536V59.488ZM164.44 57.976H167.512V65.848C167.512 66.616 167.4 67.216 167.176 67.648C166.968 68.08 166.568 68.408 165.976 68.632C165.416 68.84 164.744 68.968 163.96 69.016C163.192 69.08 162.304 69.112 161.296 69.112C161.248 68.824 161.152 68.496 161.008 68.128C160.864 67.776 160.712 67.424 160.552 67.072C160.392 66.72 160.232 66.416 160.072 66.16C160.568 66.176 161.072 66.192 161.584 66.208C162.096 66.208 162.56 66.208 162.976 66.208C163.392 66.208 163.672 66.208 163.816 66.208C164.056 66.208 164.216 66.176 164.296 66.112C164.392 66.048 164.44 65.936 164.44 65.776V57.976ZM169.456 53.536H170.224L170.872 53.416L172.744 54.832C172.216 55.424 171.624 56.032 170.968 56.656C170.328 57.264 169.632 57.84 168.88 58.384C168.144 58.928 167.392 59.408 166.624 59.824C166.448 59.568 166.2 59.288 165.88 58.984C165.576 58.664 165.32 58.408 165.112 58.216C165.688 57.864 166.256 57.448 166.816 56.968C167.376 56.488 167.888 55.992 168.352 55.48C168.816 54.968 169.184 54.512 169.456 54.112V53.536ZM164.416 46.6H167.488V50.992H164.416V46.6ZM155.608 48.904H176.344V55.144H173.368V51.64H158.44V55.144H155.608V48.904Z" fill="#FEFFFF"/>
<path d="M467.416 47.08H470.272V65.776C470.272 66.592 470.168 67.208 469.96 67.624C469.768 68.04 469.424 68.36 468.928 68.584C468.416 68.808 467.76 68.952 466.96 69.016C466.176 69.08 465.224 69.112 464.104 69.112C464.04 68.712 463.912 68.24 463.72 67.696C463.528 67.168 463.328 66.712 463.12 66.328C463.632 66.344 464.128 66.36 464.608 66.376C465.104 66.392 465.544 66.4 465.928 66.4C466.312 66.4 466.584 66.4 466.744 66.4C466.984 66.384 467.152 66.336 467.248 66.256C467.36 66.16 467.416 66 467.416 65.776V47.08ZM462.808 49.36H465.568V62.992H462.808V49.36ZM452.464 55.336H458.968V57.808H452.464V55.336ZM451.216 55.336H454V65.176C454 65.672 454.072 65.984 454.216 66.112C454.376 66.24 454.728 66.304 455.272 66.304C455.4 66.304 455.608 66.304 455.896 66.304C456.184 66.304 456.504 66.304 456.856 66.304C457.208 66.304 457.536 66.304 457.84 66.304C458.144 66.304 458.376 66.304 458.536 66.304C458.872 66.304 459.12 66.232 459.28 66.088C459.456 65.928 459.576 65.632 459.64 65.2C459.72 64.768 459.784 64.128 459.832 63.28C460.136 63.488 460.528 63.696 461.008 63.904C461.504 64.096 461.936 64.24 462.304 64.336C462.208 65.456 462.04 66.344 461.8 67C461.56 67.64 461.2 68.088 460.72 68.344C460.256 68.616 459.608 68.752 458.776 68.752C458.632 68.752 458.432 68.752 458.176 68.752C457.92 68.752 457.624 68.752 457.288 68.752C456.968 68.752 456.648 68.752 456.328 68.752C456.008 68.752 455.72 68.752 455.464 68.752C455.224 68.752 455.04 68.752 454.912 68.752C453.968 68.752 453.224 68.648 452.68 68.44C452.152 68.232 451.776 67.864 451.552 67.336C451.328 66.824 451.216 66.104 451.216 65.176V55.336ZM457.912 55.336H460.672C460.672 55.336 460.664 55.464 460.648 55.72C460.648 55.96 460.64 56.16 460.624 56.32C460.56 57.648 460.488 58.744 460.408 59.608C460.344 60.472 460.248 61.152 460.12 61.648C459.992 62.144 459.832 62.504 459.64 62.728C459.4 63 459.152 63.192 458.896 63.304C458.64 63.416 458.352 63.496 458.032 63.544C457.744 63.592 457.368 63.624 456.904 63.64C456.456 63.64 455.968 63.632 455.44 63.616C455.424 63.232 455.352 62.816 455.224 62.368C455.096 61.92 454.936 61.528 454.744 61.192C455.144 61.24 455.504 61.272 455.824 61.288C456.16 61.288 456.416 61.288 456.592 61.288C456.752 61.288 456.88 61.272 456.976 61.24C457.088 61.208 457.192 61.144 457.288 61.048C457.384 60.92 457.472 60.672 457.552 60.304C457.632 59.92 457.696 59.36 457.744 58.624C457.808 57.872 457.864 56.896 457.912 55.696V55.336ZM454.864 49.552L456.784 47.872C457.424 48.528 458.112 49.264 458.848 50.08C459.584 50.88 460.272 51.664 460.912 52.432C461.568 53.2 462.088 53.888 462.472 54.496L460.36 56.488C460.008 55.864 459.52 55.152 458.896 54.352C458.288 53.536 457.624 52.712 456.904 51.88C456.2 51.032 455.52 50.256 454.864 49.552ZM455.128 46.552L457.768 47.392C456.952 49.296 455.92 51.072 454.672 52.72C453.424 54.368 452.024 55.784 450.472 56.968C450.312 56.76 450.104 56.52 449.848 56.248C449.608 55.976 449.36 55.712 449.104 55.456C448.848 55.2 448.616 54.992 448.408 54.832C449.384 54.176 450.304 53.4 451.168 52.504C452.032 51.592 452.8 50.632 453.472 49.624C454.16 48.6 454.712 47.576 455.128 46.552ZM478.864 60.496H489.28V59.44H478.864V60.496ZM478.864 57.76H489.28V56.728H478.864V57.76ZM492.136 54.976V62.272H476.128V54.976H492.136ZM490.168 50.152C489.912 50.616 489.672 51.04 489.448 51.424C489.224 51.792 489.024 52.112 488.848 52.384L486.304 51.832C486.464 51.496 486.624 51.128 486.784 50.728C486.944 50.312 487.072 49.944 487.168 49.624L490.168 50.152ZM480.784 49.624C480.976 49.96 481.144 50.336 481.288 50.752C481.448 51.152 481.568 51.504 481.648 51.808L478.912 52.432C478.848 52.112 478.744 51.736 478.6 51.304C478.472 50.872 478.328 50.488 478.168 50.152L480.784 49.624ZM485.416 46.6V49.504H482.536V46.6H485.416ZM494.464 51.856V54.088H473.608V51.856H494.464ZM493.192 47.896V50.128H474.76V47.896H493.192ZM478.24 63.928C477.904 64.84 477.472 65.72 476.944 66.568C476.432 67.4 475.752 68.104 474.904 68.68L472.648 67.144C473.4 66.68 474.048 66.08 474.592 65.344C475.136 64.608 475.544 63.848 475.816 63.064L478.24 63.928ZM491.392 62.776C491.888 63.176 492.392 63.632 492.904 64.144C493.416 64.656 493.888 65.168 494.32 65.68C494.752 66.192 495.088 66.68 495.328 67.144L492.952 68.536C492.728 68.104 492.408 67.616 491.992 67.072C491.592 66.544 491.144 66.016 490.648 65.488C490.152 64.944 489.656 64.456 489.16 64.024L491.392 62.776ZM483.04 61.72C483.504 61.912 483.984 62.136 484.48 62.392C484.992 62.648 485.472 62.912 485.92 63.184C486.384 63.44 486.76 63.696 487.048 63.952L485.392 65.632C485.12 65.376 484.76 65.112 484.312 64.84C483.88 64.552 483.416 64.272 482.92 64C482.424 63.712 481.952 63.464 481.504 63.256L483.04 61.72ZM481.648 65.872C481.648 66.192 481.728 66.392 481.888 66.472C482.064 66.536 482.424 66.568 482.968 66.568C483.096 66.568 483.304 66.568 483.592 66.568C483.88 66.568 484.2 66.568 484.552 66.568C484.904 66.568 485.232 66.568 485.536 66.568C485.856 66.568 486.096 66.568 486.256 66.568C486.56 66.568 486.784 66.528 486.928 66.448C487.072 66.352 487.176 66.168 487.24 65.896C487.32 65.608 487.376 65.184 487.408 64.624C487.696 64.816 488.08 65 488.56 65.176C489.056 65.336 489.488 65.448 489.856 65.512C489.76 66.424 489.592 67.12 489.352 67.6C489.112 68.096 488.768 68.432 488.32 68.608C487.888 68.8 487.288 68.896 486.52 68.896C486.392 68.896 486.192 68.896 485.92 68.896C485.664 68.896 485.376 68.896 485.056 68.896C484.736 68.896 484.416 68.896 484.096 68.896C483.776 68.896 483.48 68.896 483.208 68.896C482.952 68.896 482.76 68.896 482.632 68.896C481.624 68.896 480.848 68.808 480.304 68.632C479.76 68.456 479.384 68.144 479.176 67.696C478.968 67.264 478.864 66.672 478.864 65.92V63.376H481.648V65.872ZM498.4 49.096H517.672V52.12H498.4V49.096ZM497.08 64.576H519.016V67.48H497.08V64.576ZM506.272 50.752H509.56V65.752H506.272V50.752ZM528.4 50.632H543.256V53.392H528.4V50.632ZM533.704 56.296H540.016V58.96H533.704V56.296ZM534.304 46.576H537.16V51.76H534.304V46.576ZM539.224 56.296H542.104C542.104 56.296 542.096 56.368 542.08 56.512C542.08 56.656 542.08 56.824 542.08 57.016C542.08 57.208 542.072 57.368 542.056 57.496C541.992 59.192 541.92 60.648 541.84 61.864C541.76 63.064 541.664 64.072 541.552 64.888C541.456 65.704 541.336 66.352 541.192 66.832C541.064 67.312 540.896 67.672 540.688 67.912C540.4 68.28 540.088 68.536 539.752 68.68C539.432 68.84 539.056 68.952 538.624 69.016C538.256 69.064 537.776 69.088 537.184 69.088C536.592 69.104 535.968 69.104 535.312 69.088C535.28 68.64 535.184 68.144 535.024 67.6C534.864 67.072 534.648 66.616 534.376 66.232C534.984 66.28 535.552 66.312 536.08 66.328C536.624 66.328 537.024 66.328 537.28 66.328C537.488 66.328 537.664 66.312 537.808 66.28C537.952 66.232 538.08 66.144 538.192 66.016C538.384 65.824 538.536 65.4 538.648 64.744C538.776 64.088 538.88 63.112 538.96 61.816C539.056 60.52 539.144 58.84 539.224 56.776V56.296ZM521.08 52.384H528.832V55.12H521.08V52.384ZM523.72 47.08H526.528V63.136H523.72V47.08ZM520.6 62.728C521.32 62.52 522.136 62.264 523.048 61.96C523.976 61.656 524.944 61.328 525.952 60.976C526.976 60.608 527.992 60.24 529 59.872L529.552 62.584C528.176 63.128 526.776 63.672 525.352 64.216C523.944 64.744 522.648 65.232 521.464 65.68L520.6 62.728ZM532.264 52.24H535.144V56.776C535.144 57.784 535.064 58.84 534.904 59.944C534.744 61.048 534.44 62.144 533.992 63.232C533.544 64.32 532.888 65.376 532.024 66.4C531.176 67.424 530.056 68.36 528.664 69.208C528.408 68.872 528.072 68.512 527.656 68.128C527.24 67.76 526.848 67.44 526.48 67.168C527.76 66.384 528.784 65.552 529.552 64.672C530.32 63.792 530.896 62.896 531.28 61.984C531.664 61.056 531.92 60.152 532.048 59.272C532.192 58.376 532.264 57.528 532.264 56.728V52.24Z" fill="#FEFFFF"/>
<path d="M691.416 47.08H694.272V65.776C694.272 66.592 694.168 67.208 693.96 67.624C693.768 68.04 693.424 68.36 692.928 68.584C692.416 68.808 691.76 68.952 690.96 69.016C690.176 69.08 689.224 69.112 688.104 69.112C688.04 68.712 687.912 68.24 687.72 67.696C687.528 67.168 687.328 66.712 687.12 66.328C687.632 66.344 688.128 66.36 688.608 66.376C689.104 66.392 689.544 66.4 689.928 66.4C690.312 66.4 690.584 66.4 690.744 66.4C690.984 66.384 691.152 66.336 691.248 66.256C691.36 66.16 691.416 66 691.416 65.776V47.08ZM686.808 49.36H689.568V62.992H686.808V49.36ZM676.464 55.336H682.968V57.808H676.464V55.336ZM675.216 55.336H678V65.176C678 65.672 678.072 65.984 678.216 66.112C678.376 66.24 678.728 66.304 679.272 66.304C679.4 66.304 679.608 66.304 679.896 66.304C680.184 66.304 680.504 66.304 680.856 66.304C681.208 66.304 681.536 66.304 681.84 66.304C682.144 66.304 682.376 66.304 682.536 66.304C682.872 66.304 683.12 66.232 683.28 66.088C683.456 65.928 683.576 65.632 683.64 65.2C683.72 64.768 683.784 64.128 683.832 63.28C684.136 63.488 684.528 63.696 685.008 63.904C685.504 64.096 685.936 64.24 686.304 64.336C686.208 65.456 686.04 66.344 685.8 67C685.56 67.64 685.2 68.088 684.72 68.344C684.256 68.616 683.608 68.752 682.776 68.752C682.632 68.752 682.432 68.752 682.176 68.752C681.92 68.752 681.624 68.752 681.288 68.752C680.968 68.752 680.648 68.752 680.328 68.752C680.008 68.752 679.72 68.752 679.464 68.752C679.224 68.752 679.04 68.752 678.912 68.752C677.968 68.752 677.224 68.648 676.68 68.44C676.152 68.232 675.776 67.864 675.552 67.336C675.328 66.824 675.216 66.104 675.216 65.176V55.336ZM681.912 55.336H684.672C684.672 55.336 684.664 55.464 684.648 55.72C684.648 55.96 684.64 56.16 684.624 56.32C684.56 57.648 684.488 58.744 684.408 59.608C684.344 60.472 684.248 61.152 684.12 61.648C683.992 62.144 683.832 62.504 683.64 62.728C683.4 63 683.152 63.192 682.896 63.304C682.64 63.416 682.352 63.496 682.032 63.544C681.744 63.592 681.368 63.624 680.904 63.64C680.456 63.64 679.968 63.632 679.44 63.616C679.424 63.232 679.352 62.816 679.224 62.368C679.096 61.92 678.936 61.528 678.744 61.192C679.144 61.24 679.504 61.272 679.824 61.288C680.16 61.288 680.416 61.288 680.592 61.288C680.752 61.288 680.88 61.272 680.976 61.24C681.088 61.208 681.192 61.144 681.288 61.048C681.384 60.92 681.472 60.672 681.552 60.304C681.632 59.92 681.696 59.36 681.744 58.624C681.808 57.872 681.864 56.896 681.912 55.696V55.336ZM678.864 49.552L680.784 47.872C681.424 48.528 682.112 49.264 682.848 50.08C683.584 50.88 684.272 51.664 684.912 52.432C685.568 53.2 686.088 53.888 686.472 54.496L684.36 56.488C684.008 55.864 683.52 55.152 682.896 54.352C682.288 53.536 681.624 52.712 680.904 51.88C680.2 51.032 679.52 50.256 678.864 49.552ZM679.128 46.552L681.768 47.392C680.952 49.296 679.92 51.072 678.672 52.72C677.424 54.368 676.024 55.784 674.472 56.968C674.312 56.76 674.104 56.52 673.848 56.248C673.608 55.976 673.36 55.712 673.104 55.456C672.848 55.2 672.616 54.992 672.408 54.832C673.384 54.176 674.304 53.4 675.168 52.504C676.032 51.592 676.8 50.632 677.472 49.624C678.16 48.6 678.712 47.576 679.128 46.552ZM707.832 50.536H719.328V53.272H706.464L707.832 50.536ZM710.976 55.792H718.728V58.432H710.976V55.792ZM710.952 61.12H719.04V63.808H710.952V61.12ZM709.512 51.448H712.488V69.136H709.512V51.448ZM708.384 46.84L711.144 47.56C710.696 48.856 710.168 50.144 709.56 51.424C708.968 52.704 708.32 53.904 707.616 55.024C706.912 56.128 706.192 57.104 705.456 57.952C705.312 57.76 705.104 57.536 704.832 57.28C704.56 57.024 704.28 56.776 703.992 56.536C703.72 56.28 703.472 56.08 703.248 55.936C703.968 55.216 704.64 54.368 705.264 53.392C705.904 52.416 706.488 51.368 707.016 50.248C707.56 49.112 708.016 47.976 708.384 46.84ZM702.024 46.696L704.808 47.584C704.296 48.944 703.688 50.312 702.984 51.688C702.28 53.064 701.512 54.368 700.68 55.6C699.848 56.816 698.992 57.88 698.112 58.792C698.016 58.552 697.872 58.24 697.68 57.856C697.504 57.472 697.312 57.08 697.104 56.68C696.896 56.28 696.704 55.96 696.528 55.72C697.264 54.984 697.968 54.136 698.64 53.176C699.328 52.216 699.96 51.184 700.536 50.08C701.128 48.976 701.624 47.848 702.024 46.696ZM699.6 53.344L702.504 50.44V50.464V69.112H699.6V53.344ZM722.28 51.136H741.648V53.968H722.28V51.136ZM723.552 58.144H740.52V60.928H723.552V58.144ZM721.248 65.56H742.848V68.392H721.248V65.56ZM730.416 53.584H733.584V67.072H730.416V53.584ZM728.28 48.232L730.68 46.576C731.192 46.896 731.736 47.272 732.312 47.704C732.904 48.136 733.464 48.568 733.992 49C734.536 49.432 734.976 49.84 735.312 50.224L732.744 52.072C732.456 51.704 732.056 51.296 731.544 50.848C731.048 50.384 730.512 49.928 729.936 49.48C729.36 49.016 728.808 48.6 728.28 48.232ZM748.704 52.432V53.56H752.256V52.432H748.704ZM748.704 49.48V50.608H752.256V49.48H748.704ZM746.16 47.536H754.92V55.504H746.16V47.536ZM745.056 56.896H755.952V58.984H745.056V56.896ZM755.88 47.584H767.16V49.864H755.88V47.584ZM749.544 57.568H751.968V67.216L749.544 65.824V57.568ZM750.792 60.928H755.448V63.016H750.792V60.928ZM760.392 48.136L763.272 48.76C762.952 49.448 762.632 50.128 762.312 50.8C762.008 51.456 761.728 52.016 761.472 52.48L759.216 51.88C759.44 51.352 759.664 50.736 759.888 50.032C760.112 49.328 760.28 48.696 760.392 48.136ZM748.08 61.936C748.432 62.944 748.872 63.744 749.4 64.336C749.944 64.928 750.592 65.376 751.344 65.68C752.112 65.984 752.984 66.184 753.96 66.28C754.952 66.36 756.056 66.4 757.272 66.4C757.592 66.4 758.08 66.4 758.736 66.4C759.392 66.4 760.136 66.4 760.968 66.4C761.8 66.4 762.632 66.4 763.464 66.4C764.296 66.384 765.064 66.368 765.768 66.352C766.472 66.336 767.016 66.328 767.4 66.328C767.208 66.584 767.016 66.952 766.824 67.432C766.648 67.912 766.528 68.328 766.464 68.68H764.64H757.248C755.776 68.68 754.456 68.608 753.288 68.464C752.12 68.32 751.096 68.032 750.216 67.6C749.336 67.184 748.584 66.56 747.96 65.728C747.336 64.896 746.808 63.8 746.376 62.44L748.08 61.936ZM756.624 51.592H766.248V61.504H763.824V53.632H758.976V61.648H756.624V51.592ZM746.256 59.824L748.584 59.992C748.504 61.896 748.32 63.632 748.032 65.2C747.744 66.752 747.224 68.064 746.472 69.136C746.328 69.024 746.128 68.88 745.872 68.704C745.632 68.528 745.384 68.36 745.128 68.2C744.872 68.04 744.656 67.912 744.48 67.816C745.184 66.904 745.648 65.76 745.872 64.384C746.096 62.992 746.224 61.472 746.256 59.824ZM760.32 54.592H762.672C762.64 56.224 762.544 57.672 762.384 58.936C762.24 60.184 761.952 61.28 761.52 62.224C761.104 63.152 760.472 63.952 759.624 64.624C758.776 65.28 757.64 65.832 756.216 66.28C756.104 65.992 755.912 65.664 755.64 65.296C755.384 64.912 755.144 64.616 754.92 64.408C756.152 64.04 757.128 63.592 757.848 63.064C758.568 62.52 759.096 61.864 759.432 61.096C759.768 60.328 759.992 59.408 760.104 58.336C760.216 57.264 760.288 56.016 760.32 54.592ZM761.544 62.944L763.104 61.384C763.552 61.688 764.032 62.032 764.544 62.416C765.072 62.8 765.576 63.184 766.056 63.568C766.536 63.952 766.936 64.288 767.256 64.576L765.576 66.352C765.288 66.048 764.912 65.696 764.448 65.296C763.984 64.896 763.496 64.488 762.984 64.072C762.472 63.656 761.992 63.28 761.544 62.944Z" fill="url(#paint2_linear_347_358)"/>
<path d="M912.92 48.736L915.08 47.272C915.512 47.64 915.952 48.056 916.4 48.52C916.864 48.968 917.296 49.424 917.696 49.888C918.112 50.336 918.432 50.752 918.656 51.136L916.328 52.744C916.136 52.36 915.848 51.936 915.464 51.472C915.096 50.992 914.688 50.52 914.24 50.056C913.792 49.576 913.352 49.136 912.92 48.736ZM897.2 53.44H918.848V56.152H897.2V53.44ZM896.744 60.208C897.704 60.064 898.824 59.888 900.104 59.68C901.384 59.472 902.736 59.24 904.16 58.984C905.6 58.728 907.016 58.48 908.408 58.24L908.6 60.832C907.32 61.104 906.016 61.376 904.688 61.648C903.376 61.92 902.096 62.184 900.848 62.44C899.616 62.68 898.48 62.904 897.44 63.112L896.744 60.208ZM901.736 49.552H904.64V65.776C904.64 66.56 904.544 67.168 904.352 67.6C904.176 68.032 903.848 68.36 903.368 68.584C902.888 68.808 902.288 68.952 901.568 69.016C900.848 69.096 899.992 69.136 899 69.136C898.968 68.864 898.896 68.552 898.784 68.2C898.672 67.848 898.544 67.496 898.4 67.144C898.272 66.792 898.136 66.488 897.992 66.232C898.664 66.264 899.312 66.28 899.936 66.28C900.56 66.28 900.976 66.272 901.184 66.256C901.392 66.256 901.536 66.224 901.616 66.16C901.696 66.08 901.736 65.944 901.736 65.752V49.552ZM906.656 46.768L908.624 49.216C907.584 49.536 906.456 49.824 905.24 50.08C904.024 50.32 902.784 50.536 901.52 50.728C900.272 50.92 899.064 51.08 897.896 51.208C897.848 50.872 897.736 50.464 897.56 49.984C897.4 49.504 897.24 49.104 897.08 48.784C898.2 48.64 899.344 48.464 900.512 48.256C901.68 48.048 902.792 47.816 903.848 47.56C904.904 47.304 905.84 47.04 906.656 46.768ZM909.032 46.792H912.032C912 48.728 912.048 50.64 912.176 52.528C912.32 54.416 912.528 56.192 912.8 57.856C913.072 59.504 913.392 60.968 913.76 62.248C914.128 63.512 914.52 64.504 914.936 65.224C915.352 65.944 915.784 66.304 916.232 66.304C916.488 66.304 916.68 65.992 916.808 65.368C916.952 64.744 917.056 63.72 917.12 62.296C917.424 62.616 917.8 62.936 918.248 63.256C918.696 63.56 919.112 63.792 919.496 63.952C919.336 65.36 919.12 66.44 918.848 67.192C918.576 67.96 918.2 68.488 917.72 68.776C917.256 69.08 916.664 69.232 915.944 69.232C915.112 69.232 914.36 68.928 913.688 68.32C913.032 67.728 912.448 66.896 911.936 65.824C911.44 64.752 911.008 63.504 910.64 62.08C910.288 60.64 909.992 59.088 909.752 57.424C909.512 55.744 909.336 54 909.224 52.192C909.112 50.384 909.048 48.584 909.032 46.792ZM915.56 56.944L918.08 58.048C917.264 59.536 916.296 60.92 915.176 62.2C914.056 63.48 912.832 64.64 911.504 65.68C910.176 66.704 908.784 67.6 907.328 68.368C907.12 68.016 906.832 67.624 906.464 67.192C906.112 66.76 905.752 66.384 905.384 66.064C906.76 65.424 908.088 64.648 909.368 63.736C910.664 62.824 911.84 61.792 912.896 60.64C913.952 59.488 914.84 58.256 915.56 56.944ZM923.432 50.512H930.8V66.664H923.432V64.144H928.208V53.008H923.432V50.512ZM921.752 50.512H924.368V68.44H921.752V50.512ZM923.336 56.92H929.456V59.416H923.336V56.92ZM925.184 46.6L928.304 47.056C928.048 47.872 927.768 48.68 927.464 49.48C927.176 50.28 926.912 50.96 926.672 51.52L924.368 50.992C924.48 50.576 924.584 50.112 924.68 49.6C924.792 49.088 924.896 48.568 924.992 48.04C925.088 47.512 925.152 47.032 925.184 46.6ZM933.968 50.32H941V52.96H933.968V50.32ZM939.992 50.32H942.656C942.656 50.32 942.656 50.408 942.656 50.584C942.656 50.744 942.656 50.928 942.656 51.136C942.656 51.344 942.648 51.504 942.632 51.616C942.568 54.32 942.488 56.616 942.392 58.504C942.312 60.376 942.208 61.928 942.08 63.16C941.968 64.376 941.832 65.328 941.672 66.016C941.512 66.704 941.304 67.208 941.048 67.528C940.728 67.992 940.384 68.312 940.016 68.488C939.648 68.664 939.224 68.792 938.744 68.872C938.28 68.936 937.704 68.96 937.016 68.944C936.344 68.944 935.656 68.936 934.952 68.92C934.936 68.52 934.84 68.048 934.664 67.504C934.488 66.976 934.272 66.512 934.016 66.112C934.784 66.176 935.496 66.216 936.152 66.232C936.824 66.248 937.312 66.256 937.616 66.256C937.856 66.256 938.048 66.232 938.192 66.184C938.352 66.12 938.504 66.008 938.648 65.848C938.856 65.64 939.024 65.216 939.152 64.576C939.296 63.92 939.416 63 939.512 61.816C939.608 60.632 939.696 59.136 939.776 57.328C939.856 55.52 939.928 53.368 939.992 50.872V50.32ZM934.04 46.624L936.824 47.272C936.52 48.44 936.144 49.608 935.696 50.776C935.264 51.944 934.784 53.048 934.256 54.088C933.744 55.112 933.216 56.008 932.672 56.776C932.512 56.616 932.28 56.432 931.976 56.224C931.688 56 931.392 55.784 931.088 55.576C930.8 55.368 930.544 55.208 930.32 55.096C930.848 54.408 931.344 53.616 931.808 52.72C932.288 51.808 932.712 50.832 933.08 49.792C933.464 48.736 933.784 47.68 934.04 46.624ZM932.864 57.256L935.12 55.984C935.52 56.528 935.944 57.128 936.392 57.784C936.84 58.44 937.264 59.08 937.664 59.704C938.064 60.328 938.392 60.88 938.648 61.36L936.2 62.848C935.976 62.352 935.672 61.784 935.288 61.144C934.92 60.504 934.52 59.848 934.088 59.176C933.672 58.488 933.264 57.848 932.864 57.256ZM946.28 51.136H965.648V53.968H946.28V51.136ZM947.552 58.144H964.52V60.928H947.552V58.144ZM945.248 65.56H966.848V68.392H945.248V65.56ZM954.416 53.584H957.584V67.072H954.416V53.584ZM952.28 48.232L954.68 46.576C955.192 46.896 955.736 47.272 956.312 47.704C956.904 48.136 957.464 48.568 957.992 49C958.536 49.432 958.976 49.84 959.312 50.224L956.744 52.072C956.456 51.704 956.056 51.296 955.544 50.848C955.048 50.384 954.512 49.928 953.936 49.48C953.36 49.016 952.808 48.6 952.28 48.232ZM972.704 52.432V53.56H976.256V52.432H972.704ZM972.704 49.48V50.608H976.256V49.48H972.704ZM970.16 47.536H978.92V55.504H970.16V47.536ZM969.056 56.896H979.952V58.984H969.056V56.896ZM979.88 47.584H991.16V49.864H979.88V47.584ZM973.544 57.568H975.968V67.216L973.544 65.824V57.568ZM974.792 60.928H979.448V63.016H974.792V60.928ZM984.392 48.136L987.272 48.76C986.952 49.448 986.632 50.128 986.312 50.8C986.008 51.456 985.728 52.016 985.472 52.48L983.216 51.88C983.44 51.352 983.664 50.736 983.888 50.032C984.112 49.328 984.28 48.696 984.392 48.136ZM972.08 61.936C972.432 62.944 972.872 63.744 973.4 64.336C973.944 64.928 974.592 65.376 975.344 65.68C976.112 65.984 976.984 66.184 977.96 66.28C978.952 66.36 980.056 66.4 981.272 66.4C981.592 66.4 982.08 66.4 982.736 66.4C983.392 66.4 984.136 66.4 984.968 66.4C985.8 66.4 986.632 66.4 987.464 66.4C988.296 66.384 989.064 66.368 989.768 66.352C990.472 66.336 991.016 66.328 991.4 66.328C991.208 66.584 991.016 66.952 990.824 67.432C990.648 67.912 990.528 68.328 990.464 68.68H988.64H981.248C979.776 68.68 978.456 68.608 977.288 68.464C976.12 68.32 975.096 68.032 974.216 67.6C973.336 67.184 972.584 66.56 971.96 65.728C971.336 64.896 970.808 63.8 970.376 62.44L972.08 61.936ZM980.624 51.592H990.248V61.504H987.824V53.632H982.976V61.648H980.624V51.592ZM970.256 59.824L972.584 59.992C972.504 61.896 972.32 63.632 972.032 65.2C971.744 66.752 971.224 68.064 970.472 69.136C970.328 69.024 970.128 68.88 969.872 68.704C969.632 68.528 969.384 68.36 969.128 68.2C968.872 68.04 968.656 67.912 968.48 67.816C969.184 66.904 969.648 65.76 969.872 64.384C970.096 62.992 970.224 61.472 970.256 59.824ZM984.32 54.592H986.672C986.64 56.224 986.544 57.672 986.384 58.936C986.24 60.184 985.952 61.28 985.52 62.224C985.104 63.152 984.472 63.952 983.624 64.624C982.776 65.28 981.64 65.832 980.216 66.28C980.104 65.992 979.912 65.664 979.64 65.296C979.384 64.912 979.144 64.616 978.92 64.408C980.152 64.04 981.128 63.592 981.848 63.064C982.568 62.52 983.096 61.864 983.432 61.096C983.768 60.328 983.992 59.408 984.104 58.336C984.216 57.264 984.288 56.016 984.32 54.592ZM985.544 62.944L987.104 61.384C987.552 61.688 988.032 62.032 988.544 62.416C989.072 62.8 989.576 63.184 990.056 63.568C990.536 63.952 990.936 64.288 991.256 64.576L989.576 66.352C989.288 66.048 988.912 65.696 988.448 65.296C987.984 64.896 987.496 64.488 986.984 64.072C986.472 63.656 985.992 63.28 985.544 62.944Z" fill="#FEFFFF"/>
<path d="M1273.5 57.2727C1275.31 57.2727 1276.77 55.8075 1276.77 54C1276.77 52.1925 1275.31 50.7273 1273.5 50.7273C1271.69 50.7273 1270.23 52.1925 1270.23 54C1270.23 55.8075 1271.69 57.2727 1273.5 57.2727Z" stroke="#A4A3B6" stroke-width="2.5" stroke-linecap="round" stroke-linejoin="round"/>
<path d="M1281.57 57.2727C1281.43 57.6018 1281.38 57.9668 1281.45 58.3206C1281.51 58.6745 1281.68 59.0011 1281.93 59.2582L1282 59.3236C1282.2 59.5263 1282.36 59.7669 1282.47 60.0318C1282.58 60.2966 1282.64 60.5805 1282.64 60.8673C1282.64 61.154 1282.58 61.4379 1282.47 61.7028C1282.36 61.9676 1282.2 62.2083 1282 62.4109C1281.8 62.6138 1281.55 62.7747 1281.29 62.8845C1281.03 62.9943 1280.74 63.0508 1280.45 63.0508C1280.17 63.0508 1279.88 62.9943 1279.62 62.8845C1279.35 62.7747 1279.11 62.6138 1278.91 62.4109L1278.85 62.3455C1278.59 62.094 1278.26 61.9253 1277.91 61.8611C1277.55 61.7969 1277.19 61.8402 1276.86 61.9855C1276.54 62.1237 1276.26 62.3534 1276.07 62.646C1275.87 62.9387 1275.77 63.2817 1275.77 63.6327V63.8182C1275.77 64.3968 1275.54 64.9518 1275.13 65.361C1274.72 65.7701 1274.17 66 1273.59 66C1273.01 66 1272.45 65.7701 1272.04 65.361C1271.64 64.9518 1271.41 64.3968 1271.41 63.8182V63.72C1271.4 63.3589 1271.28 63.0087 1271.07 62.7149C1270.86 62.4212 1270.57 62.1974 1270.23 62.0727C1269.9 61.9275 1269.53 61.8842 1269.18 61.9484C1268.83 62.0125 1268.5 62.1812 1268.24 62.4327L1268.18 62.4982C1267.97 62.701 1267.73 62.862 1267.47 62.9718C1267.2 63.0816 1266.92 63.1381 1266.63 63.1381C1266.35 63.1381 1266.06 63.0816 1265.8 62.9718C1265.53 62.862 1265.29 62.701 1265.09 62.4982C1264.89 62.2956 1264.73 62.0549 1264.62 61.7901C1264.51 61.5252 1264.45 61.2413 1264.45 60.9545C1264.45 60.6678 1264.51 60.3839 1264.62 60.119C1264.73 59.8542 1264.89 59.6135 1265.09 59.4109L1265.15 59.3455C1265.41 59.0884 1265.57 58.7618 1265.64 58.4079C1265.7 58.054 1265.66 57.689 1265.51 57.36C1265.38 57.0373 1265.15 56.7622 1264.85 56.5683C1264.56 56.3745 1264.22 56.2705 1263.87 56.2691H1263.68C1263.1 56.2691 1262.55 56.0392 1262.14 55.6301C1261.73 55.2209 1261.5 54.6659 1261.5 54.0873C1261.5 53.5086 1261.73 52.9537 1262.14 52.5445C1262.55 52.1353 1263.1 51.9055 1263.68 51.9055H1263.78C1264.14 51.897 1264.49 51.7801 1264.79 51.57C1265.08 51.3599 1265.3 51.0663 1265.43 50.7273C1265.57 50.3982 1265.62 50.0332 1265.55 49.6794C1265.49 49.3255 1265.32 48.9989 1265.07 48.7418L1265 48.6764C1264.8 48.4737 1264.64 48.2331 1264.53 47.9682C1264.42 47.7034 1264.36 47.4195 1264.36 47.1327C1264.36 46.846 1264.42 46.5621 1264.53 46.2972C1264.64 46.0324 1264.8 45.7917 1265 45.5891C1265.2 45.3862 1265.45 45.2253 1265.71 45.1155C1265.97 45.0057 1266.26 44.9492 1266.55 44.9492C1266.83 44.9492 1267.12 45.0057 1267.38 45.1155C1267.65 45.2253 1267.89 45.3862 1268.09 45.5891L1268.15 45.6545C1268.41 45.906 1268.74 46.0747 1269.09 46.1389C1269.45 46.2031 1269.81 46.1598 1270.14 46.0145H1270.23C1270.55 45.8763 1270.83 45.6466 1271.02 45.354C1271.21 45.0613 1271.32 44.7183 1271.32 44.3673V44.1818C1271.32 43.6032 1271.55 43.0482 1271.96 42.639C1272.37 42.2299 1272.92 42 1273.5 42C1274.08 42 1274.63 42.2299 1275.04 42.639C1275.45 43.0482 1275.68 43.6032 1275.68 44.1818V44.28C1275.68 44.631 1275.79 44.974 1275.98 45.2667C1276.17 45.5594 1276.45 45.789 1276.77 45.9273C1277.1 46.0725 1277.47 46.1158 1277.82 46.0516C1278.17 45.9875 1278.5 45.8188 1278.76 45.5673L1278.82 45.5018C1279.03 45.299 1279.27 45.138 1279.53 45.0282C1279.8 44.9184 1280.08 44.8619 1280.37 44.8619C1280.65 44.8619 1280.94 44.9184 1281.2 45.0282C1281.47 45.138 1281.71 45.299 1281.91 45.5018C1282.11 45.7045 1282.27 45.9451 1282.38 46.2099C1282.49 46.4748 1282.55 46.7587 1282.55 47.0455C1282.55 47.3322 1282.49 47.6161 1282.38 47.881C1282.27 48.1458 1282.11 48.3865 1281.91 48.5891L1281.85 48.6545C1281.59 48.9117 1281.43 49.2382 1281.36 49.5921C1281.3 49.946 1281.34 50.311 1281.49 50.64V50.7273C1281.62 51.0499 1281.85 51.3251 1282.15 51.5189C1282.44 51.7128 1282.78 51.8168 1283.13 51.8182H1283.32C1283.9 51.8182 1284.45 52.0481 1284.86 52.4572C1285.27 52.8664 1285.5 53.4213 1285.5 54C1285.5 54.5787 1285.27 55.1336 1284.86 55.5428C1284.45 55.9519 1283.9 56.1818 1283.32 56.1818H1283.22C1282.87 56.1832 1282.53 56.2872 1282.23 56.4811C1281.94 56.6749 1281.71 56.9501 1281.57 57.2727Z" stroke="#A4A3B6" stroke-width="2.5" stroke-linecap="round" stroke-linejoin="round"/>
<path d="M1324.7 54H1334.3M1341.5 54C1341.5 60.6274 1336.13 66 1329.5 66C1322.87 66 1317.5 60.6274 1317.5 54C1317.5 47.3726 1322.87 42 1329.5 42C1336.13 42 1341.5 47.3726 1341.5 54Z" stroke="#A4A3B6" stroke-width="2.5" stroke-linecap="round" stroke-linejoin="round"/>
<path d="M1389.1 50.4L1381.9 57.6M1381.9 50.4L1389.1 57.6M1397.5 54C1397.5 60.6274 1392.13 66 1385.5 66C1378.87 66 1373.5 60.6274 1373.5 54C1373.5 47.3726 1378.87 42 1385.5 42C1392.13 42 1397.5 47.3726 1397.5 54Z" stroke="#A4A3B6" stroke-width="2.5" stroke-linecap="round" stroke-linejoin="round"/>
<line y1="97.5" x2="1440" y2="97.5" stroke="#2E2C4A"/>
<path d="M588.529 275.728H591.505V292.168C591.505 292.648 591.545 293.008 591.625 293.248C591.705 293.488 591.865 293.648 592.105 293.728C592.361 293.808 592.737 293.848 593.233 293.848C593.377 293.848 593.601 293.848 593.905 293.848C594.225 293.848 594.577 293.848 594.961 293.848C595.345 293.848 595.729 293.848 596.113 293.848C596.513 293.848 596.873 293.848 597.193 293.848C597.513 293.848 597.737 293.848 597.865 293.848C598.329 293.848 598.673 293.76 598.897 293.584C599.137 293.408 599.313 293.08 599.425 292.6C599.537 292.12 599.625 291.432 599.689 290.536C600.041 290.76 600.489 290.984 601.033 291.208C601.577 291.432 602.057 291.592 602.473 291.688C602.345 292.888 602.129 293.856 601.825 294.592C601.537 295.312 601.105 295.832 600.529 296.152C599.953 296.472 599.161 296.632 598.153 296.632C597.993 296.632 597.729 296.632 597.361 296.632C597.009 296.632 596.609 296.632 596.161 296.632C595.729 296.632 595.289 296.632 594.841 296.632C594.409 296.632 594.017 296.632 593.665 296.632C593.313 296.632 593.057 296.632 592.897 296.632C591.793 296.632 590.921 296.504 590.281 296.248C589.641 295.992 589.185 295.544 588.913 294.904C588.657 294.248 588.529 293.328 588.529 292.144V275.728ZM589.873 275.728H601.345V289.192H598.297V278.56H589.873V275.728ZM589.753 284.968H599.281V287.704H589.753V284.968ZM593.545 276.856H596.209V285.832H593.545V276.856ZM579.505 286.864C580.209 286.704 581.009 286.52 581.905 286.312C582.801 286.104 583.737 285.88 584.713 285.64C585.705 285.384 586.689 285.128 587.665 284.872L588.025 287.536C586.681 287.904 585.321 288.272 583.945 288.64C582.585 288.992 581.337 289.32 580.201 289.624L579.505 286.864ZM579.913 279.136H587.521V281.8H579.913V279.136ZM582.481 274.6H585.313V294.088C585.313 294.76 585.241 295.288 585.097 295.672C584.953 296.056 584.697 296.36 584.329 296.584C583.945 296.792 583.489 296.928 582.961 296.992C582.433 297.072 581.785 297.112 581.017 297.112C580.985 296.744 580.889 296.304 580.729 295.792C580.585 295.28 580.425 294.84 580.249 294.472C580.633 294.488 581.001 294.504 581.353 294.52C581.721 294.52 581.969 294.512 582.097 294.496C582.353 294.496 582.481 294.368 582.481 294.112V274.6ZM604.129 288.88H625.825V291.232H604.129V288.88ZM613.465 287.176H616.393V297.16H613.465V287.176ZM612.745 290.056L614.665 290.968C613.945 291.816 613.081 292.624 612.073 293.392C611.065 294.16 609.985 294.848 608.833 295.456C607.681 296.064 606.537 296.552 605.401 296.92C605.273 296.696 605.105 296.448 604.897 296.176C604.689 295.904 604.473 295.632 604.249 295.36C604.025 295.088 603.809 294.864 603.601 294.688C604.753 294.416 605.897 294.04 607.033 293.56C608.185 293.08 609.257 292.544 610.249 291.952C611.257 291.36 612.089 290.728 612.745 290.056ZM617.209 290.08C617.849 290.752 618.649 291.376 619.609 291.952C620.585 292.528 621.649 293.04 622.801 293.488C623.953 293.92 625.121 294.264 626.305 294.52C625.985 294.808 625.649 295.184 625.297 295.648C624.945 296.112 624.665 296.536 624.457 296.92C623.273 296.552 622.105 296.064 620.953 295.456C619.817 294.864 618.761 294.184 617.785 293.416C616.809 292.632 615.969 291.792 615.265 290.896L617.209 290.08ZM613.177 274.6H616.153V280.792H613.177V274.6ZM609.361 284.536V285.616H620.425V284.536H609.361ZM609.361 281.488V282.568H620.425V281.488H609.361ZM606.505 279.424H623.425V287.68H606.505V279.424ZM614.641 276.016H624.673V278.272H614.641V276.016ZM635.593 285.184H641.785V287.44H635.593V285.184ZM635.593 289.24H641.809V291.496H635.593V289.24ZM630.961 293.272H647.161V295.936H630.961V293.272ZM629.137 280.864H648.745V297.16H645.817V283.504H631.921V297.16H629.137V280.864ZM634.369 282.616H636.937V294.472H634.369V282.616ZM640.633 282.616H643.225V294.448H640.633V282.616ZM637.105 277.24L640.489 277.96C640.201 278.84 639.921 279.72 639.649 280.6C639.393 281.464 639.145 282.208 638.905 282.832L636.289 282.136C636.401 281.672 636.513 281.16 636.625 280.6C636.737 280.024 636.833 279.448 636.913 278.872C637.009 278.28 637.073 277.736 637.105 277.24ZM628.153 275.992H649.849V278.704H628.153V275.992ZM655.609 298.312L654.841 296.368C655.849 296.048 656.617 295.608 657.145 295.048C657.689 294.504 657.961 293.88 657.961 293.176L657.769 290.824L659.113 292.96C658.905 293.136 658.681 293.272 658.441 293.368C658.201 293.464 657.945 293.512 657.673 293.512C657.081 293.512 656.553 293.328 656.089 292.96C655.625 292.576 655.393 292.04 655.393 291.352C655.393 290.68 655.625 290.152 656.089 289.768C656.553 289.384 657.105 289.192 657.745 289.192C658.593 289.192 659.233 289.488 659.665 290.08C660.113 290.672 660.337 291.472 660.337 292.48C660.337 293.84 659.921 295.04 659.089 296.08C658.257 297.12 657.097 297.864 655.609 298.312ZM682.585 278.608H685.489V286.12H682.585V278.608ZM676.537 276.928H697.393V279.448H676.537V276.928ZM679.465 280.024L682.057 280.72C681.657 281.632 681.145 282.528 680.521 283.408C679.897 284.272 679.265 284.992 678.625 285.568C678.465 285.424 678.249 285.256 677.977 285.064C677.705 284.856 677.425 284.664 677.137 284.488C676.865 284.312 676.617 284.168 676.393 284.056C677.033 283.544 677.625 282.936 678.169 282.232C678.713 281.512 679.145 280.776 679.465 280.024ZM691.153 281.392L693.265 280.048C693.777 280.416 694.297 280.84 694.825 281.32C695.353 281.784 695.841 282.256 696.289 282.736C696.753 283.2 697.121 283.616 697.393 283.984L695.209 285.568C694.921 285.152 694.553 284.696 694.105 284.2C693.657 283.704 693.169 283.208 692.641 282.712C692.129 282.216 691.633 281.776 691.153 281.392ZM684.865 274.984L687.673 274.336C687.929 274.736 688.185 275.184 688.441 275.68C688.713 276.176 688.929 276.616 689.089 277L686.137 277.72C686.009 277.368 685.817 276.928 685.561 276.4C685.321 275.872 685.089 275.4 684.865 274.984ZM688.345 278.344H691.249V286.096H688.345V278.344ZM682.009 287.92C682.937 289.232 684.177 290.352 685.729 291.28C687.297 292.208 689.129 292.952 691.225 293.512C693.321 294.072 695.609 294.464 698.089 294.688C697.913 294.88 697.713 295.128 697.489 295.432C697.281 295.736 697.089 296.04 696.913 296.344C696.737 296.664 696.585 296.952 696.457 297.208C693.897 296.904 691.553 296.408 689.425 295.72C687.297 295.048 685.409 294.152 683.761 293.032C682.129 291.896 680.737 290.528 679.585 288.928L682.009 287.92ZM677.905 286.648H692.953V289.168H677.905V286.648ZM692.449 286.648H693.049L693.505 286.552L695.353 287.776C694.537 289.216 693.497 290.472 692.233 291.544C690.985 292.616 689.561 293.528 687.961 294.28C686.377 295.016 684.673 295.624 682.849 296.104C681.041 296.584 679.169 296.952 677.233 297.208C677.169 296.968 677.057 296.68 676.897 296.344C676.737 296.024 676.561 295.712 676.369 295.408C676.193 295.104 676.025 294.856 675.865 294.664C677.753 294.472 679.553 294.192 681.265 293.824C682.993 293.456 684.585 292.968 686.041 292.36C687.497 291.752 688.769 291.016 689.857 290.152C690.961 289.288 691.825 288.272 692.449 287.104V286.648ZM703.321 283.648H708.865V286.264H703.321V283.648ZM707.761 283.648H710.545C710.545 283.648 710.545 283.712 710.545 283.84C710.545 283.968 710.545 284.12 710.545 284.296C710.545 284.456 710.545 284.592 710.545 284.704C710.513 286.4 710.473 287.792 710.425 288.88C710.377 289.952 710.297 290.792 710.185 291.4C710.089 291.992 709.953 292.408 709.777 292.648C709.537 292.952 709.281 293.168 709.009 293.296C708.753 293.424 708.449 293.52 708.097 293.584C707.777 293.648 707.369 293.688 706.873 293.704C706.393 293.704 705.865 293.696 705.289 293.68C705.273 293.264 705.193 292.8 705.049 292.288C704.905 291.776 704.729 291.344 704.521 290.992C704.953 291.024 705.353 291.048 705.721 291.064C706.105 291.08 706.393 291.088 706.585 291.088C706.745 291.088 706.881 291.072 706.993 291.04C707.121 290.992 707.225 290.912 707.305 290.8C707.417 290.656 707.497 290.36 707.545 289.912C707.609 289.448 707.657 288.752 707.689 287.824C707.721 286.88 707.745 285.632 707.761 284.08V283.648ZM714.961 276.112L716.713 274.384C717.161 274.608 717.633 274.872 718.129 275.176C718.625 275.48 719.097 275.784 719.545 276.088C720.009 276.392 720.385 276.688 720.673 276.976L718.825 278.896C718.553 278.624 718.201 278.32 717.769 277.984C717.337 277.648 716.873 277.32 716.377 277C715.881 276.664 715.409 276.368 714.961 276.112ZM717.793 282.304L720.721 283C719.713 286.12 718.337 288.88 716.593 291.28C714.849 293.664 712.785 295.592 710.401 297.064C710.273 296.856 710.081 296.6 709.825 296.296C709.569 296.008 709.305 295.712 709.033 295.408C708.761 295.12 708.521 294.88 708.313 294.688C710.617 293.44 712.569 291.76 714.169 289.648C715.769 287.52 716.977 285.072 717.793 282.304ZM703.465 278.2H721.993V281.032H703.465V278.2ZM701.545 278.2H704.569V285.28C704.569 286.176 704.537 287.16 704.473 288.232C704.409 289.288 704.289 290.376 704.113 291.496C703.937 292.6 703.673 293.664 703.321 294.688C702.985 295.712 702.545 296.632 702.001 297.448C701.841 297.24 701.601 297.008 701.281 296.752C700.977 296.496 700.665 296.24 700.345 295.984C700.041 295.744 699.777 295.576 699.553 295.48C700.161 294.52 700.601 293.448 700.873 292.264C701.161 291.064 701.345 289.856 701.425 288.64C701.505 287.424 701.545 286.296 701.545 285.256V278.2ZM711.289 274.624H714.313C714.281 276.592 714.337 278.52 714.481 280.408C714.625 282.296 714.833 284.064 715.105 285.712C715.393 287.344 715.729 288.792 716.113 290.056C716.497 291.304 716.921 292.28 717.385 292.984C717.849 293.688 718.321 294.04 718.801 294.04C719.073 294.04 719.281 293.712 719.425 293.056C719.585 292.4 719.697 291.32 719.761 289.816C720.097 290.136 720.489 290.448 720.937 290.752C721.401 291.056 721.825 291.28 722.209 291.424C722.065 292.912 721.849 294.064 721.561 294.88C721.273 295.68 720.889 296.232 720.409 296.536C719.929 296.84 719.313 296.992 718.561 296.992C717.697 296.992 716.913 296.696 716.209 296.104C715.521 295.512 714.905 294.688 714.361 293.632C713.833 292.576 713.377 291.336 712.993 289.912C712.609 288.488 712.289 286.944 712.033 285.28C711.793 283.616 711.609 281.888 711.481 280.096C711.369 278.288 711.305 276.464 711.289 274.624ZM733.777 274.696L736.609 275.344C736.273 276.592 735.865 277.832 735.385 279.064C734.905 280.28 734.377 281.424 733.801 282.496C733.241 283.552 732.641 284.48 732.001 285.28C731.825 285.104 731.593 284.896 731.305 284.656C731.033 284.416 730.745 284.184 730.441 283.96C730.153 283.72 729.897 283.528 729.673 283.384C730.297 282.696 730.865 281.888 731.377 280.96C731.889 280.032 732.345 279.032 732.745 277.96C733.161 276.888 733.505 275.8 733.777 274.696ZM733.105 285.352L735.913 285.928C735.689 286.952 735.401 287.96 735.049 288.952C734.713 289.928 734.337 290.856 733.921 291.736C733.505 292.6 733.073 293.36 732.625 294.016C732.449 293.856 732.209 293.68 731.905 293.488C731.601 293.28 731.289 293.088 730.969 292.912C730.665 292.72 730.401 292.568 730.177 292.456C730.865 291.608 731.457 290.544 731.953 289.264C732.449 287.984 732.833 286.68 733.105 285.352ZM734.305 278.92H744.169V281.584H733.249L734.305 278.92ZM737.065 280.096H739.921V293.944C739.921 294.616 739.849 295.168 739.705 295.6C739.561 296.032 739.265 296.368 738.817 296.608C738.401 296.832 737.897 296.984 737.305 297.064C736.729 297.144 736.049 297.184 735.265 297.184C735.217 296.752 735.089 296.256 734.881 295.696C734.689 295.136 734.489 294.664 734.281 294.28C734.793 294.296 735.273 294.304 735.721 294.304C736.185 294.304 736.497 294.304 736.657 294.304C736.801 294.304 736.905 294.28 736.969 294.232C737.033 294.168 737.065 294.056 737.065 293.896V280.096ZM740.785 285.976L743.353 285.112C743.785 285.944 744.177 286.832 744.529 287.776C744.881 288.704 745.185 289.624 745.441 290.536C745.697 291.432 745.881 292.24 745.993 292.96L743.233 293.92C743.137 293.216 742.969 292.4 742.729 291.472C742.505 290.544 742.225 289.608 741.889 288.664C741.553 287.704 741.185 286.808 740.785 285.976ZM743.377 278.92H743.761L744.217 278.824L746.257 279.208C746.113 280.184 745.945 281.192 745.753 282.232C745.561 283.256 745.377 284.128 745.201 284.848L742.753 284.392C742.817 283.96 742.889 283.456 742.969 282.88C743.049 282.304 743.129 281.704 743.209 281.08C743.289 280.44 743.345 279.84 743.377 279.28V278.92ZM728.641 274.696L731.353 275.56C730.841 276.904 730.233 278.264 729.529 279.64C728.825 281 728.065 282.296 727.249 283.528C726.433 284.744 725.585 285.808 724.705 286.72C724.625 286.48 724.489 286.176 724.297 285.808C724.121 285.424 723.929 285.04 723.721 284.656C723.513 284.272 723.329 283.96 723.169 283.72C723.889 282.984 724.585 282.136 725.257 281.176C725.945 280.216 726.577 279.184 727.153 278.08C727.745 276.976 728.241 275.848 728.641 274.696ZM726.337 281.344L729.073 278.608V278.632V297.112H726.337V281.344ZM752.737 294.568H765.409V296.512H752.737V294.568ZM750.961 291.184H767.185V297.136H764.233V293.104H753.793V297.16H750.961V291.184ZM748.753 276.04H769.201V278.08H748.753V276.04ZM750.385 279.064H767.761V281.056H750.385V279.064ZM747.913 288.136H769.969V290.32H747.913V288.136ZM757.393 274.576H760.345V279.808H757.393V274.576ZM752.881 286.888L755.521 286.24C755.745 286.544 755.945 286.896 756.121 287.296C756.313 287.696 756.441 288.048 756.505 288.352L753.769 289.12C753.705 288.816 753.585 288.456 753.409 288.04C753.249 287.608 753.073 287.224 752.881 286.888ZM762.169 286.192L765.361 286.648C765.073 287.128 764.777 287.576 764.473 287.992C764.185 288.392 763.929 288.736 763.705 289.024L761.209 288.52C761.401 288.152 761.585 287.76 761.761 287.344C761.937 286.912 762.073 286.528 762.169 286.192ZM754.177 283.648V284.872H763.801V283.648H754.177ZM751.441 281.872H766.705V286.624H751.441V281.872ZM771.913 277.192H779.521V279.712H771.913V277.192ZM778.753 277.192H779.233L779.689 277.072L781.441 277.672C781.105 280.408 780.561 282.904 779.809 285.16C779.073 287.4 778.153 289.384 777.049 291.112C775.945 292.824 774.673 294.264 773.233 295.432C773.009 295.096 772.705 294.712 772.321 294.28C771.953 293.848 771.609 293.512 771.289 293.272C772.249 292.584 773.137 291.704 773.953 290.632C774.769 289.56 775.497 288.352 776.137 287.008C776.777 285.648 777.321 284.192 777.769 282.64C778.217 281.072 778.545 279.448 778.753 277.768V277.192ZM771.817 282.376L773.833 280.768C774.489 281.616 775.169 282.528 775.873 283.504C776.577 284.464 777.265 285.432 777.937 286.408C778.625 287.384 779.249 288.328 779.809 289.24C780.385 290.136 780.841 290.952 781.177 291.688L778.921 293.608C778.601 292.856 778.169 292.016 777.625 291.088C777.081 290.16 776.481 289.192 775.825 288.184C775.185 287.176 774.521 286.176 773.833 285.184C773.145 284.176 772.473 283.24 771.817 282.376ZM784.273 277.984H791.809V280.576H784.273V277.984ZM783.433 274.648L786.169 274.984C785.913 277.064 785.529 279.024 785.017 280.864C784.505 282.688 783.817 284.208 782.953 285.424C782.793 285.28 782.569 285.104 782.281 284.896C782.009 284.688 781.729 284.48 781.441 284.272C781.153 284.064 780.897 283.904 780.673 283.792C781.217 283.088 781.665 282.256 782.017 281.296C782.385 280.336 782.681 279.288 782.905 278.152C783.145 277.016 783.321 275.848 783.433 274.648ZM791.233 277.984H791.665L792.097 277.888L794.041 278.416C793.801 279.52 793.505 280.632 793.153 281.752C792.801 282.872 792.449 283.832 792.097 284.632L789.841 283.864C790.017 283.4 790.193 282.864 790.369 282.256C790.545 281.632 790.705 280.984 790.849 280.312C791.009 279.64 791.137 279.008 791.233 278.416V277.984ZM788.065 283.672C788.337 285.368 788.729 286.944 789.241 288.4C789.753 289.856 790.433 291.128 791.281 292.216C792.145 293.288 793.225 294.12 794.521 294.712C794.329 294.904 794.113 295.136 793.873 295.408C793.633 295.696 793.401 295.992 793.177 296.296C792.969 296.616 792.801 296.904 792.673 297.16C791.249 296.376 790.081 295.352 789.169 294.088C788.257 292.824 787.529 291.344 786.985 289.648C786.457 287.936 786.033 286.056 785.713 284.008L788.065 283.672ZM785.617 281.704H788.353V283.576C788.353 284.536 788.281 285.6 788.137 286.768C787.993 287.92 787.689 289.112 787.225 290.344C786.777 291.576 786.089 292.776 785.161 293.944C784.249 295.112 783.001 296.184 781.417 297.16C781.289 296.952 781.105 296.72 780.865 296.464C780.625 296.224 780.369 295.976 780.097 295.72C779.841 295.48 779.601 295.288 779.377 295.144C780.817 294.296 781.953 293.368 782.785 292.36C783.633 291.352 784.257 290.328 784.657 289.288C785.057 288.232 785.313 287.208 785.425 286.216C785.553 285.224 785.617 284.328 785.617 283.528V281.704ZM798.385 278.512H805.753V294.664H798.385V292.144H803.161V281.008H798.385V278.512ZM796.705 278.512H799.321V296.44H796.705V278.512ZM798.289 284.92H804.409V287.416H798.289V284.92ZM800.137 274.6L803.257 275.056C803.001 275.872 802.721 276.68 802.417 277.48C802.129 278.28 801.865 278.96 801.625 279.52L799.321 278.992C799.433 278.576 799.537 278.112 799.633 277.6C799.745 277.088 799.849 276.568 799.945 276.04C800.041 275.512 800.105 275.032 800.137 274.6ZM808.921 278.32H815.953V280.96H808.921V278.32ZM814.945 278.32H817.609C817.609 278.32 817.609 278.408 817.609 278.584C817.609 278.744 817.609 278.928 817.609 279.136C817.609 279.344 817.601 279.504 817.585 279.616C817.521 282.32 817.441 284.616 817.345 286.504C817.265 288.376 817.161 289.928 817.033 291.16C816.921 292.376 816.785 293.328 816.625 294.016C816.465 294.704 816.257 295.208 816.001 295.528C815.681 295.992 815.337 296.312 814.969 296.488C814.601 296.664 814.177 296.792 813.697 296.872C813.233 296.936 812.657 296.96 811.969 296.944C811.297 296.944 810.609 296.936 809.905 296.92C809.889 296.52 809.793 296.048 809.617 295.504C809.441 294.976 809.225 294.512 808.969 294.112C809.737 294.176 810.449 294.216 811.105 294.232C811.777 294.248 812.265 294.256 812.569 294.256C812.809 294.256 813.001 294.232 813.145 294.184C813.305 294.12 813.457 294.008 813.601 293.848C813.809 293.64 813.977 293.216 814.105 292.576C814.249 291.92 814.369 291 814.465 289.816C814.561 288.632 814.649 287.136 814.729 285.328C814.809 283.52 814.881 281.368 814.945 278.872V278.32ZM808.993 274.624L811.777 275.272C811.473 276.44 811.097 277.608 810.649 278.776C810.217 279.944 809.737 281.048 809.209 282.088C808.697 283.112 808.169 284.008 807.625 284.776C807.465 284.616 807.233 284.432 806.929 284.224C806.641 284 806.345 283.784 806.041 283.576C805.753 283.368 805.497 283.208 805.273 283.096C805.801 282.408 806.297 281.616 806.761 280.72C807.241 279.808 807.665 278.832 808.033 277.792C808.417 276.736 808.737 275.68 808.993 274.624ZM807.817 285.256L810.073 283.984C810.473 284.528 810.897 285.128 811.345 285.784C811.793 286.44 812.217 287.08 812.617 287.704C813.017 288.328 813.345 288.88 813.601 289.36L811.153 290.848C810.929 290.352 810.625 289.784 810.241 289.144C809.873 288.504 809.473 287.848 809.041 287.176C808.625 286.488 808.217 285.848 807.817 285.256ZM828.553 279.088H841.633V281.704H828.553V279.088ZM829.297 284.032H840.937V286.648H829.297V284.032ZM827.905 289.024H842.017V291.688H827.905V289.024ZM833.641 280.072H836.569V297.136H833.641V280.072ZM829.345 275.56L831.913 274.672C832.297 275.248 832.673 275.888 833.041 276.592C833.409 277.28 833.673 277.888 833.833 278.416L831.121 279.448C830.977 278.936 830.729 278.312 830.377 277.576C830.041 276.84 829.697 276.168 829.345 275.56ZM838.009 274.504L840.961 275.392C840.561 276.336 840.129 277.272 839.665 278.2C839.201 279.128 838.777 279.92 838.393 280.576L835.897 279.736C836.153 279.272 836.417 278.744 836.689 278.152C836.961 277.544 837.209 276.92 837.433 276.28C837.673 275.64 837.865 275.048 838.009 274.504ZM820.009 279.088H827.761V281.752H820.009V279.088ZM822.721 274.6H825.481V297.136H822.721V274.6ZM823.009 281.056L824.569 281.68C824.393 282.672 824.177 283.696 823.921 284.752C823.681 285.792 823.401 286.816 823.081 287.824C822.761 288.816 822.409 289.744 822.025 290.608C821.657 291.472 821.265 292.208 820.849 292.816C820.769 292.544 820.649 292.232 820.489 291.88C820.329 291.528 820.161 291.176 819.985 290.824C819.809 290.472 819.641 290.168 819.481 289.912C819.865 289.4 820.233 288.8 820.585 288.112C820.953 287.408 821.289 286.664 821.593 285.88C821.913 285.08 822.193 284.264 822.433 283.432C822.673 282.6 822.865 281.808 823.009 281.056ZM825.313 282.4C825.457 282.576 825.681 282.872 825.985 283.288C826.289 283.704 826.609 284.16 826.945 284.656C827.281 285.152 827.593 285.608 827.881 286.024C828.169 286.44 828.369 286.744 828.481 286.936L826.753 288.976C826.625 288.608 826.441 288.176 826.201 287.68C825.977 287.168 825.721 286.648 825.433 286.12C825.161 285.592 824.897 285.096 824.641 284.632C824.401 284.168 824.185 283.776 823.993 283.456L825.313 282.4ZM843.889 285.112H866.041V288.016H843.889V285.112ZM853.465 281.296H856.489V293.8C856.489 294.616 856.377 295.248 856.153 295.696C855.945 296.144 855.545 296.48 854.953 296.704C854.377 296.928 853.673 297.072 852.841 297.136C852.009 297.2 851.041 297.224 849.937 297.208C849.889 296.92 849.793 296.592 849.649 296.224C849.505 295.872 849.353 295.512 849.193 295.144C849.033 294.792 848.873 294.488 848.713 294.232C849.273 294.248 849.825 294.264 850.369 294.28C850.929 294.296 851.425 294.304 851.857 294.304C852.305 294.304 852.617 294.304 852.793 294.304C853.049 294.304 853.225 294.264 853.321 294.184C853.417 294.104 853.465 293.96 853.465 293.752V281.296ZM846.409 276.088H861.529V278.92H846.409V276.088ZM860.569 276.088H861.337L862.009 275.92L864.193 277.576C863.457 278.36 862.609 279.144 861.649 279.928C860.705 280.712 859.721 281.464 858.697 282.184C857.673 282.888 856.673 283.496 855.697 284.008C855.553 283.8 855.369 283.568 855.145 283.312C854.921 283.056 854.689 282.808 854.449 282.568C854.209 282.312 853.993 282.096 853.801 281.92C854.665 281.488 855.537 280.968 856.417 280.36C857.313 279.752 858.129 279.128 858.865 278.488C859.601 277.848 860.169 277.264 860.569 276.736V276.088Z" fill="#FEFFFF"/>
<rect x="520.5" y="332.5" width="399" height="39" rx="14.5" fill="#605F77" fill-opacity="0.25"/>
<rect x="520.5" y="332.5" width="399" height="39" rx="14.5" stroke="#2E2C4A"/>
<path d="M665.752 346.48H670.872V347.568H665.752V346.48ZM668.504 348.96H669.56V359.264H668.504V348.96ZM665.672 355.328C666.333 355.2 667.117 355.029 668.024 354.816C668.931 354.603 669.853 354.389 670.792 354.176L670.888 355.184C670.024 355.419 669.16 355.648 668.296 355.872C667.432 356.085 666.648 356.283 665.944 356.464L665.672 355.328ZM666.136 352.72C666.115 352.645 666.083 352.549 666.04 352.432C665.997 352.304 665.949 352.176 665.896 352.048C665.853 351.909 665.811 351.797 665.768 351.712C665.907 351.68 666.029 351.547 666.136 351.312C666.243 351.067 666.349 350.763 666.456 350.4C666.52 350.219 666.605 349.931 666.712 349.536C666.819 349.141 666.936 348.672 667.064 348.128C667.192 347.584 667.309 347.008 667.416 346.4C667.523 345.792 667.603 345.184 667.656 344.576L668.776 344.768C668.659 345.611 668.499 346.475 668.296 347.36C668.093 348.235 667.864 349.077 667.608 349.888C667.363 350.699 667.107 351.424 666.84 352.064V352.096C666.84 352.096 666.803 352.117 666.728 352.16C666.653 352.203 666.568 352.256 666.472 352.32C666.387 352.384 666.307 352.453 666.232 352.528C666.168 352.592 666.136 352.656 666.136 352.72ZM666.136 352.72V351.712L666.76 351.392H670.84V352.496H667.24C666.984 352.496 666.749 352.517 666.536 352.56C666.333 352.603 666.2 352.656 666.136 352.72ZM672.632 348.496H678.552V349.488H672.632V348.496ZM671.64 350.544H675.144V351.504H672.632V359.216H671.64V350.544ZM674.824 350.544H675.832V358.016C675.832 358.272 675.805 358.475 675.752 358.624C675.699 358.784 675.587 358.912 675.416 359.008C675.256 359.083 675.048 359.131 674.792 359.152C674.547 359.173 674.248 359.184 673.896 359.184C673.885 359.045 673.848 358.88 673.784 358.688C673.731 358.496 673.667 358.331 673.592 358.192C673.837 358.203 674.056 358.208 674.248 358.208C674.44 358.208 674.573 358.208 674.648 358.208C674.765 358.197 674.824 358.133 674.824 358.016V350.544ZM672.344 352.768H675.528V353.696H672.344V352.768ZM672.328 355.008H675.512V355.92H672.328V355.008ZM676.744 350.848H677.688V356.64H676.744V350.848ZM678.776 350.256H679.752V357.92C679.752 358.208 679.715 358.427 679.64 358.576C679.576 358.736 679.443 358.864 679.24 358.96C679.048 359.035 678.792 359.083 678.472 359.104C678.152 359.125 677.752 359.136 677.272 359.136C677.261 358.997 677.224 358.832 677.16 358.64C677.096 358.459 677.027 358.293 676.952 358.144C677.325 358.155 677.656 358.16 677.944 358.16C678.232 358.16 678.429 358.16 678.536 358.16C678.696 358.149 678.776 358.069 678.776 357.92V350.256ZM675.544 344.512L676.52 344.944C676.125 345.563 675.651 346.165 675.096 346.752C674.552 347.328 673.96 347.856 673.32 348.336C672.68 348.816 672.024 349.227 671.352 349.568C671.256 349.429 671.133 349.275 670.984 349.104C670.845 348.933 670.707 348.789 670.568 348.672C671.208 348.363 671.843 347.995 672.472 347.568C673.101 347.131 673.683 346.651 674.216 346.128C674.749 345.605 675.192 345.067 675.544 344.512ZM675.928 345.2C676.557 345.968 677.267 346.608 678.056 347.12C678.856 347.632 679.699 348.08 680.584 348.464C680.445 348.581 680.301 348.725 680.152 348.896C680.003 349.067 679.891 349.237 679.816 349.408C678.888 348.928 678.024 348.389 677.224 347.792C676.424 347.195 675.677 346.459 674.984 345.584L675.928 345.2ZM684.648 345.536H689.176V346.752H684.648V345.536ZM688.568 345.536H689.784C689.784 346.005 689.805 346.56 689.848 347.2C689.891 347.84 689.981 348.528 690.12 349.264C690.259 349.989 690.472 350.747 690.76 351.536C691.048 352.325 691.437 353.115 691.928 353.904C692.419 354.683 693.032 355.44 693.768 356.176C694.515 356.912 695.416 357.589 696.472 358.208C696.387 358.283 696.275 358.379 696.136 358.496C696.008 358.624 695.885 358.752 695.768 358.88C695.661 359.019 695.571 359.136 695.496 359.232C694.429 358.581 693.512 357.867 692.744 357.088C691.987 356.299 691.352 355.477 690.84 354.624C690.339 353.771 689.933 352.917 689.624 352.064C689.325 351.2 689.096 350.368 688.936 349.568C688.787 348.757 688.685 348.005 688.632 347.312C688.589 346.619 688.568 346.027 688.568 345.536ZM688.104 348.672L689.464 348.912C689.08 350.533 688.579 351.995 687.96 353.296C687.352 354.597 686.611 355.744 685.736 356.736C684.872 357.717 683.848 358.555 682.664 359.248C682.6 359.163 682.499 359.061 682.36 358.944C682.232 358.827 682.093 358.704 681.944 358.576C681.805 358.459 681.683 358.363 681.576 358.288C683.357 357.349 684.771 356.08 685.816 354.48C686.861 352.869 687.624 350.933 688.104 348.672ZM698.648 347.76H711.352V348.928H698.648V347.76ZM699.384 352.448H710.696V353.616H699.384V352.448ZM697.896 357.568H712.168V358.736H697.896V357.568ZM704.344 348.704H705.64V358.176H704.344V348.704ZM702.984 345.28L703.96 344.624C704.301 344.859 704.659 345.131 705.032 345.44C705.416 345.749 705.773 346.059 706.104 346.368C706.435 346.667 706.707 346.944 706.92 347.2L705.88 347.952C705.688 347.707 705.427 347.429 705.096 347.12C704.776 346.8 704.429 346.48 704.056 346.16C703.693 345.829 703.336 345.536 702.984 345.28ZM715.816 348.16V349.376H719.08V348.16H715.816ZM715.816 346.112V347.312H719.08V346.112H715.816ZM714.728 345.232H720.2V350.256H714.728V345.232ZM713.784 351.44H721.016V352.384H713.784V351.44ZM720.984 345.296H728.28V346.272H720.984V345.296ZM717.032 351.76H718.072V357.856L717.032 357.232V351.76ZM717.512 354.096H720.728V355.024H717.512V354.096ZM724.056 345.632L725.272 345.856C725.112 346.272 724.947 346.693 724.776 347.12C724.616 347.536 724.467 347.893 724.328 348.192L723.352 347.968C723.48 347.627 723.608 347.237 723.736 346.8C723.875 346.363 723.981 345.973 724.056 345.632ZM715.688 354.832C715.965 355.515 716.323 356.064 716.76 356.48C717.208 356.885 717.731 357.195 718.328 357.408C718.936 357.621 719.613 357.765 720.36 357.84C721.117 357.904 721.944 357.936 722.84 357.936C722.989 357.936 723.24 357.936 723.592 357.936C723.955 357.936 724.371 357.936 724.84 357.936C725.309 357.925 725.779 357.92 726.248 357.92C726.728 357.92 727.16 357.92 727.544 357.92C727.939 357.909 728.227 357.904 728.408 357.904C728.323 358.021 728.237 358.181 728.152 358.384C728.067 358.587 728.008 358.768 727.976 358.928H726.888H722.824C721.821 358.928 720.904 358.88 720.072 358.784C719.251 358.699 718.509 358.523 717.848 358.256C717.197 357.989 716.632 357.605 716.152 357.104C715.672 356.592 715.267 355.92 714.936 355.088L715.688 354.832ZM721.64 347.824H727.512V354.496H726.456V348.736H722.648V354.56H721.64V347.824ZM714.984 353.168L716.008 353.232C715.944 354.523 715.795 355.675 715.56 356.688C715.336 357.691 714.952 358.544 714.408 359.248C714.355 359.195 714.269 359.131 714.152 359.056C714.045 358.981 713.933 358.907 713.816 358.832C713.709 358.757 713.613 358.699 713.528 358.656C714.061 358.037 714.424 357.259 714.616 356.32C714.819 355.381 714.941 354.331 714.984 353.168ZM724.12 349.52H725.144C725.112 350.64 725.037 351.637 724.92 352.512C724.813 353.387 724.616 354.144 724.328 354.784C724.051 355.424 723.64 355.973 723.096 356.432C722.552 356.891 721.821 357.269 720.904 357.568C720.851 357.451 720.765 357.312 720.648 357.152C720.541 356.992 720.435 356.864 720.328 356.768C721.171 356.512 721.837 356.181 722.328 355.776C722.829 355.371 723.203 354.88 723.448 354.304C723.693 353.728 723.859 353.045 723.944 352.256C724.04 351.467 724.099 350.555 724.12 349.52ZM724.68 355.024L725.384 354.384C725.715 354.608 726.061 354.864 726.424 355.152C726.787 355.429 727.128 355.707 727.448 355.984C727.779 356.261 728.051 356.512 728.264 356.736L727.528 357.472C727.325 357.248 727.064 356.992 726.744 356.704C726.424 356.416 726.083 356.128 725.72 355.84C725.368 355.541 725.021 355.269 724.68 355.024ZM734.84 357.536H742.552V358.64H734.84V357.536ZM734.28 346.16H740.152V347.248H734.28V346.16ZM735 344.512L736.36 344.768C735.955 345.461 735.469 346.16 734.904 346.864C734.339 347.557 733.688 348.229 732.952 348.88C732.216 349.531 731.384 350.128 730.456 350.672C730.403 350.576 730.323 350.469 730.216 350.352C730.12 350.235 730.019 350.123 729.912 350.016C729.805 349.899 729.704 349.808 729.608 349.744C730.483 349.264 731.267 348.731 731.96 348.144C732.664 347.547 733.267 346.939 733.768 346.32C734.28 345.691 734.691 345.088 735 344.512ZM739.752 346.16H739.992L740.2 346.096L741 346.544C740.52 347.749 739.896 348.853 739.128 349.856C738.36 350.859 737.491 351.755 736.52 352.544C735.56 353.333 734.541 354.021 733.464 354.608C732.397 355.184 731.315 355.648 730.216 356C730.173 355.893 730.109 355.771 730.024 355.632C729.949 355.493 729.864 355.36 729.768 355.232C729.683 355.104 729.603 355.003 729.528 354.928C730.563 354.629 731.597 354.213 732.632 353.68C733.667 353.147 734.643 352.512 735.56 351.776C736.488 351.04 737.315 350.219 738.04 349.312C738.776 348.405 739.347 347.429 739.752 346.384V346.16ZM732.296 349.008L733.176 348.256C733.603 348.533 734.04 348.853 734.488 349.216C734.947 349.579 735.373 349.941 735.768 350.304C736.163 350.667 736.483 351.003 736.728 351.312L735.752 352.16C735.528 351.851 735.224 351.509 734.84 351.136C734.456 350.763 734.04 350.389 733.592 350.016C733.144 349.643 732.712 349.307 732.296 349.008ZM741.976 352.464H743.208V359.312H741.976V352.464ZM735.384 352.464H742.584V353.568H735.384V359.28H734.184V353.424L735.144 352.464H735.384ZM748.728 349.184H756.408V350.288H748.728V349.184ZM746.136 353.2H759.912V354.352H746.136V353.2ZM752.376 352H753.656V357.792C753.656 358.144 753.597 358.416 753.48 358.608C753.373 358.8 753.176 358.949 752.888 359.056C752.611 359.152 752.248 359.205 751.8 359.216C751.363 359.237 750.808 359.248 750.136 359.248C750.104 359.131 750.056 358.997 749.992 358.848C749.939 358.709 749.875 358.571 749.8 358.432C749.736 358.293 749.672 358.165 749.608 358.048C749.971 358.059 750.317 358.064 750.648 358.064C750.979 358.075 751.261 358.08 751.496 358.08C751.741 358.08 751.912 358.08 752.008 358.08C752.157 358.069 752.253 358.043 752.296 358C752.349 357.947 752.376 357.867 752.376 357.76V352ZM756.056 349.184H756.36L756.632 349.12L757.416 349.728C757.075 350.112 756.675 350.501 756.216 350.896C755.768 351.28 755.293 351.648 754.792 352C754.301 352.341 753.811 352.635 753.32 352.88C753.245 352.773 753.139 352.656 753 352.528C752.861 352.389 752.744 352.277 752.648 352.192C753.075 351.968 753.501 351.696 753.928 351.376C754.355 351.056 754.755 350.725 755.128 350.384C755.501 350.043 755.811 349.723 756.056 349.424V349.184ZM752.344 344.528H753.608V347.12H752.344V344.528ZM746.28 346.288H759.72V350.064H758.488V347.44H747.464V350.064H746.28V346.288ZM763.205 358.091C762.924 358.091 762.684 357.991 762.483 357.79C762.282 357.589 762.182 357.348 762.182 357.068C762.182 356.788 762.282 356.547 762.483 356.347C762.684 356.146 762.924 356.045 763.205 356.045C763.485 356.045 763.725 356.146 763.926 356.347C764.127 356.547 764.227 356.788 764.227 357.068C764.227 357.254 764.18 357.424 764.085 357.58C763.994 357.735 763.871 357.86 763.716 357.955C763.564 358.045 763.394 358.091 763.205 358.091ZM767.611 358.091C767.33 358.091 767.09 357.991 766.889 357.79C766.688 357.589 766.588 357.348 766.588 357.068C766.588 356.788 766.688 356.547 766.889 356.347C767.09 356.146 767.33 356.045 767.611 356.045C767.891 356.045 768.132 356.146 768.332 356.347C768.533 356.547 768.634 356.788 768.634 357.068C768.634 357.254 768.586 357.424 768.491 357.58C768.401 357.735 768.277 357.86 768.122 357.955C767.971 358.045 767.8 358.091 767.611 358.091ZM772.017 358.091C771.737 358.091 771.496 357.991 771.295 357.79C771.095 357.589 770.994 357.348 770.994 357.068C770.994 356.788 771.095 356.547 771.295 356.347C771.496 356.146 771.737 356.045 772.017 356.045C772.297 356.045 772.538 356.146 772.739 356.347C772.939 356.547 773.04 356.788 773.04 357.068C773.04 357.254 772.992 357.424 772.898 357.58C772.807 357.735 772.684 357.86 772.528 357.955C772.377 358.045 772.206 358.091 772.017 358.091Z" fill="#9E9EAC"/>
<g filter="url(#filter0_d_347_358)">
<rect x="562" y="497" width="316" height="44" rx="22" fill="url(#paint3_linear_347_358)" shape-rendering="crispEdges"/>
<path d="M700.944 511.72H702.848V524.184C702.848 524.728 702.779 525.139 702.64 525.416C702.512 525.693 702.283 525.907 701.952 526.056C701.611 526.205 701.173 526.301 700.64 526.344C700.117 526.387 699.483 526.408 698.736 526.408C698.693 526.141 698.608 525.827 698.48 525.464C698.352 525.112 698.219 524.808 698.08 524.552C698.421 524.563 698.752 524.573 699.072 524.584C699.403 524.595 699.696 524.6 699.952 524.6C700.208 524.6 700.389 524.6 700.496 524.6C700.656 524.589 700.768 524.557 700.832 524.504C700.907 524.44 700.944 524.333 700.944 524.184V511.72ZM697.872 513.24H699.712V522.328H697.872V513.24ZM690.976 517.224H695.312V518.872H690.976V517.224ZM690.144 517.224H692V523.784C692 524.115 692.048 524.323 692.144 524.408C692.251 524.493 692.485 524.536 692.848 524.536C692.933 524.536 693.072 524.536 693.264 524.536C693.456 524.536 693.669 524.536 693.904 524.536C694.139 524.536 694.357 524.536 694.56 524.536C694.763 524.536 694.917 524.536 695.024 524.536C695.248 524.536 695.413 524.488 695.52 524.392C695.637 524.285 695.717 524.088 695.76 523.8C695.813 523.512 695.856 523.085 695.888 522.52C696.091 522.659 696.352 522.797 696.672 522.936C697.003 523.064 697.291 523.16 697.536 523.224C697.472 523.971 697.36 524.563 697.2 525C697.04 525.427 696.8 525.725 696.48 525.896C696.171 526.077 695.739 526.168 695.184 526.168C695.088 526.168 694.955 526.168 694.784 526.168C694.613 526.168 694.416 526.168 694.192 526.168C693.979 526.168 693.765 526.168 693.552 526.168C693.339 526.168 693.147 526.168 692.976 526.168C692.816 526.168 692.693 526.168 692.608 526.168C691.979 526.168 691.483 526.099 691.12 525.96C690.768 525.821 690.517 525.576 690.368 525.224C690.219 524.883 690.144 524.403 690.144 523.784V517.224ZM694.608 517.224H696.448C696.448 517.224 696.443 517.309 696.432 517.48C696.432 517.64 696.427 517.773 696.416 517.88C696.373 518.765 696.325 519.496 696.272 520.072C696.229 520.648 696.165 521.101 696.08 521.432C695.995 521.763 695.888 522.003 695.76 522.152C695.6 522.333 695.435 522.461 695.264 522.536C695.093 522.611 694.901 522.664 694.688 522.696C694.496 522.728 694.245 522.749 693.936 522.76C693.637 522.76 693.312 522.755 692.96 522.744C692.949 522.488 692.901 522.211 692.816 521.912C692.731 521.613 692.624 521.352 692.496 521.128C692.763 521.16 693.003 521.181 693.216 521.192C693.44 521.192 693.611 521.192 693.728 521.192C693.835 521.192 693.92 521.181 693.984 521.16C694.059 521.139 694.128 521.096 694.192 521.032C694.256 520.947 694.315 520.781 694.368 520.536C694.421 520.28 694.464 519.907 694.496 519.416C694.539 518.915 694.576 518.264 694.608 517.464V517.224ZM692.576 513.368L693.856 512.248C694.283 512.685 694.741 513.176 695.232 513.72C695.723 514.253 696.181 514.776 696.608 515.288C697.045 515.8 697.392 516.259 697.648 516.664L696.24 517.992C696.005 517.576 695.68 517.101 695.264 516.568C694.859 516.024 694.416 515.475 693.936 514.92C693.467 514.355 693.013 513.837 692.576 513.368ZM692.752 511.368L694.512 511.928C693.968 513.197 693.28 514.381 692.448 515.48C691.616 516.579 690.683 517.523 689.648 518.312C689.541 518.173 689.403 518.013 689.232 517.832C689.072 517.651 688.907 517.475 688.736 517.304C688.565 517.133 688.411 516.995 688.272 516.888C688.923 516.451 689.536 515.933 690.112 515.336C690.688 514.728 691.2 514.088 691.648 513.416C692.107 512.733 692.475 512.051 692.752 511.368ZM711.888 514.024H719.552V515.848H710.976L711.888 514.024ZM713.984 517.528H719.152V519.288H713.984V517.528ZM713.968 521.08H719.36V522.872H713.968V521.08ZM713.008 514.632H714.992V526.424H713.008V514.632ZM712.256 511.56L714.096 512.04C713.797 512.904 713.445 513.763 713.04 514.616C712.645 515.469 712.213 516.269 711.744 517.016C711.275 517.752 710.795 518.403 710.304 518.968C710.208 518.84 710.069 518.691 709.888 518.52C709.707 518.349 709.52 518.184 709.328 518.024C709.147 517.853 708.981 517.72 708.832 517.624C709.312 517.144 709.76 516.579 710.176 515.928C710.603 515.277 710.992 514.579 711.344 513.832C711.707 513.075 712.011 512.317 712.256 511.56ZM708.016 511.464L709.872 512.056C709.531 512.963 709.125 513.875 708.656 514.792C708.187 515.709 707.675 516.579 707.12 517.4C706.565 518.211 705.995 518.92 705.408 519.528C705.344 519.368 705.248 519.16 705.12 518.904C705.003 518.648 704.875 518.387 704.736 518.12C704.597 517.853 704.469 517.64 704.352 517.48C704.843 516.989 705.312 516.424 705.76 515.784C706.219 515.144 706.64 514.456 707.024 513.72C707.419 512.984 707.749 512.232 708.016 511.464ZM706.4 515.896L708.336 513.96V513.976V526.408H706.4V515.896ZM721.52 514.424H734.432V516.312H721.52V514.424ZM722.368 519.096H733.68V520.952H722.368V519.096ZM720.832 524.04H735.232V525.928H720.832V524.04ZM726.944 516.056H729.056V525.048H726.944V516.056ZM725.52 512.488L727.12 511.384C727.461 511.597 727.824 511.848 728.208 512.136C728.603 512.424 728.976 512.712 729.328 513C729.691 513.288 729.984 513.56 730.208 513.816L728.496 515.048C728.304 514.803 728.037 514.531 727.696 514.232C727.365 513.923 727.008 513.619 726.624 513.32C726.24 513.011 725.872 512.733 725.52 512.488ZM739.136 515.288V516.04H741.504V515.288H739.136ZM739.136 513.32V514.072H741.504V513.32H739.136ZM737.44 512.024H743.28V517.336H737.44V512.024ZM736.704 518.264H743.968V519.656H736.704V518.264ZM743.92 512.056H751.44V513.576H743.92V512.056ZM739.696 518.712H741.312V525.144L739.696 524.216V518.712ZM740.528 520.952H743.632V522.344H740.528V520.952ZM746.928 512.424L748.848 512.84C748.635 513.299 748.421 513.752 748.208 514.2C748.005 514.637 747.819 515.011 747.648 515.32L746.144 514.92C746.293 514.568 746.443 514.157 746.592 513.688C746.741 513.219 746.853 512.797 746.928 512.424ZM738.72 521.624C738.955 522.296 739.248 522.829 739.6 523.224C739.963 523.619 740.395 523.917 740.896 524.12C741.408 524.323 741.989 524.456 742.64 524.52C743.301 524.573 744.037 524.6 744.848 524.6C745.061 524.6 745.387 524.6 745.824 524.6C746.261 524.6 746.757 524.6 747.312 524.6C747.867 524.6 748.421 524.6 748.976 524.6C749.531 524.589 750.043 524.579 750.512 524.568C750.981 524.557 751.344 524.552 751.6 524.552C751.472 524.723 751.344 524.968 751.216 525.288C751.099 525.608 751.019 525.885 750.976 526.12H749.76H744.832C743.851 526.12 742.971 526.072 742.192 525.976C741.413 525.88 740.731 525.688 740.144 525.4C739.557 525.123 739.056 524.707 738.64 524.152C738.224 523.597 737.872 522.867 737.584 521.96L738.72 521.624ZM744.416 514.728H750.832V521.336H749.216V516.088H745.984V521.432H744.416V514.728ZM737.504 520.216L739.056 520.328C739.003 521.597 738.88 522.755 738.688 523.8C738.496 524.835 738.149 525.709 737.648 526.424C737.552 526.349 737.419 526.253 737.248 526.136C737.088 526.019 736.923 525.907 736.752 525.8C736.581 525.693 736.437 525.608 736.32 525.544C736.789 524.936 737.099 524.173 737.248 523.256C737.397 522.328 737.483 521.315 737.504 520.216ZM746.88 516.728H748.448C748.427 517.816 748.363 518.781 748.256 519.624C748.16 520.456 747.968 521.187 747.68 521.816C747.403 522.435 746.981 522.968 746.416 523.416C745.851 523.853 745.093 524.221 744.144 524.52C744.069 524.328 743.941 524.109 743.76 523.864C743.589 523.608 743.429 523.411 743.28 523.272C744.101 523.027 744.752 522.728 745.232 522.376C745.712 522.013 746.064 521.576 746.288 521.064C746.512 520.552 746.661 519.939 746.736 519.224C746.811 518.509 746.859 517.677 746.88 516.728ZM747.696 522.296L748.736 521.256C749.035 521.459 749.355 521.688 749.696 521.944C750.048 522.2 750.384 522.456 750.704 522.712C751.024 522.968 751.291 523.192 751.504 523.384L750.384 524.568C750.192 524.365 749.941 524.131 749.632 523.864C749.323 523.597 748.997 523.325 748.656 523.048C748.315 522.771 747.995 522.52 747.696 522.296Z" fill="#FEFFFF"/>
</g>
<defs>
<filter id="filter0_d_347_358" x="561" y="497" width="318" height="49" filterUnits="userSpaceOnUse" color-interpolation-filters="sRGB">
<feFlood flood-opacity="0" result="BackgroundImageFix"/>
<feColorMatrix in="SourceAlpha" type="matrix" values="0 0 0 0 0 0 0 0 0 0 0 0 0 0 0 0 0 0 127 0" result="hardAlpha"/>
<feOffset dy="4"/>
<feGaussianBlur stdDeviation="0.5"/>
<feComposite in2="hardAlpha" operator="out"/>
<feColorMatrix type="matrix" values="0 0 0 0 0.378655 0 0 0 0 0.345211 0 0 0 0 0.565385 0 0 0 1 0"/>
<feBlend mode="normal" in2="BackgroundImageFix" result="effect1_dropShadow_347_358"/>
<feBlend mode="normal" in="SourceGraphic" in2="effect1_dropShadow_347_358" result="shape"/>
</filter>
<linearGradient id="paint0_linear_347_358" x1="720" y1="0" x2="720" y2="810" gradientUnits="userSpaceOnUse">
<stop stop-color="#050505"/>
<stop offset="1" stop-color="#2A2720"/>
</linearGradient>
<linearGradient id="paint1_linear_347_358" x1="42" y1="58" x2="74" y2="58" gradientUnits="userSpaceOnUse">
<stop stop-color="#4586FF"/>
<stop offset="1" stop-color="#FF90A9"/>
</linearGradient>
<linearGradient id="paint2_linear_347_358" x1="672" y1="58" x2="768" y2="58" gradientUnits="userSpaceOnUse">
<stop stop-color="#4586FF"/>
<stop offset="1" stop-color="#FF90A9"/>
</linearGradient>
<linearGradient id="paint3_linear_347_358" x1="562" y1="519" x2="878" y2="519" gradientUnits="userSpaceOnUse">
<stop stop-color="#4586FF"/>
<stop offset="1" stop-color="#FF90A9"/>
</linearGradient>
</defs>
</svg>
