<svg width="1440" height="810" viewBox="0 0 1440 810" fill="none" xmlns="http://www.w3.org/2000/svg">
<rect width="1440" height="810" fill="url(#paint0_linear_347_305)"/>
<rect width="1440" height="810" fill="#0B1828"/>
<rect x="42" y="42" width="32" height="32" rx="10" fill="url(#paint1_linear_347_305)"/>
<path d="M44.0568 62V53.2727H45.1136V61.0625H49.1705V62H44.0568ZM53.3295 62.1364C52.7386 62.1364 52.2202 61.9957 51.7741 61.7145C51.331 61.4332 50.9844 61.0398 50.7344 60.5341C50.4872 60.0284 50.3636 59.4375 50.3636 58.7614C50.3636 58.0795 50.4872 57.4844 50.7344 56.9759C50.9844 56.4673 51.331 56.0724 51.7741 55.7912C52.2202 55.5099 52.7386 55.3693 53.3295 55.3693C53.9205 55.3693 54.4375 55.5099 54.8807 55.7912C55.3267 56.0724 55.6733 56.4673 55.9205 56.9759C56.1705 57.4844 56.2955 58.0795 56.2955 58.7614C56.2955 59.4375 56.1705 60.0284 55.9205 60.5341C55.6733 61.0398 55.3267 61.4332 54.8807 61.7145C54.4375 61.9957 53.9205 62.1364 53.3295 62.1364ZM53.3295 61.233C53.7784 61.233 54.1477 61.1179 54.4375 60.8878C54.7273 60.6577 54.9418 60.3551 55.081 59.9801C55.2202 59.6051 55.2898 59.1989 55.2898 58.7614C55.2898 58.3239 55.2202 57.9162 55.081 57.5384C54.9418 57.1605 54.7273 56.8551 54.4375 56.6222C54.1477 56.3892 53.7784 56.2727 53.3295 56.2727C52.8807 56.2727 52.5114 56.3892 52.2216 56.6222C51.9318 56.8551 51.7173 57.1605 51.5781 57.5384C51.4389 57.9162 51.3693 58.3239 51.3693 58.7614C51.3693 59.1989 51.4389 59.6051 51.5781 59.9801C51.7173 60.3551 51.9318 60.6577 52.2216 60.8878C52.5114 61.1179 52.8807 61.233 53.3295 61.233ZM60.4727 64.5909C59.9869 64.5909 59.5692 64.5284 59.2198 64.4034C58.8704 64.2812 58.5792 64.1193 58.3462 63.9176C58.1161 63.7188 57.9329 63.5057 57.7965 63.2784L58.5977 62.7159C58.6886 62.8352 58.8036 62.9716 58.9428 63.125C59.082 63.2812 59.2724 63.4162 59.5138 63.5298C59.7582 63.6463 60.0778 63.7045 60.4727 63.7045C61.0011 63.7045 61.4371 63.5767 61.7809 63.321C62.1246 63.0653 62.2965 62.6648 62.2965 62.1193V60.7898H62.2113C62.1374 60.9091 62.0323 61.0568 61.896 61.233C61.7624 61.4062 61.5692 61.5611 61.3164 61.6974C61.0664 61.831 60.7283 61.8977 60.3022 61.8977C59.7738 61.8977 59.2994 61.7727 58.8789 61.5227C58.4613 61.2727 58.1303 60.9091 57.886 60.4318C57.6445 59.9545 57.5238 59.375 57.5238 58.6932C57.5238 58.0227 57.6417 57.4389 57.8775 56.9418C58.1133 56.4418 58.4414 56.0554 58.8619 55.7827C59.2823 55.5071 59.7681 55.3693 60.3192 55.3693C60.7454 55.3693 61.0835 55.4403 61.3335 55.5824C61.5863 55.7216 61.7795 55.8807 61.913 56.0597C62.0494 56.2358 62.1545 56.3807 62.2283 56.4943H62.3306V55.4545H63.3022V62.1875C63.3022 62.75 63.1744 63.2074 62.9187 63.5597C62.6658 63.9148 62.3249 64.1747 61.896 64.3395C61.4698 64.5071 60.9954 64.5909 60.4727 64.5909ZM60.4386 60.9943C60.842 60.9943 61.1829 60.902 61.4613 60.7173C61.7397 60.5327 61.9513 60.267 62.0962 59.9205C62.2411 59.5739 62.3136 59.1591 62.3136 58.6761C62.3136 58.2045 62.2425 57.7884 62.1005 57.4276C61.9585 57.0668 61.7482 56.7841 61.4698 56.5795C61.1914 56.375 60.8477 56.2727 60.4386 56.2727C60.0124 56.2727 59.6573 56.3807 59.3732 56.5966C59.092 56.8125 58.8803 57.1023 58.7383 57.4659C58.5991 57.8295 58.5295 58.233 58.5295 58.6761C58.5295 59.1307 58.6005 59.5327 58.7425 59.8821C58.8874 60.2287 59.1005 60.5014 59.3817 60.7003C59.6658 60.8963 60.0181 60.9943 60.4386 60.9943ZM67.8022 62.1364C67.2113 62.1364 66.6928 61.9957 66.2468 61.7145C65.8036 61.4332 65.457 61.0398 65.207 60.5341C64.9599 60.0284 64.8363 59.4375 64.8363 58.7614C64.8363 58.0795 64.9599 57.4844 65.207 56.9759C65.457 56.4673 65.8036 56.0724 66.2468 55.7912C66.6928 55.5099 67.2113 55.3693 67.8022 55.3693C68.3931 55.3693 68.9102 55.5099 69.3533 55.7912C69.7994 56.0724 70.146 56.4673 70.3931 56.9759C70.6431 57.4844 70.7681 58.0795 70.7681 58.7614C70.7681 59.4375 70.6431 60.0284 70.3931 60.5341C70.146 61.0398 69.7994 61.4332 69.3533 61.7145C68.9102 61.9957 68.3931 62.1364 67.8022 62.1364ZM67.8022 61.233C68.2511 61.233 68.6204 61.1179 68.9102 60.8878C69.1999 60.6577 69.4144 60.3551 69.5536 59.9801C69.6928 59.6051 69.7624 59.1989 69.7624 58.7614C69.7624 58.3239 69.6928 57.9162 69.5536 57.5384C69.4144 57.1605 69.1999 56.8551 68.9102 56.6222C68.6204 56.3892 68.2511 56.2727 67.8022 56.2727C67.3533 56.2727 66.984 56.3892 66.6942 56.6222C66.4045 56.8551 66.19 57.1605 66.0508 57.5384C65.9116 57.9162 65.842 58.3239 65.842 58.7614C65.842 59.1989 65.9116 59.6051 66.0508 59.9801C66.19 60.3551 66.4045 60.6577 66.6942 60.8878C66.984 61.1179 67.3533 61.233 67.8022 61.233Z" fill="#FEFFFF"/>
<path d="M86.272 55.672H104.464V58.48H86.272V55.672ZM84.448 49.096H103.96V51.832H84.448V49.096ZM84.664 55.672H87.688V59.056C87.688 59.824 87.648 60.656 87.568 61.552C87.488 62.448 87.352 63.368 87.16 64.312C86.984 65.256 86.72 66.168 86.368 67.048C86.016 67.928 85.56 68.728 85 69.448C84.84 69.256 84.608 69.016 84.304 68.728C84 68.456 83.688 68.192 83.368 67.936C83.064 67.68 82.8 67.496 82.576 67.384C83.216 66.552 83.68 65.648 83.968 64.672C84.256 63.68 84.44 62.688 84.52 61.696C84.616 60.704 84.664 59.808 84.664 59.008V55.672ZM87.904 52.72L90.424 51.64C90.808 52.136 91.2 52.696 91.6 53.32C92 53.928 92.288 54.464 92.464 54.928L89.776 56.128C89.632 55.648 89.376 55.096 89.008 54.472C88.656 53.832 88.288 53.248 87.904 52.72ZM98.128 51.856L101.368 52.864C100.856 53.568 100.36 54.264 99.88 54.952C99.416 55.624 98.992 56.208 98.608 56.704L96.304 55.792C96.528 55.408 96.752 54.992 96.976 54.544C97.216 54.096 97.432 53.632 97.624 53.152C97.832 52.672 98 52.24 98.128 51.856ZM91.672 47.224L94.648 46.504C94.984 46.92 95.296 47.392 95.584 47.92C95.888 48.448 96.112 48.912 96.256 49.312L93.16 50.2C93.048 49.784 92.848 49.296 92.56 48.736C92.272 48.176 91.976 47.672 91.672 47.224ZM113.776 50.32V53.536H122.224V50.32H113.776ZM110.992 47.56H125.152V56.272H110.992V47.56ZM107.68 58.288H116.872V69.016H113.992V61.048H110.416V69.16H107.68V58.288ZM118.888 58.288H128.392V69.04H125.512V61.048H121.648V69.16H118.888V58.288ZM108.88 65.176H115.192V67.936H108.88V65.176ZM120.208 65.176H126.928V67.936H120.208V65.176ZM139.168 65.584H149.896V68.2H139.168V65.584ZM137.944 48.976H146.464V51.52H137.944V48.976ZM138.592 46.48L141.832 47.104C141.144 48.272 140.352 49.408 139.456 50.512C138.576 51.6 137.568 52.648 136.432 53.656C135.312 54.648 134.032 55.568 132.592 56.416C132.448 56.176 132.256 55.92 132.016 55.648C131.776 55.36 131.528 55.08 131.272 54.808C131.016 54.536 130.776 54.32 130.552 54.16C131.88 53.456 133.056 52.68 134.08 51.832C135.12 50.984 136.016 50.104 136.768 49.192C137.52 48.264 138.128 47.36 138.592 46.48ZM145.552 48.976H146.08L146.56 48.832L148.552 49.864C147.848 51.736 146.936 53.448 145.816 55C144.712 56.536 143.44 57.92 142 59.152C140.576 60.384 139.032 61.456 137.368 62.368C135.704 63.28 133.976 64.04 132.184 64.648C132.072 64.376 131.92 64.08 131.728 63.76C131.536 63.44 131.336 63.128 131.128 62.824C130.92 62.52 130.712 62.264 130.504 62.056C132.168 61.592 133.776 60.96 135.328 60.16C136.896 59.344 138.344 58.392 139.672 57.304C141.016 56.216 142.192 55.016 143.2 53.704C144.208 52.376 144.992 50.96 145.552 49.456V48.976ZM134.8 54.232L136.96 52.384C137.52 52.768 138.104 53.2 138.712 53.68C139.336 54.16 139.92 54.648 140.464 55.144C141.024 55.624 141.48 56.08 141.832 56.512L139.504 58.576C139.2 58.16 138.784 57.696 138.256 57.184C137.728 56.656 137.16 56.136 136.552 55.624C135.944 55.112 135.36 54.648 134.8 54.232ZM148.576 58.288H151.552V69.16H148.576V58.288ZM140.392 58.288H150.016V60.88H140.392V69.136H137.488V60.4L139.696 58.288H140.392ZM159.616 53.536H170.344V56.152H159.616V53.536ZM155.536 59.488H176.536V62.224H155.536V59.488ZM164.44 57.976H167.512V65.848C167.512 66.616 167.4 67.216 167.176 67.648C166.968 68.08 166.568 68.408 165.976 68.632C165.416 68.84 164.744 68.968 163.96 69.016C163.192 69.08 162.304 69.112 161.296 69.112C161.248 68.824 161.152 68.496 161.008 68.128C160.864 67.776 160.712 67.424 160.552 67.072C160.392 66.72 160.232 66.416 160.072 66.16C160.568 66.176 161.072 66.192 161.584 66.208C162.096 66.208 162.56 66.208 162.976 66.208C163.392 66.208 163.672 66.208 163.816 66.208C164.056 66.208 164.216 66.176 164.296 66.112C164.392 66.048 164.44 65.936 164.44 65.776V57.976ZM169.456 53.536H170.224L170.872 53.416L172.744 54.832C172.216 55.424 171.624 56.032 170.968 56.656C170.328 57.264 169.632 57.84 168.88 58.384C168.144 58.928 167.392 59.408 166.624 59.824C166.448 59.568 166.2 59.288 165.88 58.984C165.576 58.664 165.32 58.408 165.112 58.216C165.688 57.864 166.256 57.448 166.816 56.968C167.376 56.488 167.888 55.992 168.352 55.48C168.816 54.968 169.184 54.512 169.456 54.112V53.536ZM164.416 46.6H167.488V50.992H164.416V46.6ZM155.608 48.904H176.344V55.144H173.368V51.64H158.44V55.144H155.608V48.904Z" fill="#FEFFFF"/>
<path d="M467.416 47.08H470.272V65.776C470.272 66.592 470.168 67.208 469.96 67.624C469.768 68.04 469.424 68.36 468.928 68.584C468.416 68.808 467.76 68.952 466.96 69.016C466.176 69.08 465.224 69.112 464.104 69.112C464.04 68.712 463.912 68.24 463.72 67.696C463.528 67.168 463.328 66.712 463.12 66.328C463.632 66.344 464.128 66.36 464.608 66.376C465.104 66.392 465.544 66.4 465.928 66.4C466.312 66.4 466.584 66.4 466.744 66.4C466.984 66.384 467.152 66.336 467.248 66.256C467.36 66.16 467.416 66 467.416 65.776V47.08ZM462.808 49.36H465.568V62.992H462.808V49.36ZM452.464 55.336H458.968V57.808H452.464V55.336ZM451.216 55.336H454V65.176C454 65.672 454.072 65.984 454.216 66.112C454.376 66.24 454.728 66.304 455.272 66.304C455.4 66.304 455.608 66.304 455.896 66.304C456.184 66.304 456.504 66.304 456.856 66.304C457.208 66.304 457.536 66.304 457.84 66.304C458.144 66.304 458.376 66.304 458.536 66.304C458.872 66.304 459.12 66.232 459.28 66.088C459.456 65.928 459.576 65.632 459.64 65.2C459.72 64.768 459.784 64.128 459.832 63.28C460.136 63.488 460.528 63.696 461.008 63.904C461.504 64.096 461.936 64.24 462.304 64.336C462.208 65.456 462.04 66.344 461.8 67C461.56 67.64 461.2 68.088 460.72 68.344C460.256 68.616 459.608 68.752 458.776 68.752C458.632 68.752 458.432 68.752 458.176 68.752C457.92 68.752 457.624 68.752 457.288 68.752C456.968 68.752 456.648 68.752 456.328 68.752C456.008 68.752 455.72 68.752 455.464 68.752C455.224 68.752 455.04 68.752 454.912 68.752C453.968 68.752 453.224 68.648 452.68 68.44C452.152 68.232 451.776 67.864 451.552 67.336C451.328 66.824 451.216 66.104 451.216 65.176V55.336ZM457.912 55.336H460.672C460.672 55.336 460.664 55.464 460.648 55.72C460.648 55.96 460.64 56.16 460.624 56.32C460.56 57.648 460.488 58.744 460.408 59.608C460.344 60.472 460.248 61.152 460.12 61.648C459.992 62.144 459.832 62.504 459.64 62.728C459.4 63 459.152 63.192 458.896 63.304C458.64 63.416 458.352 63.496 458.032 63.544C457.744 63.592 457.368 63.624 456.904 63.64C456.456 63.64 455.968 63.632 455.44 63.616C455.424 63.232 455.352 62.816 455.224 62.368C455.096 61.92 454.936 61.528 454.744 61.192C455.144 61.24 455.504 61.272 455.824 61.288C456.16 61.288 456.416 61.288 456.592 61.288C456.752 61.288 456.88 61.272 456.976 61.24C457.088 61.208 457.192 61.144 457.288 61.048C457.384 60.92 457.472 60.672 457.552 60.304C457.632 59.92 457.696 59.36 457.744 58.624C457.808 57.872 457.864 56.896 457.912 55.696V55.336ZM454.864 49.552L456.784 47.872C457.424 48.528 458.112 49.264 458.848 50.08C459.584 50.88 460.272 51.664 460.912 52.432C461.568 53.2 462.088 53.888 462.472 54.496L460.36 56.488C460.008 55.864 459.52 55.152 458.896 54.352C458.288 53.536 457.624 52.712 456.904 51.88C456.2 51.032 455.52 50.256 454.864 49.552ZM455.128 46.552L457.768 47.392C456.952 49.296 455.92 51.072 454.672 52.72C453.424 54.368 452.024 55.784 450.472 56.968C450.312 56.76 450.104 56.52 449.848 56.248C449.608 55.976 449.36 55.712 449.104 55.456C448.848 55.2 448.616 54.992 448.408 54.832C449.384 54.176 450.304 53.4 451.168 52.504C452.032 51.592 452.8 50.632 453.472 49.624C454.16 48.6 454.712 47.576 455.128 46.552ZM478.864 60.496H489.28V59.44H478.864V60.496ZM478.864 57.76H489.28V56.728H478.864V57.76ZM492.136 54.976V62.272H476.128V54.976H492.136ZM490.168 50.152C489.912 50.616 489.672 51.04 489.448 51.424C489.224 51.792 489.024 52.112 488.848 52.384L486.304 51.832C486.464 51.496 486.624 51.128 486.784 50.728C486.944 50.312 487.072 49.944 487.168 49.624L490.168 50.152ZM480.784 49.624C480.976 49.96 481.144 50.336 481.288 50.752C481.448 51.152 481.568 51.504 481.648 51.808L478.912 52.432C478.848 52.112 478.744 51.736 478.6 51.304C478.472 50.872 478.328 50.488 478.168 50.152L480.784 49.624ZM485.416 46.6V49.504H482.536V46.6H485.416ZM494.464 51.856V54.088H473.608V51.856H494.464ZM493.192 47.896V50.128H474.76V47.896H493.192ZM478.24 63.928C477.904 64.84 477.472 65.72 476.944 66.568C476.432 67.4 475.752 68.104 474.904 68.68L472.648 67.144C473.4 66.68 474.048 66.08 474.592 65.344C475.136 64.608 475.544 63.848 475.816 63.064L478.24 63.928ZM491.392 62.776C491.888 63.176 492.392 63.632 492.904 64.144C493.416 64.656 493.888 65.168 494.32 65.68C494.752 66.192 495.088 66.68 495.328 67.144L492.952 68.536C492.728 68.104 492.408 67.616 491.992 67.072C491.592 66.544 491.144 66.016 490.648 65.488C490.152 64.944 489.656 64.456 489.16 64.024L491.392 62.776ZM483.04 61.72C483.504 61.912 483.984 62.136 484.48 62.392C484.992 62.648 485.472 62.912 485.92 63.184C486.384 63.44 486.76 63.696 487.048 63.952L485.392 65.632C485.12 65.376 484.76 65.112 484.312 64.84C483.88 64.552 483.416 64.272 482.92 64C482.424 63.712 481.952 63.464 481.504 63.256L483.04 61.72ZM481.648 65.872C481.648 66.192 481.728 66.392 481.888 66.472C482.064 66.536 482.424 66.568 482.968 66.568C483.096 66.568 483.304 66.568 483.592 66.568C483.88 66.568 484.2 66.568 484.552 66.568C484.904 66.568 485.232 66.568 485.536 66.568C485.856 66.568 486.096 66.568 486.256 66.568C486.56 66.568 486.784 66.528 486.928 66.448C487.072 66.352 487.176 66.168 487.24 65.896C487.32 65.608 487.376 65.184 487.408 64.624C487.696 64.816 488.08 65 488.56 65.176C489.056 65.336 489.488 65.448 489.856 65.512C489.76 66.424 489.592 67.12 489.352 67.6C489.112 68.096 488.768 68.432 488.32 68.608C487.888 68.8 487.288 68.896 486.52 68.896C486.392 68.896 486.192 68.896 485.92 68.896C485.664 68.896 485.376 68.896 485.056 68.896C484.736 68.896 484.416 68.896 484.096 68.896C483.776 68.896 483.48 68.896 483.208 68.896C482.952 68.896 482.76 68.896 482.632 68.896C481.624 68.896 480.848 68.808 480.304 68.632C479.76 68.456 479.384 68.144 479.176 67.696C478.968 67.264 478.864 66.672 478.864 65.92V63.376H481.648V65.872ZM498.4 49.096H517.672V52.12H498.4V49.096ZM497.08 64.576H519.016V67.48H497.08V64.576ZM506.272 50.752H509.56V65.752H506.272V50.752ZM528.4 50.632H543.256V53.392H528.4V50.632ZM533.704 56.296H540.016V58.96H533.704V56.296ZM534.304 46.576H537.16V51.76H534.304V46.576ZM539.224 56.296H542.104C542.104 56.296 542.096 56.368 542.08 56.512C542.08 56.656 542.08 56.824 542.08 57.016C542.08 57.208 542.072 57.368 542.056 57.496C541.992 59.192 541.92 60.648 541.84 61.864C541.76 63.064 541.664 64.072 541.552 64.888C541.456 65.704 541.336 66.352 541.192 66.832C541.064 67.312 540.896 67.672 540.688 67.912C540.4 68.28 540.088 68.536 539.752 68.68C539.432 68.84 539.056 68.952 538.624 69.016C538.256 69.064 537.776 69.088 537.184 69.088C536.592 69.104 535.968 69.104 535.312 69.088C535.28 68.64 535.184 68.144 535.024 67.6C534.864 67.072 534.648 66.616 534.376 66.232C534.984 66.28 535.552 66.312 536.08 66.328C536.624 66.328 537.024 66.328 537.28 66.328C537.488 66.328 537.664 66.312 537.808 66.28C537.952 66.232 538.08 66.144 538.192 66.016C538.384 65.824 538.536 65.4 538.648 64.744C538.776 64.088 538.88 63.112 538.96 61.816C539.056 60.52 539.144 58.84 539.224 56.776V56.296ZM521.08 52.384H528.832V55.12H521.08V52.384ZM523.72 47.08H526.528V63.136H523.72V47.08ZM520.6 62.728C521.32 62.52 522.136 62.264 523.048 61.96C523.976 61.656 524.944 61.328 525.952 60.976C526.976 60.608 527.992 60.24 529 59.872L529.552 62.584C528.176 63.128 526.776 63.672 525.352 64.216C523.944 64.744 522.648 65.232 521.464 65.68L520.6 62.728ZM532.264 52.24H535.144V56.776C535.144 57.784 535.064 58.84 534.904 59.944C534.744 61.048 534.44 62.144 533.992 63.232C533.544 64.32 532.888 65.376 532.024 66.4C531.176 67.424 530.056 68.36 528.664 69.208C528.408 68.872 528.072 68.512 527.656 68.128C527.24 67.76 526.848 67.44 526.48 67.168C527.76 66.384 528.784 65.552 529.552 64.672C530.32 63.792 530.896 62.896 531.28 61.984C531.664 61.056 531.92 60.152 532.048 59.272C532.192 58.376 532.264 57.528 532.264 56.728V52.24Z" fill="#FEFFFF"/>
<path d="M691.416 47.08H694.272V65.776C694.272 66.592 694.168 67.208 693.96 67.624C693.768 68.04 693.424 68.36 692.928 68.584C692.416 68.808 691.76 68.952 690.96 69.016C690.176 69.08 689.224 69.112 688.104 69.112C688.04 68.712 687.912 68.24 687.72 67.696C687.528 67.168 687.328 66.712 687.12 66.328C687.632 66.344 688.128 66.36 688.608 66.376C689.104 66.392 689.544 66.4 689.928 66.4C690.312 66.4 690.584 66.4 690.744 66.4C690.984 66.384 691.152 66.336 691.248 66.256C691.36 66.16 691.416 66 691.416 65.776V47.08ZM686.808 49.36H689.568V62.992H686.808V49.36ZM676.464 55.336H682.968V57.808H676.464V55.336ZM675.216 55.336H678V65.176C678 65.672 678.072 65.984 678.216 66.112C678.376 66.24 678.728 66.304 679.272 66.304C679.4 66.304 679.608 66.304 679.896 66.304C680.184 66.304 680.504 66.304 680.856 66.304C681.208 66.304 681.536 66.304 681.84 66.304C682.144 66.304 682.376 66.304 682.536 66.304C682.872 66.304 683.12 66.232 683.28 66.088C683.456 65.928 683.576 65.632 683.64 65.2C683.72 64.768 683.784 64.128 683.832 63.28C684.136 63.488 684.528 63.696 685.008 63.904C685.504 64.096 685.936 64.24 686.304 64.336C686.208 65.456 686.04 66.344 685.8 67C685.56 67.64 685.2 68.088 684.72 68.344C684.256 68.616 683.608 68.752 682.776 68.752C682.632 68.752 682.432 68.752 682.176 68.752C681.92 68.752 681.624 68.752 681.288 68.752C680.968 68.752 680.648 68.752 680.328 68.752C680.008 68.752 679.72 68.752 679.464 68.752C679.224 68.752 679.04 68.752 678.912 68.752C677.968 68.752 677.224 68.648 676.68 68.44C676.152 68.232 675.776 67.864 675.552 67.336C675.328 66.824 675.216 66.104 675.216 65.176V55.336ZM681.912 55.336H684.672C684.672 55.336 684.664 55.464 684.648 55.72C684.648 55.96 684.64 56.16 684.624 56.32C684.56 57.648 684.488 58.744 684.408 59.608C684.344 60.472 684.248 61.152 684.12 61.648C683.992 62.144 683.832 62.504 683.64 62.728C683.4 63 683.152 63.192 682.896 63.304C682.64 63.416 682.352 63.496 682.032 63.544C681.744 63.592 681.368 63.624 680.904 63.64C680.456 63.64 679.968 63.632 679.44 63.616C679.424 63.232 679.352 62.816 679.224 62.368C679.096 61.92 678.936 61.528 678.744 61.192C679.144 61.24 679.504 61.272 679.824 61.288C680.16 61.288 680.416 61.288 680.592 61.288C680.752 61.288 680.88 61.272 680.976 61.24C681.088 61.208 681.192 61.144 681.288 61.048C681.384 60.92 681.472 60.672 681.552 60.304C681.632 59.92 681.696 59.36 681.744 58.624C681.808 57.872 681.864 56.896 681.912 55.696V55.336ZM678.864 49.552L680.784 47.872C681.424 48.528 682.112 49.264 682.848 50.08C683.584 50.88 684.272 51.664 684.912 52.432C685.568 53.2 686.088 53.888 686.472 54.496L684.36 56.488C684.008 55.864 683.52 55.152 682.896 54.352C682.288 53.536 681.624 52.712 680.904 51.88C680.2 51.032 679.52 50.256 678.864 49.552ZM679.128 46.552L681.768 47.392C680.952 49.296 679.92 51.072 678.672 52.72C677.424 54.368 676.024 55.784 674.472 56.968C674.312 56.76 674.104 56.52 673.848 56.248C673.608 55.976 673.36 55.712 673.104 55.456C672.848 55.2 672.616 54.992 672.408 54.832C673.384 54.176 674.304 53.4 675.168 52.504C676.032 51.592 676.8 50.632 677.472 49.624C678.16 48.6 678.712 47.576 679.128 46.552ZM707.832 50.536H719.328V53.272H706.464L707.832 50.536ZM710.976 55.792H718.728V58.432H710.976V55.792ZM710.952 61.12H719.04V63.808H710.952V61.12ZM709.512 51.448H712.488V69.136H709.512V51.448ZM708.384 46.84L711.144 47.56C710.696 48.856 710.168 50.144 709.56 51.424C708.968 52.704 708.32 53.904 707.616 55.024C706.912 56.128 706.192 57.104 705.456 57.952C705.312 57.76 705.104 57.536 704.832 57.28C704.56 57.024 704.28 56.776 703.992 56.536C703.72 56.28 703.472 56.08 703.248 55.936C703.968 55.216 704.64 54.368 705.264 53.392C705.904 52.416 706.488 51.368 707.016 50.248C707.56 49.112 708.016 47.976 708.384 46.84ZM702.024 46.696L704.808 47.584C704.296 48.944 703.688 50.312 702.984 51.688C702.28 53.064 701.512 54.368 700.68 55.6C699.848 56.816 698.992 57.88 698.112 58.792C698.016 58.552 697.872 58.24 697.68 57.856C697.504 57.472 697.312 57.08 697.104 56.68C696.896 56.28 696.704 55.96 696.528 55.72C697.264 54.984 697.968 54.136 698.64 53.176C699.328 52.216 699.96 51.184 700.536 50.08C701.128 48.976 701.624 47.848 702.024 46.696ZM699.6 53.344L702.504 50.44V50.464V69.112H699.6V53.344ZM722.28 51.136H741.648V53.968H722.28V51.136ZM723.552 58.144H740.52V60.928H723.552V58.144ZM721.248 65.56H742.848V68.392H721.248V65.56ZM730.416 53.584H733.584V67.072H730.416V53.584ZM728.28 48.232L730.68 46.576C731.192 46.896 731.736 47.272 732.312 47.704C732.904 48.136 733.464 48.568 733.992 49C734.536 49.432 734.976 49.84 735.312 50.224L732.744 52.072C732.456 51.704 732.056 51.296 731.544 50.848C731.048 50.384 730.512 49.928 729.936 49.48C729.36 49.016 728.808 48.6 728.28 48.232ZM748.704 52.432V53.56H752.256V52.432H748.704ZM748.704 49.48V50.608H752.256V49.48H748.704ZM746.16 47.536H754.92V55.504H746.16V47.536ZM745.056 56.896H755.952V58.984H745.056V56.896ZM755.88 47.584H767.16V49.864H755.88V47.584ZM749.544 57.568H751.968V67.216L749.544 65.824V57.568ZM750.792 60.928H755.448V63.016H750.792V60.928ZM760.392 48.136L763.272 48.76C762.952 49.448 762.632 50.128 762.312 50.8C762.008 51.456 761.728 52.016 761.472 52.48L759.216 51.88C759.44 51.352 759.664 50.736 759.888 50.032C760.112 49.328 760.28 48.696 760.392 48.136ZM748.08 61.936C748.432 62.944 748.872 63.744 749.4 64.336C749.944 64.928 750.592 65.376 751.344 65.68C752.112 65.984 752.984 66.184 753.96 66.28C754.952 66.36 756.056 66.4 757.272 66.4C757.592 66.4 758.08 66.4 758.736 66.4C759.392 66.4 760.136 66.4 760.968 66.4C761.8 66.4 762.632 66.4 763.464 66.4C764.296 66.384 765.064 66.368 765.768 66.352C766.472 66.336 767.016 66.328 767.4 66.328C767.208 66.584 767.016 66.952 766.824 67.432C766.648 67.912 766.528 68.328 766.464 68.68H764.64H757.248C755.776 68.68 754.456 68.608 753.288 68.464C752.12 68.32 751.096 68.032 750.216 67.6C749.336 67.184 748.584 66.56 747.96 65.728C747.336 64.896 746.808 63.8 746.376 62.44L748.08 61.936ZM756.624 51.592H766.248V61.504H763.824V53.632H758.976V61.648H756.624V51.592ZM746.256 59.824L748.584 59.992C748.504 61.896 748.32 63.632 748.032 65.2C747.744 66.752 747.224 68.064 746.472 69.136C746.328 69.024 746.128 68.88 745.872 68.704C745.632 68.528 745.384 68.36 745.128 68.2C744.872 68.04 744.656 67.912 744.48 67.816C745.184 66.904 745.648 65.76 745.872 64.384C746.096 62.992 746.224 61.472 746.256 59.824ZM760.32 54.592H762.672C762.64 56.224 762.544 57.672 762.384 58.936C762.24 60.184 761.952 61.28 761.52 62.224C761.104 63.152 760.472 63.952 759.624 64.624C758.776 65.28 757.64 65.832 756.216 66.28C756.104 65.992 755.912 65.664 755.64 65.296C755.384 64.912 755.144 64.616 754.92 64.408C756.152 64.04 757.128 63.592 757.848 63.064C758.568 62.52 759.096 61.864 759.432 61.096C759.768 60.328 759.992 59.408 760.104 58.336C760.216 57.264 760.288 56.016 760.32 54.592ZM761.544 62.944L763.104 61.384C763.552 61.688 764.032 62.032 764.544 62.416C765.072 62.8 765.576 63.184 766.056 63.568C766.536 63.952 766.936 64.288 767.256 64.576L765.576 66.352C765.288 66.048 764.912 65.696 764.448 65.296C763.984 64.896 763.496 64.488 762.984 64.072C762.472 63.656 761.992 63.28 761.544 62.944Z" fill="#FEFFFF"/>
<path d="M912.92 48.736L915.08 47.272C915.512 47.64 915.952 48.056 916.4 48.52C916.864 48.968 917.296 49.424 917.696 49.888C918.112 50.336 918.432 50.752 918.656 51.136L916.328 52.744C916.136 52.36 915.848 51.936 915.464 51.472C915.096 50.992 914.688 50.52 914.24 50.056C913.792 49.576 913.352 49.136 912.92 48.736ZM897.2 53.44H918.848V56.152H897.2V53.44ZM896.744 60.208C897.704 60.064 898.824 59.888 900.104 59.68C901.384 59.472 902.736 59.24 904.16 58.984C905.6 58.728 907.016 58.48 908.408 58.24L908.6 60.832C907.32 61.104 906.016 61.376 904.688 61.648C903.376 61.92 902.096 62.184 900.848 62.44C899.616 62.68 898.48 62.904 897.44 63.112L896.744 60.208ZM901.736 49.552H904.64V65.776C904.64 66.56 904.544 67.168 904.352 67.6C904.176 68.032 903.848 68.36 903.368 68.584C902.888 68.808 902.288 68.952 901.568 69.016C900.848 69.096 899.992 69.136 899 69.136C898.968 68.864 898.896 68.552 898.784 68.2C898.672 67.848 898.544 67.496 898.4 67.144C898.272 66.792 898.136 66.488 897.992 66.232C898.664 66.264 899.312 66.28 899.936 66.28C900.56 66.28 900.976 66.272 901.184 66.256C901.392 66.256 901.536 66.224 901.616 66.16C901.696 66.08 901.736 65.944 901.736 65.752V49.552ZM906.656 46.768L908.624 49.216C907.584 49.536 906.456 49.824 905.24 50.08C904.024 50.32 902.784 50.536 901.52 50.728C900.272 50.92 899.064 51.08 897.896 51.208C897.848 50.872 897.736 50.464 897.56 49.984C897.4 49.504 897.24 49.104 897.08 48.784C898.2 48.64 899.344 48.464 900.512 48.256C901.68 48.048 902.792 47.816 903.848 47.56C904.904 47.304 905.84 47.04 906.656 46.768ZM909.032 46.792H912.032C912 48.728 912.048 50.64 912.176 52.528C912.32 54.416 912.528 56.192 912.8 57.856C913.072 59.504 913.392 60.968 913.76 62.248C914.128 63.512 914.52 64.504 914.936 65.224C915.352 65.944 915.784 66.304 916.232 66.304C916.488 66.304 916.68 65.992 916.808 65.368C916.952 64.744 917.056 63.72 917.12 62.296C917.424 62.616 917.8 62.936 918.248 63.256C918.696 63.56 919.112 63.792 919.496 63.952C919.336 65.36 919.12 66.44 918.848 67.192C918.576 67.96 918.2 68.488 917.72 68.776C917.256 69.08 916.664 69.232 915.944 69.232C915.112 69.232 914.36 68.928 913.688 68.32C913.032 67.728 912.448 66.896 911.936 65.824C911.44 64.752 911.008 63.504 910.64 62.08C910.288 60.64 909.992 59.088 909.752 57.424C909.512 55.744 909.336 54 909.224 52.192C909.112 50.384 909.048 48.584 909.032 46.792ZM915.56 56.944L918.08 58.048C917.264 59.536 916.296 60.92 915.176 62.2C914.056 63.48 912.832 64.64 911.504 65.68C910.176 66.704 908.784 67.6 907.328 68.368C907.12 68.016 906.832 67.624 906.464 67.192C906.112 66.76 905.752 66.384 905.384 66.064C906.76 65.424 908.088 64.648 909.368 63.736C910.664 62.824 911.84 61.792 912.896 60.64C913.952 59.488 914.84 58.256 915.56 56.944ZM923.432 50.512H930.8V66.664H923.432V64.144H928.208V53.008H923.432V50.512ZM921.752 50.512H924.368V68.44H921.752V50.512ZM923.336 56.92H929.456V59.416H923.336V56.92ZM925.184 46.6L928.304 47.056C928.048 47.872 927.768 48.68 927.464 49.48C927.176 50.28 926.912 50.96 926.672 51.52L924.368 50.992C924.48 50.576 924.584 50.112 924.68 49.6C924.792 49.088 924.896 48.568 924.992 48.04C925.088 47.512 925.152 47.032 925.184 46.6ZM933.968 50.32H941V52.96H933.968V50.32ZM939.992 50.32H942.656C942.656 50.32 942.656 50.408 942.656 50.584C942.656 50.744 942.656 50.928 942.656 51.136C942.656 51.344 942.648 51.504 942.632 51.616C942.568 54.32 942.488 56.616 942.392 58.504C942.312 60.376 942.208 61.928 942.08 63.16C941.968 64.376 941.832 65.328 941.672 66.016C941.512 66.704 941.304 67.208 941.048 67.528C940.728 67.992 940.384 68.312 940.016 68.488C939.648 68.664 939.224 68.792 938.744 68.872C938.28 68.936 937.704 68.96 937.016 68.944C936.344 68.944 935.656 68.936 934.952 68.92C934.936 68.52 934.84 68.048 934.664 67.504C934.488 66.976 934.272 66.512 934.016 66.112C934.784 66.176 935.496 66.216 936.152 66.232C936.824 66.248 937.312 66.256 937.616 66.256C937.856 66.256 938.048 66.232 938.192 66.184C938.352 66.12 938.504 66.008 938.648 65.848C938.856 65.64 939.024 65.216 939.152 64.576C939.296 63.92 939.416 63 939.512 61.816C939.608 60.632 939.696 59.136 939.776 57.328C939.856 55.52 939.928 53.368 939.992 50.872V50.32ZM934.04 46.624L936.824 47.272C936.52 48.44 936.144 49.608 935.696 50.776C935.264 51.944 934.784 53.048 934.256 54.088C933.744 55.112 933.216 56.008 932.672 56.776C932.512 56.616 932.28 56.432 931.976 56.224C931.688 56 931.392 55.784 931.088 55.576C930.8 55.368 930.544 55.208 930.32 55.096C930.848 54.408 931.344 53.616 931.808 52.72C932.288 51.808 932.712 50.832 933.08 49.792C933.464 48.736 933.784 47.68 934.04 46.624ZM932.864 57.256L935.12 55.984C935.52 56.528 935.944 57.128 936.392 57.784C936.84 58.44 937.264 59.08 937.664 59.704C938.064 60.328 938.392 60.88 938.648 61.36L936.2 62.848C935.976 62.352 935.672 61.784 935.288 61.144C934.92 60.504 934.52 59.848 934.088 59.176C933.672 58.488 933.264 57.848 932.864 57.256ZM946.28 51.136H965.648V53.968H946.28V51.136ZM947.552 58.144H964.52V60.928H947.552V58.144ZM945.248 65.56H966.848V68.392H945.248V65.56ZM954.416 53.584H957.584V67.072H954.416V53.584ZM952.28 48.232L954.68 46.576C955.192 46.896 955.736 47.272 956.312 47.704C956.904 48.136 957.464 48.568 957.992 49C958.536 49.432 958.976 49.84 959.312 50.224L956.744 52.072C956.456 51.704 956.056 51.296 955.544 50.848C955.048 50.384 954.512 49.928 953.936 49.48C953.36 49.016 952.808 48.6 952.28 48.232ZM972.704 52.432V53.56H976.256V52.432H972.704ZM972.704 49.48V50.608H976.256V49.48H972.704ZM970.16 47.536H978.92V55.504H970.16V47.536ZM969.056 56.896H979.952V58.984H969.056V56.896ZM979.88 47.584H991.16V49.864H979.88V47.584ZM973.544 57.568H975.968V67.216L973.544 65.824V57.568ZM974.792 60.928H979.448V63.016H974.792V60.928ZM984.392 48.136L987.272 48.76C986.952 49.448 986.632 50.128 986.312 50.8C986.008 51.456 985.728 52.016 985.472 52.48L983.216 51.88C983.44 51.352 983.664 50.736 983.888 50.032C984.112 49.328 984.28 48.696 984.392 48.136ZM972.08 61.936C972.432 62.944 972.872 63.744 973.4 64.336C973.944 64.928 974.592 65.376 975.344 65.68C976.112 65.984 976.984 66.184 977.96 66.28C978.952 66.36 980.056 66.4 981.272 66.4C981.592 66.4 982.08 66.4 982.736 66.4C983.392 66.4 984.136 66.4 984.968 66.4C985.8 66.4 986.632 66.4 987.464 66.4C988.296 66.384 989.064 66.368 989.768 66.352C990.472 66.336 991.016 66.328 991.4 66.328C991.208 66.584 991.016 66.952 990.824 67.432C990.648 67.912 990.528 68.328 990.464 68.68H988.64H981.248C979.776 68.68 978.456 68.608 977.288 68.464C976.12 68.32 975.096 68.032 974.216 67.6C973.336 67.184 972.584 66.56 971.96 65.728C971.336 64.896 970.808 63.8 970.376 62.44L972.08 61.936ZM980.624 51.592H990.248V61.504H987.824V53.632H982.976V61.648H980.624V51.592ZM970.256 59.824L972.584 59.992C972.504 61.896 972.32 63.632 972.032 65.2C971.744 66.752 971.224 68.064 970.472 69.136C970.328 69.024 970.128 68.88 969.872 68.704C969.632 68.528 969.384 68.36 969.128 68.2C968.872 68.04 968.656 67.912 968.48 67.816C969.184 66.904 969.648 65.76 969.872 64.384C970.096 62.992 970.224 61.472 970.256 59.824ZM984.32 54.592H986.672C986.64 56.224 986.544 57.672 986.384 58.936C986.24 60.184 985.952 61.28 985.52 62.224C985.104 63.152 984.472 63.952 983.624 64.624C982.776 65.28 981.64 65.832 980.216 66.28C980.104 65.992 979.912 65.664 979.64 65.296C979.384 64.912 979.144 64.616 978.92 64.408C980.152 64.04 981.128 63.592 981.848 63.064C982.568 62.52 983.096 61.864 983.432 61.096C983.768 60.328 983.992 59.408 984.104 58.336C984.216 57.264 984.288 56.016 984.32 54.592ZM985.544 62.944L987.104 61.384C987.552 61.688 988.032 62.032 988.544 62.416C989.072 62.8 989.576 63.184 990.056 63.568C990.536 63.952 990.936 64.288 991.256 64.576L989.576 66.352C989.288 66.048 988.912 65.696 988.448 65.296C987.984 64.896 987.496 64.488 986.984 64.072C986.472 63.656 985.992 63.28 985.544 62.944Z" fill="url(#paint2_linear_347_305)"/>
<path d="M1273.5 57.2727C1275.31 57.2727 1276.77 55.8075 1276.77 54C1276.77 52.1925 1275.31 50.7273 1273.5 50.7273C1271.69 50.7273 1270.23 52.1925 1270.23 54C1270.23 55.8075 1271.69 57.2727 1273.5 57.2727Z" stroke="#A4A3B6" stroke-width="2.5" stroke-linecap="round" stroke-linejoin="round"/>
<path d="M1281.57 57.2727C1281.43 57.6018 1281.38 57.9668 1281.45 58.3206C1281.51 58.6745 1281.68 59.0011 1281.93 59.2582L1282 59.3236C1282.2 59.5263 1282.36 59.7669 1282.47 60.0318C1282.58 60.2966 1282.64 60.5805 1282.64 60.8673C1282.64 61.154 1282.58 61.4379 1282.47 61.7028C1282.36 61.9676 1282.2 62.2083 1282 62.4109C1281.8 62.6138 1281.55 62.7747 1281.29 62.8845C1281.03 62.9943 1280.74 63.0508 1280.45 63.0508C1280.17 63.0508 1279.88 62.9943 1279.62 62.8845C1279.35 62.7747 1279.11 62.6138 1278.91 62.4109L1278.85 62.3455C1278.59 62.094 1278.26 61.9253 1277.91 61.8611C1277.55 61.7969 1277.19 61.8402 1276.86 61.9855C1276.54 62.1237 1276.26 62.3534 1276.07 62.646C1275.87 62.9387 1275.77 63.2817 1275.77 63.6327V63.8182C1275.77 64.3968 1275.54 64.9518 1275.13 65.361C1274.72 65.7701 1274.17 66 1273.59 66C1273.01 66 1272.45 65.7701 1272.04 65.361C1271.64 64.9518 1271.41 64.3968 1271.41 63.8182V63.72C1271.4 63.3589 1271.28 63.0087 1271.07 62.7149C1270.86 62.4212 1270.57 62.1974 1270.23 62.0727C1269.9 61.9275 1269.53 61.8842 1269.18 61.9484C1268.83 62.0125 1268.5 62.1812 1268.24 62.4327L1268.18 62.4982C1267.97 62.701 1267.73 62.862 1267.47 62.9718C1267.2 63.0816 1266.92 63.1381 1266.63 63.1381C1266.35 63.1381 1266.06 63.0816 1265.8 62.9718C1265.53 62.862 1265.29 62.701 1265.09 62.4982C1264.89 62.2956 1264.73 62.0549 1264.62 61.7901C1264.51 61.5252 1264.45 61.2413 1264.45 60.9545C1264.45 60.6678 1264.51 60.3839 1264.62 60.119C1264.73 59.8542 1264.89 59.6135 1265.09 59.4109L1265.15 59.3455C1265.41 59.0884 1265.57 58.7618 1265.64 58.4079C1265.7 58.054 1265.66 57.689 1265.51 57.36C1265.38 57.0373 1265.15 56.7622 1264.85 56.5683C1264.56 56.3745 1264.22 56.2705 1263.87 56.2691H1263.68C1263.1 56.2691 1262.55 56.0392 1262.14 55.6301C1261.73 55.2209 1261.5 54.6659 1261.5 54.0873C1261.5 53.5086 1261.73 52.9537 1262.14 52.5445C1262.55 52.1353 1263.1 51.9055 1263.68 51.9055H1263.78C1264.14 51.897 1264.49 51.7801 1264.79 51.57C1265.08 51.3599 1265.3 51.0663 1265.43 50.7273C1265.57 50.3982 1265.62 50.0332 1265.55 49.6794C1265.49 49.3255 1265.32 48.9989 1265.07 48.7418L1265 48.6764C1264.8 48.4737 1264.64 48.2331 1264.53 47.9682C1264.42 47.7034 1264.36 47.4195 1264.36 47.1327C1264.36 46.846 1264.42 46.5621 1264.53 46.2972C1264.64 46.0324 1264.8 45.7917 1265 45.5891C1265.2 45.3862 1265.45 45.2253 1265.71 45.1155C1265.97 45.0057 1266.26 44.9492 1266.55 44.9492C1266.83 44.9492 1267.12 45.0057 1267.38 45.1155C1267.65 45.2253 1267.89 45.3862 1268.09 45.5891L1268.15 45.6545C1268.41 45.906 1268.74 46.0747 1269.09 46.1389C1269.45 46.2031 1269.81 46.1598 1270.14 46.0145H1270.23C1270.55 45.8763 1270.83 45.6466 1271.02 45.354C1271.21 45.0613 1271.32 44.7183 1271.32 44.3673V44.1818C1271.32 43.6032 1271.55 43.0482 1271.96 42.639C1272.37 42.2299 1272.92 42 1273.5 42C1274.08 42 1274.63 42.2299 1275.04 42.639C1275.45 43.0482 1275.68 43.6032 1275.68 44.1818V44.28C1275.68 44.631 1275.79 44.974 1275.98 45.2667C1276.17 45.5594 1276.45 45.789 1276.77 45.9273C1277.1 46.0725 1277.47 46.1158 1277.82 46.0516C1278.17 45.9875 1278.5 45.8188 1278.76 45.5673L1278.82 45.5018C1279.03 45.299 1279.27 45.138 1279.53 45.0282C1279.8 44.9184 1280.08 44.8619 1280.37 44.8619C1280.65 44.8619 1280.94 44.9184 1281.2 45.0282C1281.47 45.138 1281.71 45.299 1281.91 45.5018C1282.11 45.7045 1282.27 45.9451 1282.38 46.2099C1282.49 46.4748 1282.55 46.7587 1282.55 47.0455C1282.55 47.3322 1282.49 47.6161 1282.38 47.881C1282.27 48.1458 1282.11 48.3865 1281.91 48.5891L1281.85 48.6545C1281.59 48.9117 1281.43 49.2382 1281.36 49.5921C1281.3 49.946 1281.34 50.311 1281.49 50.64V50.7273C1281.62 51.0499 1281.85 51.3251 1282.15 51.5189C1282.44 51.7128 1282.78 51.8168 1283.13 51.8182H1283.32C1283.9 51.8182 1284.45 52.0481 1284.86 52.4572C1285.27 52.8664 1285.5 53.4213 1285.5 54C1285.5 54.5787 1285.27 55.1336 1284.86 55.5428C1284.45 55.9519 1283.9 56.1818 1283.32 56.1818H1283.22C1282.87 56.1832 1282.53 56.2872 1282.23 56.4811C1281.94 56.6749 1281.71 56.9501 1281.57 57.2727Z" stroke="#A4A3B6" stroke-width="2.5" stroke-linecap="round" stroke-linejoin="round"/>
<path d="M1324.7 54H1334.3M1341.5 54C1341.5 60.6274 1336.13 66 1329.5 66C1322.87 66 1317.5 60.6274 1317.5 54C1317.5 47.3726 1322.87 42 1329.5 42C1336.13 42 1341.5 47.3726 1341.5 54Z" stroke="#A4A3B6" stroke-width="2.5" stroke-linecap="round" stroke-linejoin="round"/>
<path d="M1389.1 50.4L1381.9 57.6M1381.9 50.4L1389.1 57.6M1397.5 54C1397.5 60.6274 1392.13 66 1385.5 66C1378.87 66 1373.5 60.6274 1373.5 54C1373.5 47.3726 1378.87 42 1385.5 42C1392.13 42 1397.5 47.3726 1397.5 54Z" stroke="#A4A3B6" stroke-width="2.5" stroke-linecap="round" stroke-linejoin="round"/>
<line y1="97.5" x2="1440" y2="97.5" stroke="#2E2C4A"/>
<rect x="42" y="122" width="120" height="40" rx="15" fill="#6F7CFF"/>
<path d="M75.312 135.984H85.504V137.712H75.312V135.984ZM77.392 140.4V141.984H83.232V140.4H77.392ZM75.648 138.848H85.088V143.552H75.648V138.848ZM77.152 143.728C77.6427 144.485 78.2933 145.141 79.104 145.696C79.9147 146.24 80.88 146.677 82 147.008C83.12 147.339 84.3733 147.568 85.76 147.696C85.6213 147.835 85.4773 148.005 85.328 148.208C85.1893 148.411 85.056 148.619 84.928 148.832C84.8107 149.045 84.7093 149.237 84.624 149.408C83.184 149.216 81.888 148.901 80.736 148.464C79.5947 148.037 78.5973 147.472 77.744 146.768C76.9013 146.053 76.1813 145.195 75.584 144.192L77.152 143.728ZM79.344 134.512H81.248V141.808C81.248 142.459 81.2053 143.099 81.12 143.728C81.0347 144.347 80.88 144.944 80.656 145.52C80.4427 146.085 80.1333 146.613 79.728 147.104C79.3227 147.595 78.8 148.037 78.16 148.432C77.52 148.827 76.7413 149.157 75.824 149.424C75.76 149.285 75.6533 149.115 75.504 148.912C75.3653 148.72 75.2213 148.523 75.072 148.32C74.9227 148.128 74.7787 147.968 74.64 147.84C75.504 147.648 76.2187 147.403 76.784 147.104C77.36 146.795 77.8187 146.443 78.16 146.048C78.5013 145.653 78.7573 145.232 78.928 144.784C79.0987 144.325 79.2107 143.845 79.264 143.344C79.3173 142.843 79.344 142.325 79.344 141.792V134.512ZM74.096 134.368L75.872 134.944C75.5093 135.851 75.0773 136.757 74.576 137.664C74.0853 138.56 73.552 139.413 72.976 140.224C72.4107 141.024 71.824 141.728 71.216 142.336C71.1627 142.176 71.0773 141.973 70.96 141.728C70.8427 141.483 70.7147 141.232 70.576 140.976C70.4373 140.72 70.3147 140.517 70.208 140.368C70.72 139.877 71.216 139.312 71.696 138.672C72.1867 138.032 72.6347 137.344 73.04 136.608C73.4453 135.872 73.7973 135.125 74.096 134.368ZM72.528 138.816L74.352 136.992V137.008V149.472H72.528V138.816ZM89.376 135.472H99.184V137.312H89.376V135.472ZM89.376 139.168H99.216V140.96H89.376V139.168ZM89.344 142.944H99.28V144.752H89.344V142.944ZM88.272 135.472H90.16V141.232C90.16 141.861 90.1333 142.549 90.08 143.296C90.0267 144.043 89.92 144.795 89.76 145.552C89.6107 146.299 89.3813 147.013 89.072 147.696C88.7733 148.379 88.3787 148.987 87.888 149.52C87.792 149.392 87.648 149.248 87.456 149.088C87.264 148.928 87.0667 148.773 86.864 148.624C86.672 148.475 86.5067 148.357 86.368 148.272C86.8053 147.792 87.152 147.264 87.408 146.688C87.664 146.101 87.8507 145.499 87.968 144.88C88.096 144.251 88.176 143.627 88.208 143.008C88.2507 142.379 88.272 141.781 88.272 141.216V135.472ZM98.512 135.472H100.432V147.168C100.432 147.68 100.368 148.075 100.24 148.352C100.112 148.64 99.8827 148.859 99.552 149.008C99.232 149.157 98.8213 149.253 98.32 149.296C97.8187 149.339 97.2 149.355 96.464 149.344C96.432 149.088 96.352 148.779 96.224 148.416C96.096 148.053 95.968 147.749 95.84 147.504C96.1493 147.515 96.4587 147.525 96.768 147.536C97.0773 147.536 97.3493 147.536 97.584 147.536C97.8293 147.536 98.0053 147.536 98.112 147.536C98.2613 147.536 98.3627 147.509 98.416 147.456C98.48 147.403 98.512 147.301 98.512 147.152V135.472ZM93.2 136.208H95.136V149.232H93.2V136.208ZM103.632 135.84L104.912 134.656C105.211 134.901 105.531 135.179 105.872 135.488C106.224 135.797 106.56 136.107 106.88 136.416C107.2 136.715 107.456 136.987 107.648 137.232L106.272 138.592C106.101 138.336 105.861 138.048 105.552 137.728C105.253 137.408 104.933 137.083 104.592 136.752C104.251 136.411 103.931 136.107 103.632 135.84ZM105.12 149.248L104.704 147.456L105.136 146.832L108.096 144.784C108.149 145.04 108.235 145.339 108.352 145.68C108.469 146.011 108.576 146.272 108.672 146.464C107.989 146.965 107.429 147.381 106.992 147.712C106.565 148.032 106.224 148.288 105.968 148.48C105.723 148.672 105.536 148.827 105.408 148.944C105.291 149.061 105.195 149.163 105.12 149.248ZM102.608 139.312H106.384V141.152H102.608V139.312ZM105.12 149.248C105.067 149.12 104.976 148.965 104.848 148.784C104.731 148.603 104.608 148.427 104.48 148.256C104.352 148.085 104.235 147.952 104.128 147.856C104.299 147.707 104.475 147.483 104.656 147.184C104.848 146.885 104.944 146.517 104.944 146.08V139.312H106.848V147.136C106.848 147.136 106.789 147.184 106.672 147.28C106.555 147.376 106.411 147.509 106.24 147.68C106.069 147.84 105.899 148.011 105.728 148.192C105.557 148.384 105.413 148.571 105.296 148.752C105.179 148.944 105.12 149.109 105.12 149.248ZM109.744 140.608H115.712V142.416H109.744V140.608ZM108.944 140.608H110.928V146.528C110.928 146.88 110.987 147.104 111.104 147.2C111.232 147.285 111.52 147.328 111.968 147.328C112.053 147.328 112.181 147.328 112.352 147.328C112.523 147.328 112.715 147.328 112.928 147.328C113.152 147.328 113.376 147.328 113.6 147.328C113.824 147.328 114.027 147.328 114.208 147.328C114.389 147.328 114.528 147.328 114.624 147.328C114.912 147.328 115.125 147.269 115.264 147.152C115.413 147.024 115.52 146.784 115.584 146.432C115.648 146.069 115.696 145.531 115.728 144.816C115.877 144.923 116.059 145.029 116.272 145.136C116.496 145.243 116.72 145.339 116.944 145.424C117.179 145.499 117.381 145.563 117.552 145.616C117.477 146.533 117.349 147.253 117.168 147.776C116.987 148.288 116.704 148.645 116.32 148.848C115.947 149.061 115.429 149.168 114.768 149.168C114.672 149.168 114.523 149.168 114.32 149.168C114.117 149.168 113.888 149.168 113.632 149.168C113.376 149.168 113.12 149.168 112.864 149.168C112.619 149.168 112.395 149.168 112.192 149.168C111.989 149.168 111.845 149.168 111.76 149.168C111.056 149.168 110.496 149.093 110.08 148.944C109.664 148.795 109.371 148.528 109.2 148.144C109.029 147.76 108.944 147.227 108.944 146.544V140.608ZM108.608 135.44H116.592V143.2H114.656V137.344H108.608V135.44ZM118.976 140.368H133.088V142.032H118.976V140.368ZM124.96 141.296H126.928V147.632C126.928 148.08 126.864 148.427 126.736 148.672C126.619 148.917 126.395 149.104 126.064 149.232C125.744 149.349 125.355 149.424 124.896 149.456C124.448 149.488 123.925 149.499 123.328 149.488C123.275 149.243 123.184 148.96 123.056 148.64C122.928 148.331 122.8 148.064 122.672 147.84C122.939 147.851 123.2 147.861 123.456 147.872C123.723 147.883 123.963 147.888 124.176 147.888C124.389 147.877 124.533 147.872 124.608 147.872C124.736 147.872 124.827 147.851 124.88 147.808C124.933 147.765 124.96 147.691 124.96 147.584V141.296ZM126.656 141.824C127.04 142.667 127.547 143.44 128.176 144.144C128.816 144.848 129.563 145.456 130.416 145.968C131.28 146.48 132.24 146.88 133.296 147.168C133.157 147.296 133.003 147.461 132.832 147.664C132.672 147.856 132.517 148.059 132.368 148.272C132.229 148.485 132.112 148.683 132.016 148.864C130.917 148.491 129.931 147.995 129.056 147.376C128.192 146.747 127.429 146.005 126.768 145.152C126.117 144.288 125.568 143.328 125.12 142.272L126.656 141.824ZM130.688 141.984L132.336 143.184C131.963 143.483 131.568 143.787 131.152 144.096C130.736 144.405 130.325 144.693 129.92 144.96C129.515 145.227 129.136 145.456 128.784 145.648L127.488 144.592C127.829 144.379 128.197 144.123 128.592 143.824C128.987 143.525 129.365 143.216 129.728 142.896C130.101 142.565 130.421 142.261 130.688 141.984ZM119.856 143.28L121.136 142.112C121.467 142.283 121.819 142.48 122.192 142.704C122.576 142.917 122.933 143.141 123.264 143.376C123.605 143.611 123.888 143.829 124.112 144.032L122.752 145.344C122.56 145.141 122.299 144.917 121.968 144.672C121.637 144.416 121.285 144.171 120.912 143.936C120.549 143.691 120.197 143.472 119.856 143.28ZM118.832 146.832C119.387 146.64 120.032 146.411 120.768 146.144C121.515 145.867 122.299 145.573 123.12 145.264C123.941 144.955 124.757 144.64 125.568 144.32L125.952 145.952C125.259 146.261 124.555 146.571 123.84 146.88C123.136 147.189 122.448 147.488 121.776 147.776C121.104 148.064 120.475 148.325 119.888 148.56L118.832 146.832ZM120.464 137.792H129.824V139.504H120.464V137.792ZM129.328 135.184H129.536L129.888 135.12L131.424 135.2C131.424 135.861 131.403 136.539 131.36 137.232C131.328 137.925 131.285 138.613 131.232 139.296C131.179 139.979 131.12 140.629 131.056 141.248L129.04 141.136C129.083 140.667 129.12 140.171 129.152 139.648C129.184 139.115 129.211 138.587 129.232 138.064C129.264 137.541 129.285 137.056 129.296 136.608C129.317 136.149 129.328 135.749 129.328 135.408V135.184ZM119.936 135.184H129.872V136.944H119.936V135.184Z" fill="white"/>
<rect x="186" y="120" width="120" height="44" rx="15" fill="#605F77" fill-opacity="0.25"/>
<path d="M225.28 135.824L226.72 134.848C227.008 135.093 227.301 135.371 227.6 135.68C227.909 135.979 228.197 136.283 228.464 136.592C228.741 136.891 228.955 137.168 229.104 137.424L227.552 138.496C227.424 138.24 227.232 137.957 226.976 137.648C226.731 137.328 226.459 137.013 226.16 136.704C225.861 136.384 225.568 136.091 225.28 135.824ZM214.8 138.96H229.232V140.768H214.8V138.96ZM214.496 143.472C215.136 143.376 215.883 143.259 216.736 143.12C217.589 142.981 218.491 142.827 219.44 142.656C220.4 142.485 221.344 142.32 222.272 142.16L222.4 143.888C221.547 144.069 220.677 144.251 219.792 144.432C218.917 144.613 218.064 144.789 217.232 144.96C216.411 145.12 215.653 145.269 214.96 145.408L214.496 143.472ZM217.824 136.368H219.76V147.184C219.76 147.707 219.696 148.112 219.568 148.4C219.451 148.688 219.232 148.907 218.912 149.056C218.592 149.205 218.192 149.301 217.712 149.344C217.232 149.397 216.661 149.424 216 149.424C215.979 149.243 215.931 149.035 215.856 148.8C215.781 148.565 215.696 148.331 215.6 148.096C215.515 147.861 215.424 147.659 215.328 147.488C215.776 147.509 216.208 147.52 216.624 147.52C217.04 147.52 217.317 147.515 217.456 147.504C217.595 147.504 217.691 147.483 217.744 147.44C217.797 147.387 217.824 147.296 217.824 147.168V136.368ZM221.104 134.512L222.416 136.144C221.723 136.357 220.971 136.549 220.16 136.72C219.349 136.88 218.523 137.024 217.68 137.152C216.848 137.28 216.043 137.387 215.264 137.472C215.232 137.248 215.157 136.976 215.04 136.656C214.933 136.336 214.827 136.069 214.72 135.856C215.467 135.76 216.229 135.643 217.008 135.504C217.787 135.365 218.528 135.211 219.232 135.04C219.936 134.869 220.56 134.693 221.104 134.512ZM222.688 134.528H224.688C224.667 135.819 224.699 137.093 224.784 138.352C224.88 139.611 225.019 140.795 225.2 141.904C225.381 143.003 225.595 143.979 225.84 144.832C226.085 145.675 226.347 146.336 226.624 146.816C226.901 147.296 227.189 147.536 227.488 147.536C227.659 147.536 227.787 147.328 227.872 146.912C227.968 146.496 228.037 145.813 228.08 144.864C228.283 145.077 228.533 145.291 228.832 145.504C229.131 145.707 229.408 145.861 229.664 145.968C229.557 146.907 229.413 147.627 229.232 148.128C229.051 148.64 228.8 148.992 228.48 149.184C228.171 149.387 227.776 149.488 227.296 149.488C226.741 149.488 226.24 149.285 225.792 148.88C225.355 148.485 224.965 147.931 224.624 147.216C224.293 146.501 224.005 145.669 223.76 144.72C223.525 143.76 223.328 142.725 223.168 141.616C223.008 140.496 222.891 139.333 222.816 138.128C222.741 136.923 222.699 135.723 222.688 134.528ZM227.04 141.296L228.72 142.032C228.176 143.024 227.531 143.947 226.784 144.8C226.037 145.653 225.221 146.427 224.336 147.12C223.451 147.803 222.523 148.4 221.552 148.912C221.413 148.677 221.221 148.416 220.976 148.128C220.741 147.84 220.501 147.589 220.256 147.376C221.173 146.949 222.059 146.432 222.912 145.824C223.776 145.216 224.56 144.528 225.264 143.76C225.968 142.992 226.56 142.171 227.04 141.296ZM232.288 137.008H237.2V147.776H232.288V146.096H235.472V138.672H232.288V137.008ZM231.168 137.008H232.912V148.96H231.168V137.008ZM232.224 141.28H236.304V142.944H232.224V141.28ZM233.456 134.4L235.536 134.704C235.365 135.248 235.179 135.787 234.976 136.32C234.784 136.853 234.608 137.307 234.448 137.68L232.912 137.328C232.987 137.051 233.056 136.741 233.12 136.4C233.195 136.059 233.264 135.712 233.328 135.36C233.392 135.008 233.435 134.688 233.456 134.4ZM239.312 136.88H244V138.64H239.312V136.88ZM243.328 136.88H245.104C245.104 136.88 245.104 136.939 245.104 137.056C245.104 137.163 245.104 137.285 245.104 137.424C245.104 137.563 245.099 137.669 245.088 137.744C245.045 139.547 244.992 141.077 244.928 142.336C244.875 143.584 244.805 144.619 244.72 145.44C244.645 146.251 244.555 146.885 244.448 147.344C244.341 147.803 244.203 148.139 244.032 148.352C243.819 148.661 243.589 148.875 243.344 148.992C243.099 149.109 242.816 149.195 242.496 149.248C242.187 149.291 241.803 149.307 241.344 149.296C240.896 149.296 240.437 149.291 239.968 149.28C239.957 149.013 239.893 148.699 239.776 148.336C239.659 147.984 239.515 147.675 239.344 147.408C239.856 147.451 240.331 147.477 240.768 147.488C241.216 147.499 241.541 147.504 241.744 147.504C241.904 147.504 242.032 147.488 242.128 147.456C242.235 147.413 242.336 147.339 242.432 147.232C242.571 147.093 242.683 146.811 242.768 146.384C242.864 145.947 242.944 145.333 243.008 144.544C243.072 143.755 243.131 142.757 243.184 141.552C243.237 140.347 243.285 138.912 243.328 137.248V136.88ZM239.36 134.416L241.216 134.848C241.013 135.627 240.763 136.405 240.464 137.184C240.176 137.963 239.856 138.699 239.504 139.392C239.163 140.075 238.811 140.672 238.448 141.184C238.341 141.077 238.187 140.955 237.984 140.816C237.792 140.667 237.595 140.523 237.392 140.384C237.2 140.245 237.029 140.139 236.88 140.064C237.232 139.605 237.563 139.077 237.872 138.48C238.192 137.872 238.475 137.221 238.72 136.528C238.976 135.824 239.189 135.12 239.36 134.416ZM238.576 141.504L240.08 140.656C240.347 141.019 240.629 141.419 240.928 141.856C241.227 142.293 241.509 142.72 241.776 143.136C242.043 143.552 242.261 143.92 242.432 144.24L240.8 145.232C240.651 144.901 240.448 144.523 240.192 144.096C239.947 143.669 239.68 143.232 239.392 142.784C239.115 142.325 238.843 141.899 238.576 141.504ZM253.888 137.024H261.552V138.848H252.976L253.888 137.024ZM255.984 140.528H261.152V142.288H255.984V140.528ZM255.968 144.08H261.36V145.872H255.968V144.08ZM255.008 137.632H256.992V149.424H255.008V137.632ZM254.256 134.56L256.096 135.04C255.797 135.904 255.445 136.763 255.04 137.616C254.645 138.469 254.213 139.269 253.744 140.016C253.275 140.752 252.795 141.403 252.304 141.968C252.208 141.84 252.069 141.691 251.888 141.52C251.707 141.349 251.52 141.184 251.328 141.024C251.147 140.853 250.981 140.72 250.832 140.624C251.312 140.144 251.76 139.579 252.176 138.928C252.603 138.277 252.992 137.579 253.344 136.832C253.707 136.075 254.011 135.317 254.256 134.56ZM250.016 134.464L251.872 135.056C251.531 135.963 251.125 136.875 250.656 137.792C250.187 138.709 249.675 139.579 249.12 140.4C248.565 141.211 247.995 141.92 247.408 142.528C247.344 142.368 247.248 142.16 247.12 141.904C247.003 141.648 246.875 141.387 246.736 141.12C246.597 140.853 246.469 140.64 246.352 140.48C246.843 139.989 247.312 139.424 247.76 138.784C248.219 138.144 248.64 137.456 249.024 136.72C249.419 135.984 249.749 135.232 250.016 134.464ZM248.4 138.896L250.336 136.96V136.976V149.408H248.4V138.896ZM267.184 136.88V139.024H272.816V136.88H267.184ZM265.328 135.04H274.768V140.848H265.328V135.04ZM263.12 142.192H269.248V149.344H267.328V144.032H264.944V149.44H263.12V142.192ZM270.592 142.192H276.928V149.36H275.008V144.032H272.432V149.44H270.592V142.192ZM263.92 146.784H268.128V148.624H263.92V146.784ZM271.472 146.784H275.952V148.624H271.472V146.784Z" fill="#9E9EAC"/>
<rect x="663.5" y="489.5" width="119" height="43" rx="21.5" fill="#605F77" fill-opacity="0.25"/>
<rect x="663.5" y="489.5" width="119" height="43" rx="21.5" stroke="#6F7CFF"/>
<path d="M700.952 505.528H713.192V507.448H700.952V505.528ZM699.72 509.72H714.344V511.672H699.72V509.72ZM705.912 503.384H707.944V510.824H705.912V503.384ZM704.504 510.952L706.792 511.56C706.525 512.189 706.237 512.829 705.928 513.48C705.629 514.131 705.325 514.755 705.016 515.352C704.717 515.949 704.424 516.477 704.136 516.936L702.36 516.36C702.552 515.987 702.749 515.576 702.952 515.128C703.165 514.68 703.363 514.216 703.544 513.736C703.736 513.256 703.912 512.781 704.072 512.312C704.243 511.832 704.387 511.379 704.504 510.952ZM700.312 515.896C701.101 515.864 701.971 515.827 702.92 515.784C703.88 515.741 704.893 515.693 705.96 515.64C707.027 515.587 708.109 515.533 709.208 515.48C710.307 515.416 711.389 515.352 712.456 515.288L712.408 517.224C711.011 517.32 709.597 517.411 708.168 517.496C706.749 517.592 705.389 517.672 704.088 517.736C702.797 517.811 701.635 517.88 700.6 517.944L700.312 515.896ZM708.936 513.288L710.76 512.488C711.219 513 711.672 513.56 712.12 514.168C712.579 514.776 712.995 515.379 713.368 515.976C713.752 516.573 714.061 517.112 714.296 517.592L712.36 518.6C712.157 518.109 711.869 517.555 711.496 516.936C711.123 516.317 710.712 515.693 710.264 515.064C709.827 514.424 709.384 513.832 708.936 513.288ZM716.984 504.216H720.056V515.768H716.984V514.136H718.52V505.848H716.984V504.216ZM716.888 507.512H719.144V509.096H716.888V507.512ZM716.888 510.792H719.144V512.36H716.888V510.792ZM715.96 504.216H717.464V517.096H715.96V504.216ZM720.488 507.912H724.776V509.72H720.488V507.912ZM721.912 504.76H723.544V518.424H721.912V504.76ZM724.2 503.56L725.4 504.984C724.739 505.24 723.997 505.453 723.176 505.624C722.365 505.795 721.592 505.928 720.856 506.024C720.813 505.832 720.744 505.603 720.648 505.336C720.552 505.069 720.456 504.835 720.36 504.632C720.819 504.547 721.283 504.451 721.752 504.344C722.221 504.227 722.664 504.104 723.08 503.976C723.507 503.848 723.88 503.709 724.2 503.56ZM721.928 508.744L723.048 509.08C722.952 509.677 722.829 510.307 722.68 510.968C722.531 511.619 722.36 512.264 722.168 512.904C721.987 513.533 721.779 514.125 721.544 514.68C721.32 515.224 721.075 515.699 720.808 516.104C720.723 515.848 720.589 515.56 720.408 515.24C720.237 514.92 720.083 514.648 719.944 514.424C720.168 514.083 720.381 513.688 720.584 513.24C720.797 512.781 720.989 512.301 721.16 511.8C721.331 511.288 721.48 510.771 721.608 510.248C721.747 509.725 721.853 509.224 721.928 508.744ZM723.496 510.072C723.571 510.157 723.688 510.312 723.848 510.536C724.008 510.76 724.184 511.005 724.376 511.272C724.568 511.528 724.739 511.768 724.888 511.992C725.048 512.205 725.155 512.36 725.208 512.456L724.392 514.056C724.317 513.853 724.211 513.608 724.072 513.32C723.944 513.021 723.8 512.723 723.64 512.424C723.491 512.125 723.347 511.848 723.208 511.592C723.069 511.325 722.957 511.107 722.872 510.936L723.496 510.072ZM725.128 506.92L726.376 507.048C726.387 507.603 726.371 508.173 726.328 508.76C726.296 509.347 726.232 509.901 726.136 510.424C726.04 510.947 725.901 511.405 725.72 511.8L724.6 510.92C724.739 510.6 724.845 510.221 724.92 509.784C725.005 509.336 725.064 508.867 725.096 508.376C725.128 507.875 725.139 507.389 725.128 506.92ZM729 506.872L730.52 507.144C730.424 507.645 730.323 508.168 730.216 508.712C730.12 509.256 730.019 509.779 729.912 510.28C729.805 510.781 729.704 511.224 729.608 511.608L728.36 511.336C728.456 510.931 728.547 510.472 728.632 509.96C728.717 509.437 728.792 508.904 728.856 508.36C728.92 507.816 728.968 507.32 729 506.872ZM726.712 503.624H728.264V507.88C728.264 508.723 728.232 509.592 728.168 510.488C728.115 511.384 727.992 512.291 727.8 513.208C727.619 514.115 727.341 515.005 726.968 515.88C726.605 516.755 726.109 517.587 725.48 518.376C725.405 518.237 725.304 518.083 725.176 517.912C725.048 517.741 724.915 517.576 724.776 517.416C724.648 517.267 724.531 517.149 724.424 517.064C724.947 516.371 725.363 515.64 725.672 514.872C725.981 514.104 726.211 513.32 726.36 512.52C726.509 511.709 726.605 510.909 726.648 510.12C726.691 509.331 726.712 508.579 726.712 507.864V503.624ZM728.216 509.016C728.28 509.848 728.365 510.659 728.472 511.448C728.589 512.237 728.744 512.979 728.936 513.672C729.128 514.365 729.368 514.984 729.656 515.528C729.944 516.061 730.296 516.499 730.712 516.84C730.595 516.947 730.456 517.085 730.296 517.256C730.147 517.427 730.003 517.603 729.864 517.784C729.736 517.965 729.629 518.136 729.544 518.296C728.947 517.709 728.472 516.952 728.12 516.024C727.768 515.096 727.501 514.045 727.32 512.872C727.149 511.699 727.016 510.456 726.92 509.144L728.216 509.016ZM732.984 504.216H736.056V515.768H732.984V514.136H734.52V505.848H732.984V504.216ZM732.888 507.512H735.144V509.096H732.888V507.512ZM732.888 510.792H735.144V512.36H732.888V510.792ZM731.96 504.216H733.464V517.096H731.96V504.216ZM736.488 507.912H740.776V509.72H736.488V507.912ZM737.912 504.76H739.544V518.424H737.912V504.76ZM740.2 503.56L741.4 504.984C740.739 505.24 739.997 505.453 739.176 505.624C738.365 505.795 737.592 505.928 736.856 506.024C736.813 505.832 736.744 505.603 736.648 505.336C736.552 505.069 736.456 504.835 736.36 504.632C736.819 504.547 737.283 504.451 737.752 504.344C738.221 504.227 738.664 504.104 739.08 503.976C739.507 503.848 739.88 503.709 740.2 503.56ZM737.928 508.744L739.048 509.08C738.952 509.677 738.829 510.307 738.68 510.968C738.531 511.619 738.36 512.264 738.168 512.904C737.987 513.533 737.779 514.125 737.544 514.68C737.32 515.224 737.075 515.699 736.808 516.104C736.723 515.848 736.589 515.56 736.408 515.24C736.237 514.92 736.083 514.648 735.944 514.424C736.168 514.083 736.381 513.688 736.584 513.24C736.797 512.781 736.989 512.301 737.16 511.8C737.331 511.288 737.48 510.771 737.608 510.248C737.747 509.725 737.853 509.224 737.928 508.744ZM739.496 510.072C739.571 510.157 739.688 510.312 739.848 510.536C740.008 510.76 740.184 511.005 740.376 511.272C740.568 511.528 740.739 511.768 740.888 511.992C741.048 512.205 741.155 512.36 741.208 512.456L740.392 514.056C740.317 513.853 740.211 513.608 740.072 513.32C739.944 513.021 739.8 512.723 739.64 512.424C739.491 512.125 739.347 511.848 739.208 511.592C739.069 511.325 738.957 511.107 738.872 510.936L739.496 510.072ZM741.128 506.92L742.376 507.048C742.387 507.603 742.371 508.173 742.328 508.76C742.296 509.347 742.232 509.901 742.136 510.424C742.04 510.947 741.901 511.405 741.72 511.8L740.6 510.92C740.739 510.6 740.845 510.221 740.92 509.784C741.005 509.336 741.064 508.867 741.096 508.376C741.128 507.875 741.139 507.389 741.128 506.92ZM745 506.872L746.52 507.144C746.424 507.645 746.323 508.168 746.216 508.712C746.12 509.256 746.019 509.779 745.912 510.28C745.805 510.781 745.704 511.224 745.608 511.608L744.36 511.336C744.456 510.931 744.547 510.472 744.632 509.96C744.717 509.437 744.792 508.904 744.856 508.36C744.92 507.816 744.968 507.32 745 506.872ZM742.712 503.624H744.264V507.88C744.264 508.723 744.232 509.592 744.168 510.488C744.115 511.384 743.992 512.291 743.8 513.208C743.619 514.115 743.341 515.005 742.968 515.88C742.605 516.755 742.109 517.587 741.48 518.376C741.405 518.237 741.304 518.083 741.176 517.912C741.048 517.741 740.915 517.576 740.776 517.416C740.648 517.267 740.531 517.149 740.424 517.064C740.947 516.371 741.363 515.64 741.672 514.872C741.981 514.104 742.211 513.32 742.36 512.52C742.509 511.709 742.605 510.909 742.648 510.12C742.691 509.331 742.712 508.579 742.712 507.864V503.624ZM744.216 509.016C744.28 509.848 744.365 510.659 744.472 511.448C744.589 512.237 744.744 512.979 744.936 513.672C745.128 514.365 745.368 514.984 745.656 515.528C745.944 516.061 746.296 516.499 746.712 516.84C746.595 516.947 746.456 517.085 746.296 517.256C746.147 517.427 746.003 517.603 745.864 517.784C745.736 517.965 745.629 518.136 745.544 518.296C744.947 517.709 744.472 516.952 744.12 516.024C743.768 515.096 743.501 514.045 743.32 512.872C743.149 511.699 743.016 510.456 742.92 509.144L744.216 509.016Z" fill="#6F7CFF"/>
<path d="M675.1 416.648C675.367 416.648 675.633 416.739 675.9 416.92C676.177 417.101 676.54 417.309 676.988 417.544C677.511 417.832 678.135 418.019 678.86 418.104C679.596 418.179 680.396 418.216 681.26 418.216C681.665 418.216 682.113 418.205 682.604 418.184C683.105 418.163 683.617 418.136 684.14 418.104C684.673 418.072 685.191 418.035 685.692 417.992C686.193 417.939 686.647 417.885 687.052 417.832C686.977 418.013 686.892 418.237 686.796 418.504C686.711 418.76 686.636 419.016 686.572 419.272C686.519 419.539 686.487 419.763 686.476 419.944C686.188 419.965 685.825 419.987 685.388 420.008C684.961 420.029 684.497 420.045 683.996 420.056C683.505 420.077 683.015 420.093 682.524 420.104C682.044 420.115 681.596 420.12 681.18 420.12C680.199 420.12 679.351 420.061 678.636 419.944C677.921 419.837 677.276 419.635 676.7 419.336C676.327 419.144 676.001 418.957 675.724 418.776C675.457 418.595 675.233 418.504 675.052 418.504C674.892 418.504 674.7 418.6 674.476 418.792C674.263 418.984 674.044 419.224 673.82 419.512C673.607 419.8 673.393 420.093 673.18 420.392L671.836 418.488C672.391 417.944 672.961 417.501 673.548 417.16C674.135 416.819 674.652 416.648 675.1 416.648ZM672.172 407.064L673.676 406.04C673.943 406.275 674.225 406.541 674.524 406.84C674.823 407.128 675.1 407.421 675.356 407.72C675.623 408.008 675.831 408.275 675.98 408.52L674.364 409.672C674.225 409.427 674.033 409.155 673.788 408.856C673.553 408.547 673.292 408.237 673.004 407.928C672.716 407.608 672.439 407.32 672.172 407.064ZM675.852 411.352V417.608H674.012V413.128H672.188V411.352H675.852ZM676.156 407.704H686.636V409.496H676.156V407.704ZM683.084 408.072L684.988 408.408C684.593 409.965 684.055 411.331 683.372 412.504C682.7 413.677 681.857 414.68 680.844 415.512C679.841 416.333 678.652 417.016 677.276 417.56C677.212 417.411 677.116 417.235 676.988 417.032C676.86 416.819 676.721 416.611 676.572 416.408C676.423 416.195 676.289 416.019 676.172 415.88C678.092 415.251 679.612 414.301 680.732 413.032C681.852 411.763 682.636 410.109 683.084 408.072ZM679.548 405.864L681.404 405.288C681.617 405.64 681.831 406.035 682.044 406.472C682.257 406.899 682.407 407.277 682.492 407.608L680.524 408.248C680.46 407.939 680.332 407.56 680.14 407.112C679.959 406.653 679.761 406.237 679.548 405.864ZM676.636 411L677.932 409.864C678.593 410.312 679.308 410.808 680.076 411.352C680.844 411.885 681.612 412.435 682.38 413C683.148 413.565 683.868 414.115 684.54 414.648C685.212 415.181 685.783 415.667 686.252 416.104L684.796 417.512C684.369 417.064 683.836 416.568 683.196 416.024C682.556 415.469 681.857 414.899 681.1 414.312C680.343 413.725 679.58 413.149 678.812 412.584C678.044 412.008 677.319 411.48 676.636 411ZM691.772 410.536V411.848H699.436V410.536H691.772ZM691.772 407.672V408.952H699.436V407.672H691.772ZM689.868 405.976H701.436V413.544H689.868V405.976ZM688.3 418.184H702.764V419.976H688.3V418.184ZM689.372 414.92H701.948V416.696H689.372V414.92ZM694.716 407.032H696.524V413.144H696.668V419.304H694.556V413.144H694.716V407.032ZM710.46 405.4H712.444V408.024H710.46V405.4ZM710.46 414.888H712.444V419.16H710.46V414.888ZM708.748 408.424H710.748C710.673 409.117 710.551 409.747 710.38 410.312C710.209 410.877 709.937 411.384 709.564 411.832C709.191 412.28 708.673 412.675 708.012 413.016C707.351 413.347 706.497 413.624 705.452 413.848C705.399 413.688 705.313 413.507 705.196 413.304C705.089 413.101 704.967 412.904 704.828 412.712C704.689 412.509 704.556 412.349 704.428 412.232C705.335 412.072 706.06 411.88 706.604 411.656C707.148 411.421 707.564 411.149 707.852 410.84C708.151 410.531 708.359 410.173 708.476 409.768C708.604 409.363 708.695 408.915 708.748 408.424ZM712.268 408.392H714.172V411.128C714.172 411.352 714.204 411.491 714.268 411.544C714.343 411.597 714.503 411.624 714.748 411.624C714.812 411.624 714.903 411.624 715.02 411.624C715.148 411.624 715.287 411.624 715.436 411.624C715.585 411.624 715.729 411.624 715.868 411.624C716.007 411.624 716.108 411.624 716.172 411.624C716.311 411.624 716.412 411.597 716.476 411.544C716.551 411.48 716.604 411.368 716.636 411.208C716.668 411.037 716.695 410.787 716.716 410.456C716.844 410.552 717.004 410.643 717.196 410.728C717.388 410.813 717.591 410.893 717.804 410.968C718.017 411.032 718.204 411.08 718.364 411.112C718.3 411.667 718.193 412.104 718.044 412.424C717.895 412.733 717.687 412.952 717.42 413.08C717.153 413.197 716.801 413.256 716.364 413.256C716.268 413.256 716.135 413.256 715.964 413.256C715.793 413.256 715.607 413.256 715.404 413.256C715.212 413.256 715.025 413.256 714.844 413.256C714.673 413.256 714.545 413.256 714.46 413.256C713.863 413.256 713.404 413.192 713.084 413.064C712.775 412.925 712.561 412.701 712.444 412.392C712.327 412.083 712.268 411.667 712.268 411.144V408.392ZM704.652 406.84H718.396V410.168H716.412V408.584H706.54V410.472H704.652V406.84ZM706.156 414.152H717.18V415.864H706.156V414.152ZM704.476 418.264H718.54V420.008H704.476V418.264ZM726.46 405.4H728.444V408.024H726.46V405.4ZM726.46 414.888H728.444V419.16H726.46V414.888ZM724.748 408.424H726.748C726.673 409.117 726.551 409.747 726.38 410.312C726.209 410.877 725.937 411.384 725.564 411.832C725.191 412.28 724.673 412.675 724.012 413.016C723.351 413.347 722.497 413.624 721.452 413.848C721.399 413.688 721.313 413.507 721.196 413.304C721.089 413.101 720.967 412.904 720.828 412.712C720.689 412.509 720.556 412.349 720.428 412.232C721.335 412.072 722.06 411.88 722.604 411.656C723.148 411.421 723.564 411.149 723.852 410.84C724.151 410.531 724.359 410.173 724.476 409.768C724.604 409.363 724.695 408.915 724.748 408.424ZM728.268 408.392H730.172V411.128C730.172 411.352 730.204 411.491 730.268 411.544C730.343 411.597 730.503 411.624 730.748 411.624C730.812 411.624 730.903 411.624 731.02 411.624C731.148 411.624 731.287 411.624 731.436 411.624C731.585 411.624 731.729 411.624 731.868 411.624C732.007 411.624 732.108 411.624 732.172 411.624C732.311 411.624 732.412 411.597 732.476 411.544C732.551 411.48 732.604 411.368 732.636 411.208C732.668 411.037 732.695 410.787 732.716 410.456C732.844 410.552 733.004 410.643 733.196 410.728C733.388 410.813 733.591 410.893 733.804 410.968C734.017 411.032 734.204 411.08 734.364 411.112C734.3 411.667 734.193 412.104 734.044 412.424C733.895 412.733 733.687 412.952 733.42 413.08C733.153 413.197 732.801 413.256 732.364 413.256C732.268 413.256 732.135 413.256 731.964 413.256C731.793 413.256 731.607 413.256 731.404 413.256C731.212 413.256 731.025 413.256 730.844 413.256C730.673 413.256 730.545 413.256 730.46 413.256C729.863 413.256 729.404 413.192 729.084 413.064C728.775 412.925 728.561 412.701 728.444 412.392C728.327 412.083 728.268 411.667 728.268 411.144V408.392ZM720.652 406.84H734.396V410.168H732.412V408.584H722.54V410.472H720.652V406.84ZM722.156 414.152H733.18V415.864H722.156V414.152ZM720.476 418.264H734.54V420.008H720.476V418.264ZM744.94 417H749.42V418.808H744.94V417ZM743.9 407.048H750.444V419.752H748.54V408.872H745.708V420.008H743.9V407.048ZM736.124 408.584H741.868V410.408H736.124V408.584ZM738.524 405.384L740.38 405.592C740.209 406.445 740.023 407.347 739.82 408.296C739.617 409.235 739.404 410.179 739.18 411.128C738.967 412.067 738.748 412.968 738.524 413.832C738.311 414.696 738.103 415.491 737.9 416.216L736.284 415.432C736.465 414.803 736.657 414.077 736.86 413.256C737.073 412.435 737.281 411.571 737.484 410.664C737.687 409.757 737.879 408.856 738.06 407.96C738.241 407.053 738.396 406.195 738.524 405.384ZM736.956 414.904L737.948 413.496C738.439 413.773 738.945 414.083 739.468 414.424C740.001 414.755 740.519 415.107 741.02 415.48C741.532 415.853 741.996 416.221 742.412 416.584C742.839 416.947 743.191 417.293 743.468 417.624L742.364 419.256C742.097 418.925 741.756 418.573 741.34 418.2C740.935 417.816 740.481 417.427 739.98 417.032C739.489 416.637 738.983 416.259 738.46 415.896C737.937 415.533 737.436 415.203 736.956 414.904ZM741.292 408.584H741.628L741.948 408.536L743.132 408.744C742.993 410.899 742.695 412.739 742.236 414.264C741.788 415.779 741.159 417.037 740.348 418.04C739.548 419.032 738.545 419.832 737.34 420.44C737.223 420.195 737.052 419.917 736.828 419.608C736.615 419.299 736.407 419.048 736.204 418.856C737.239 418.408 738.113 417.741 738.828 416.856C739.543 415.971 740.103 414.872 740.508 413.56C740.913 412.237 741.175 410.696 741.292 408.936V408.584ZM751.868 411.752L764.396 407.832L764.892 409.528L752.38 413.496L751.868 411.752ZM763.788 408.104H763.66L764.012 407.864L764.396 407.608L765.756 408.2L765.66 408.536C765.639 410.04 765.596 411.272 765.532 412.232C765.468 413.192 765.356 413.901 765.196 414.36C765.057 414.808 764.876 415.139 764.652 415.352C764.428 415.555 764.172 415.699 763.884 415.784C763.607 415.859 763.276 415.907 762.892 415.928C762.508 415.949 762.167 415.955 761.868 415.944C761.857 415.795 761.825 415.613 761.772 415.4C761.729 415.176 761.676 414.957 761.612 414.744C761.548 414.52 761.479 414.333 761.404 414.184C761.639 414.205 761.889 414.221 762.156 414.232C762.423 414.232 762.625 414.232 762.764 414.232C762.935 414.232 763.079 414.189 763.196 414.104C763.313 414.019 763.415 413.832 763.5 413.544C763.607 413.192 763.676 412.573 763.708 411.688C763.751 410.792 763.777 409.597 763.788 408.104ZM758.988 405.432H760.892V416.824H758.988V405.432ZM754.62 406.52H756.508V417.016C756.508 417.411 756.545 417.704 756.62 417.896C756.705 418.088 756.876 418.216 757.132 418.28C757.399 418.344 757.788 418.376 758.3 418.376C758.449 418.376 758.684 418.376 759.004 418.376C759.335 418.376 759.703 418.376 760.108 418.376C760.513 418.376 760.919 418.376 761.324 418.376C761.74 418.376 762.113 418.376 762.444 418.376C762.775 418.376 763.02 418.376 763.18 418.376C763.66 418.376 764.023 418.317 764.268 418.2C764.513 418.072 764.695 417.827 764.812 417.464C764.929 417.091 765.025 416.552 765.1 415.848C765.335 415.997 765.623 416.147 765.964 416.296C766.316 416.435 766.625 416.531 766.892 416.584C766.785 417.469 766.62 418.168 766.396 418.68C766.172 419.192 765.82 419.56 765.34 419.784C764.86 420.008 764.188 420.12 763.324 420.12C763.207 420.12 763.015 420.12 762.748 420.12C762.492 420.12 762.193 420.12 761.852 420.12C761.511 420.12 761.153 420.12 760.78 420.12C760.417 420.12 760.065 420.12 759.724 420.12C759.393 420.12 759.1 420.12 758.844 420.12C758.588 420.12 758.401 420.12 758.284 420.12C757.345 420.12 756.609 420.029 756.076 419.848C755.543 419.677 755.164 419.368 754.94 418.92C754.727 418.461 754.62 417.821 754.62 417V406.52ZM636.069 431.528H648.309V433.448H636.069V431.528ZM634.837 435.72H649.461V437.672H634.837V435.72ZM641.029 429.384H643.061V436.824H641.029V429.384ZM639.621 436.952L641.909 437.56C641.643 438.189 641.355 438.829 641.045 439.48C640.747 440.131 640.443 440.755 640.133 441.352C639.835 441.949 639.541 442.477 639.253 442.936L637.477 442.36C637.669 441.987 637.867 441.576 638.069 441.128C638.283 440.68 638.48 440.216 638.661 439.736C638.853 439.256 639.029 438.781 639.189 438.312C639.36 437.832 639.504 437.379 639.621 436.952ZM635.429 441.896C636.219 441.864 637.088 441.827 638.037 441.784C638.997 441.741 640.011 441.693 641.077 441.64C642.144 441.587 643.227 441.533 644.325 441.48C645.424 441.416 646.507 441.352 647.573 441.288L647.525 443.224C646.128 443.32 644.715 443.411 643.285 443.496C641.867 443.592 640.507 443.672 639.205 443.736C637.915 443.811 636.752 443.88 635.717 443.944L635.429 441.896ZM644.053 439.288L645.877 438.488C646.336 439 646.789 439.56 647.237 440.168C647.696 440.776 648.112 441.379 648.485 441.976C648.869 442.573 649.179 443.112 649.413 443.592L647.477 444.6C647.275 444.109 646.987 443.555 646.613 442.936C646.24 442.317 645.829 441.693 645.381 441.064C644.944 440.424 644.501 439.832 644.053 439.288ZM650.533 437.528C651.035 437.421 651.595 437.299 652.213 437.16C652.843 437.021 653.504 436.867 654.197 436.696C654.901 436.515 655.595 436.339 656.277 436.168L656.501 437.928C655.563 438.184 654.613 438.44 653.653 438.696C652.693 438.952 651.819 439.176 651.029 439.368L650.533 437.528ZM650.741 432.456H656.341V434.232H650.741V432.456ZM652.741 429.4H654.613V442.28C654.613 442.739 654.56 443.096 654.453 443.352C654.357 443.619 654.171 443.821 653.893 443.96C653.627 444.099 653.291 444.189 652.885 444.232C652.491 444.285 652.011 444.312 651.445 444.312C651.424 444.067 651.36 443.773 651.253 443.432C651.147 443.101 651.035 442.813 650.917 442.568C651.237 442.579 651.541 442.584 651.829 442.584C652.117 442.584 652.315 442.584 652.421 442.584C652.539 442.584 652.619 442.563 652.661 442.52C652.715 442.467 652.741 442.387 652.741 442.28V429.4ZM656.501 433.672L665.269 432.824L665.445 434.6L656.693 435.496L656.501 433.672ZM660.885 430.504L662.341 429.56C662.587 429.795 662.843 430.051 663.109 430.328C663.387 430.605 663.648 430.883 663.893 431.16C664.149 431.427 664.357 431.667 664.517 431.88L662.965 432.952C662.827 432.739 662.635 432.488 662.389 432.2C662.155 431.912 661.904 431.619 661.637 431.32C661.371 431.021 661.12 430.749 660.885 430.504ZM658.325 429.48H660.277C660.309 430.867 660.368 432.179 660.453 433.416C660.549 434.653 660.677 435.784 660.837 436.808C661.008 437.821 661.216 438.707 661.461 439.464C661.707 440.221 661.995 440.819 662.325 441.256C662.656 441.693 663.029 441.944 663.445 442.008C663.637 442.029 663.781 441.837 663.877 441.432C663.984 441.027 664.069 440.397 664.133 439.544C664.261 439.683 664.427 439.827 664.629 439.976C664.832 440.125 665.035 440.264 665.237 440.392C665.44 440.509 665.605 440.6 665.733 440.664C665.595 441.656 665.413 442.424 665.189 442.968C664.965 443.501 664.709 443.864 664.421 444.056C664.144 444.248 663.851 444.328 663.541 444.296C662.752 444.221 662.075 443.939 661.509 443.448C660.944 442.957 660.469 442.285 660.085 441.432C659.701 440.579 659.387 439.555 659.141 438.36C658.907 437.165 658.725 435.821 658.597 434.328C658.469 432.835 658.379 431.219 658.325 429.48ZM663.189 435.224L664.757 436.2C664.277 437.256 663.653 438.28 662.885 439.272C662.128 440.253 661.275 441.149 660.325 441.96C659.376 442.76 658.379 443.411 657.333 443.912C657.163 443.656 656.933 443.389 656.645 443.112C656.357 442.845 656.075 442.616 655.797 442.424C656.608 442.104 657.387 441.693 658.133 441.192C658.88 440.691 659.573 440.125 660.213 439.496C660.853 438.856 661.424 438.173 661.925 437.448C662.437 436.723 662.859 435.981 663.189 435.224ZM666.533 437.528C667.035 437.421 667.595 437.299 668.213 437.16C668.843 437.021 669.504 436.867 670.197 436.696C670.901 436.515 671.595 436.339 672.277 436.168L672.501 437.928C671.563 438.184 670.613 438.44 669.653 438.696C668.693 438.952 667.819 439.176 667.029 439.368L666.533 437.528ZM666.741 432.456H672.341V434.232H666.741V432.456ZM668.741 429.4H670.613V442.28C670.613 442.739 670.56 443.096 670.453 443.352C670.357 443.619 670.171 443.821 669.893 443.96C669.627 444.099 669.291 444.189 668.885 444.232C668.491 444.285 668.011 444.312 667.445 444.312C667.424 444.067 667.36 443.773 667.253 443.432C667.147 443.101 667.035 442.813 666.917 442.568C667.237 442.579 667.541 442.584 667.829 442.584C668.117 442.584 668.315 442.584 668.421 442.584C668.539 442.584 668.619 442.563 668.661 442.52C668.715 442.467 668.741 442.387 668.741 442.28V429.4ZM672.501 433.672L681.269 432.824L681.445 434.6L672.693 435.496L672.501 433.672ZM676.885 430.504L678.341 429.56C678.587 429.795 678.843 430.051 679.109 430.328C679.387 430.605 679.648 430.883 679.893 431.16C680.149 431.427 680.357 431.667 680.517 431.88L678.965 432.952C678.827 432.739 678.635 432.488 678.389 432.2C678.155 431.912 677.904 431.619 677.637 431.32C677.371 431.021 677.12 430.749 676.885 430.504ZM674.325 429.48H676.277C676.309 430.867 676.368 432.179 676.453 433.416C676.549 434.653 676.677 435.784 676.837 436.808C677.008 437.821 677.216 438.707 677.461 439.464C677.707 440.221 677.995 440.819 678.325 441.256C678.656 441.693 679.029 441.944 679.445 442.008C679.637 442.029 679.781 441.837 679.877 441.432C679.984 441.027 680.069 440.397 680.133 439.544C680.261 439.683 680.427 439.827 680.629 439.976C680.832 440.125 681.035 440.264 681.237 440.392C681.44 440.509 681.605 440.6 681.733 440.664C681.595 441.656 681.413 442.424 681.189 442.968C680.965 443.501 680.709 443.864 680.421 444.056C680.144 444.248 679.851 444.328 679.541 444.296C678.752 444.221 678.075 443.939 677.509 443.448C676.944 442.957 676.469 442.285 676.085 441.432C675.701 440.579 675.387 439.555 675.141 438.36C674.907 437.165 674.725 435.821 674.597 434.328C674.469 432.835 674.379 431.219 674.325 429.48ZM679.189 435.224L680.757 436.2C680.277 437.256 679.653 438.28 678.885 439.272C678.128 440.253 677.275 441.149 676.325 441.96C675.376 442.76 674.379 443.411 673.333 443.912C673.163 443.656 672.933 443.389 672.645 443.112C672.357 442.845 672.075 442.616 671.797 442.424C672.608 442.104 673.387 441.693 674.133 441.192C674.88 440.691 675.573 440.125 676.213 439.496C676.853 438.856 677.424 438.173 677.925 437.448C678.437 436.723 678.859 435.981 679.189 435.224ZM689.333 429.464L691.221 429.896C690.997 430.728 690.725 431.555 690.405 432.376C690.085 433.187 689.733 433.949 689.349 434.664C688.976 435.368 688.576 435.987 688.149 436.52C688.032 436.403 687.877 436.264 687.685 436.104C687.504 435.944 687.312 435.789 687.109 435.64C686.917 435.48 686.747 435.352 686.597 435.256C687.013 434.797 687.392 434.259 687.733 433.64C688.075 433.021 688.379 432.355 688.645 431.64C688.923 430.925 689.152 430.2 689.333 429.464ZM688.885 436.568L690.757 436.952C690.608 437.635 690.416 438.307 690.181 438.968C689.957 439.619 689.707 440.237 689.429 440.824C689.152 441.4 688.864 441.907 688.565 442.344C688.448 442.237 688.288 442.12 688.085 441.992C687.883 441.853 687.675 441.725 687.461 441.608C687.259 441.48 687.083 441.379 686.933 441.304C687.392 440.739 687.787 440.029 688.117 439.176C688.448 438.323 688.704 437.453 688.885 436.568ZM689.685 432.28H696.261V434.056H688.981L689.685 432.28ZM691.525 433.064H693.429V442.296C693.429 442.744 693.381 443.112 693.285 443.4C693.189 443.688 692.992 443.912 692.693 444.072C692.416 444.221 692.08 444.323 691.685 444.376C691.301 444.429 690.848 444.456 690.325 444.456C690.293 444.168 690.208 443.837 690.069 443.464C689.941 443.091 689.808 442.776 689.669 442.52C690.011 442.531 690.331 442.536 690.629 442.536C690.939 442.536 691.147 442.536 691.253 442.536C691.349 442.536 691.419 442.52 691.461 442.488C691.504 442.445 691.525 442.371 691.525 442.264V433.064ZM694.005 436.984L695.717 436.408C696.005 436.963 696.267 437.555 696.501 438.184C696.736 438.803 696.939 439.416 697.109 440.024C697.28 440.621 697.403 441.16 697.477 441.64L695.637 442.28C695.573 441.811 695.461 441.267 695.301 440.648C695.152 440.029 694.965 439.405 694.741 438.776C694.517 438.136 694.272 437.539 694.005 436.984ZM695.733 432.28H695.989L696.293 432.216L697.653 432.472C697.557 433.123 697.445 433.795 697.317 434.488C697.189 435.171 697.067 435.752 696.949 436.232L695.317 435.928C695.36 435.64 695.408 435.304 695.461 434.92C695.515 434.536 695.568 434.136 695.621 433.72C695.675 433.293 695.712 432.893 695.733 432.52V432.28ZM685.909 429.464L687.717 430.04C687.376 430.936 686.971 431.843 686.501 432.76C686.032 433.667 685.525 434.531 684.981 435.352C684.437 436.163 683.872 436.872 683.285 437.48C683.232 437.32 683.141 437.117 683.013 436.872C682.896 436.616 682.768 436.36 682.629 436.104C682.491 435.848 682.368 435.64 682.261 435.48C682.741 434.989 683.205 434.424 683.653 433.784C684.112 433.144 684.533 432.456 684.917 431.72C685.312 430.984 685.643 430.232 685.909 429.464ZM684.373 433.896L686.197 432.072V432.088V444.408H684.373V433.896ZM701.973 442.712H710.421V444.008H701.973V442.712ZM700.789 440.456H711.605V444.424H709.637V441.736H702.677V444.44H700.789V440.456ZM699.317 430.36H712.949V431.72H699.317V430.36ZM700.405 432.376H711.989V433.704H700.405V432.376ZM698.757 438.424H713.461V439.88H698.757V438.424ZM705.077 429.384H707.045V432.872H705.077V429.384ZM702.069 437.592L703.829 437.16C703.979 437.363 704.112 437.597 704.229 437.864C704.357 438.131 704.443 438.365 704.485 438.568L702.661 439.08C702.619 438.877 702.539 438.637 702.421 438.36C702.315 438.072 702.197 437.816 702.069 437.592ZM708.261 437.128L710.389 437.432C710.197 437.752 710 438.051 709.797 438.328C709.605 438.595 709.435 438.824 709.285 439.016L707.621 438.68C707.749 438.435 707.872 438.173 707.989 437.896C708.107 437.608 708.197 437.352 708.261 437.128ZM702.933 435.432V436.248H709.349V435.432H702.933ZM701.109 434.248H711.285V437.416H701.109V434.248ZM714.757 431.128H719.829V432.808H714.757V431.128ZM719.317 431.128H719.637L719.941 431.048L721.109 431.448C720.885 433.272 720.523 434.936 720.021 436.44C719.531 437.933 718.917 439.256 718.181 440.408C717.445 441.549 716.597 442.509 715.637 443.288C715.488 443.064 715.285 442.808 715.029 442.52C714.784 442.232 714.555 442.008 714.341 441.848C714.981 441.389 715.573 440.803 716.117 440.088C716.661 439.373 717.147 438.568 717.573 437.672C718 436.765 718.363 435.795 718.661 434.76C718.96 433.715 719.179 432.632 719.317 431.512V431.128ZM714.693 434.584L716.037 433.512C716.475 434.077 716.928 434.685 717.397 435.336C717.867 435.976 718.325 436.621 718.773 437.272C719.232 437.923 719.648 438.552 720.021 439.16C720.405 439.757 720.709 440.301 720.933 440.792L719.429 442.072C719.216 441.571 718.928 441.011 718.565 440.392C718.203 439.773 717.803 439.128 717.365 438.456C716.939 437.784 716.496 437.117 716.037 436.456C715.579 435.784 715.131 435.16 714.693 434.584ZM722.997 431.656H728.021V433.384H722.997V431.656ZM722.437 429.432L724.261 429.656C724.091 431.043 723.835 432.349 723.493 433.576C723.152 434.792 722.693 435.805 722.117 436.616C722.011 436.52 721.861 436.403 721.669 436.264C721.488 436.125 721.301 435.987 721.109 435.848C720.917 435.709 720.747 435.603 720.597 435.528C720.96 435.059 721.259 434.504 721.493 433.864C721.739 433.224 721.936 432.525 722.085 431.768C722.245 431.011 722.363 430.232 722.437 429.432ZM727.637 431.656H727.925L728.213 431.592L729.509 431.944C729.349 432.68 729.152 433.421 728.917 434.168C728.683 434.915 728.448 435.555 728.213 436.088L726.709 435.576C726.827 435.267 726.944 434.909 727.061 434.504C727.179 434.088 727.285 433.656 727.381 433.208C727.488 432.76 727.573 432.339 727.637 431.944V431.656ZM725.525 435.448C725.707 436.579 725.968 437.629 726.309 438.6C726.651 439.571 727.104 440.419 727.669 441.144C728.245 441.859 728.965 442.413 729.829 442.808C729.701 442.936 729.557 443.091 729.397 443.272C729.237 443.464 729.083 443.661 728.933 443.864C728.795 444.077 728.683 444.269 728.597 444.44C727.648 443.917 726.869 443.235 726.261 442.392C725.653 441.549 725.168 440.563 724.805 439.432C724.453 438.291 724.171 437.037 723.957 435.672L725.525 435.448ZM723.893 434.136H725.717V435.384C725.717 436.024 725.669 436.733 725.573 437.512C725.477 438.28 725.275 439.075 724.965 439.896C724.667 440.717 724.208 441.517 723.589 442.296C722.981 443.075 722.149 443.789 721.093 444.44C721.008 444.301 720.885 444.147 720.725 443.976C720.565 443.816 720.395 443.651 720.213 443.48C720.043 443.32 719.883 443.192 719.733 443.096C720.693 442.531 721.451 441.912 722.005 441.24C722.571 440.568 722.987 439.885 723.253 439.192C723.52 438.488 723.691 437.805 723.765 437.144C723.851 436.483 723.893 435.885 723.893 435.352V434.136ZM732.405 432.008H737.317V442.776H732.405V441.096H735.589V433.672H732.405V432.008ZM731.285 432.008H733.029V443.96H731.285V432.008ZM732.341 436.28H736.421V437.944H732.341V436.28ZM733.573 429.4L735.653 429.704C735.483 430.248 735.296 430.787 735.093 431.32C734.901 431.853 734.725 432.307 734.565 432.68L733.029 432.328C733.104 432.051 733.173 431.741 733.237 431.4C733.312 431.059 733.381 430.712 733.445 430.36C733.509 430.008 733.552 429.688 733.573 429.4ZM739.429 431.88H744.117V433.64H739.429V431.88ZM743.445 431.88H745.221C745.221 431.88 745.221 431.939 745.221 432.056C745.221 432.163 745.221 432.285 745.221 432.424C745.221 432.563 745.216 432.669 745.205 432.744C745.163 434.547 745.109 436.077 745.045 437.336C744.992 438.584 744.923 439.619 744.837 440.44C744.763 441.251 744.672 441.885 744.565 442.344C744.459 442.803 744.32 443.139 744.149 443.352C743.936 443.661 743.707 443.875 743.461 443.992C743.216 444.109 742.933 444.195 742.613 444.248C742.304 444.291 741.92 444.307 741.461 444.296C741.013 444.296 740.555 444.291 740.085 444.28C740.075 444.013 740.011 443.699 739.893 443.336C739.776 442.984 739.632 442.675 739.461 442.408C739.973 442.451 740.448 442.477 740.885 442.488C741.333 442.499 741.659 442.504 741.861 442.504C742.021 442.504 742.149 442.488 742.245 442.456C742.352 442.413 742.453 442.339 742.549 442.232C742.688 442.093 742.8 441.811 742.885 441.384C742.981 440.947 743.061 440.333 743.125 439.544C743.189 438.755 743.248 437.757 743.301 436.552C743.355 435.347 743.403 433.912 743.445 432.248V431.88ZM739.477 429.416L741.333 429.848C741.131 430.627 740.88 431.405 740.581 432.184C740.293 432.963 739.973 433.699 739.621 434.392C739.28 435.075 738.928 435.672 738.565 436.184C738.459 436.077 738.304 435.955 738.101 435.816C737.909 435.667 737.712 435.523 737.509 435.384C737.317 435.245 737.147 435.139 736.997 435.064C737.349 434.605 737.68 434.077 737.989 433.48C738.309 432.872 738.592 432.221 738.837 431.528C739.093 430.824 739.307 430.12 739.477 429.416ZM738.693 436.504L740.197 435.656C740.464 436.019 740.747 436.419 741.045 436.856C741.344 437.293 741.627 437.72 741.893 438.136C742.16 438.552 742.379 438.92 742.549 439.24L740.917 440.232C740.768 439.901 740.565 439.523 740.309 439.096C740.064 438.669 739.797 438.232 739.509 437.784C739.232 437.325 738.96 436.899 738.693 436.504ZM747.637 432.424H760.549V434.312H747.637V432.424ZM748.485 437.096H759.797V438.952H748.485V437.096ZM746.949 442.04H761.349V443.928H746.949V442.04ZM753.061 434.056H755.173V443.048H753.061V434.056ZM751.637 430.488L753.237 429.384C753.579 429.597 753.941 429.848 754.325 430.136C754.72 430.424 755.093 430.712 755.445 431C755.808 431.288 756.101 431.56 756.325 431.816L754.613 433.048C754.421 432.803 754.155 432.531 753.813 432.232C753.483 431.923 753.125 431.619 752.741 431.32C752.357 431.011 751.989 430.733 751.637 430.488ZM765.253 433.288V434.04H767.621V433.288H765.253ZM765.253 431.32V432.072H767.621V431.32H765.253ZM763.557 430.024H769.397V435.336H763.557V430.024ZM762.821 436.264H770.085V437.656H762.821V436.264ZM770.037 430.056H777.557V431.576H770.037V430.056ZM765.813 436.712H767.429V443.144L765.813 442.216V436.712ZM766.645 438.952H769.749V440.344H766.645V438.952ZM773.045 430.424L774.965 430.84C774.752 431.299 774.539 431.752 774.325 432.2C774.123 432.637 773.936 433.011 773.765 433.32L772.261 432.92C772.411 432.568 772.56 432.157 772.709 431.688C772.859 431.219 772.971 430.797 773.045 430.424ZM764.837 439.624C765.072 440.296 765.365 440.829 765.717 441.224C766.08 441.619 766.512 441.917 767.013 442.12C767.525 442.323 768.107 442.456 768.757 442.52C769.419 442.573 770.155 442.6 770.965 442.6C771.179 442.6 771.504 442.6 771.941 442.6C772.379 442.6 772.875 442.6 773.429 442.6C773.984 442.6 774.539 442.6 775.093 442.6C775.648 442.589 776.16 442.579 776.629 442.568C777.099 442.557 777.461 442.552 777.717 442.552C777.589 442.723 777.461 442.968 777.333 443.288C777.216 443.608 777.136 443.885 777.093 444.12H775.877H770.949C769.968 444.12 769.088 444.072 768.309 443.976C767.531 443.88 766.848 443.688 766.261 443.4C765.675 443.123 765.173 442.707 764.757 442.152C764.341 441.597 763.989 440.867 763.701 439.96L764.837 439.624ZM770.533 432.728H776.949V439.336H775.333V434.088H772.101V439.432H770.533V432.728ZM763.621 438.216L765.173 438.328C765.12 439.597 764.997 440.755 764.805 441.8C764.613 442.835 764.267 443.709 763.765 444.424C763.669 444.349 763.536 444.253 763.365 444.136C763.205 444.019 763.04 443.907 762.869 443.8C762.699 443.693 762.555 443.608 762.437 443.544C762.907 442.936 763.216 442.173 763.365 441.256C763.515 440.328 763.6 439.315 763.621 438.216ZM772.997 434.728H774.565C774.544 435.816 774.48 436.781 774.373 437.624C774.277 438.456 774.085 439.187 773.797 439.816C773.52 440.435 773.099 440.968 772.533 441.416C771.968 441.853 771.211 442.221 770.261 442.52C770.187 442.328 770.059 442.109 769.877 441.864C769.707 441.608 769.547 441.411 769.397 441.272C770.219 441.027 770.869 440.728 771.349 440.376C771.829 440.013 772.181 439.576 772.405 439.064C772.629 438.552 772.779 437.939 772.853 437.224C772.928 436.509 772.976 435.677 772.997 434.728ZM773.813 440.296L774.853 439.256C775.152 439.459 775.472 439.688 775.813 439.944C776.165 440.2 776.501 440.456 776.821 440.712C777.141 440.968 777.408 441.192 777.621 441.384L776.501 442.568C776.309 442.365 776.059 442.131 775.749 441.864C775.44 441.597 775.115 441.325 774.773 441.048C774.432 440.771 774.112 440.52 773.813 440.296ZM780.325 430.792H783.957V440.248H780.325V438.472H782.197V432.552H780.325V430.792ZM779.173 430.792H780.917V441.656H779.173V430.792ZM784.965 430.36H786.853V441.288C786.853 441.619 786.875 441.864 786.917 442.024C786.971 442.184 787.072 442.291 787.221 442.344C787.381 442.387 787.616 442.408 787.925 442.408C788.021 442.408 788.165 442.408 788.357 442.408C788.56 442.408 788.784 442.408 789.029 442.408C789.285 442.408 789.536 442.408 789.781 442.408C790.037 442.408 790.267 442.408 790.469 442.408C790.672 442.408 790.821 442.408 790.917 442.408C791.195 442.408 791.403 442.355 791.541 442.248C791.691 442.141 791.797 441.944 791.861 441.656C791.936 441.357 791.995 440.936 792.037 440.392C792.251 440.552 792.523 440.701 792.853 440.84C793.195 440.979 793.499 441.075 793.765 441.128C793.691 441.885 793.557 442.488 793.365 442.936C793.184 443.373 792.912 443.688 792.549 443.88C792.197 444.083 791.712 444.184 791.093 444.184C790.976 444.184 790.805 444.184 790.581 444.184C790.357 444.184 790.101 444.184 789.813 444.184C789.536 444.184 789.253 444.184 788.965 444.184C788.688 444.184 788.437 444.184 788.213 444.184C787.989 444.184 787.829 444.184 787.733 444.184C787.04 444.184 786.491 444.104 786.085 443.944C785.68 443.784 785.392 443.496 785.221 443.08C785.051 442.664 784.965 442.067 784.965 441.288V430.36ZM785.877 430.36H793.109V439.224H791.237V432.12H785.877V430.36ZM785.813 436.536H791.941V438.28H785.813V436.536ZM788.133 431.064H789.861V437.048H788.133V431.064ZM795.373 439.756C795.354 439.066 795.445 438.492 795.646 438.034C795.85 437.576 796.134 437.233 796.498 437.006C796.865 436.775 797.286 436.659 797.759 436.659C798.127 436.659 798.471 436.737 798.793 436.892C799.115 437.044 799.485 437.303 799.901 437.67C800.14 437.875 800.337 438.028 800.492 438.131C800.647 438.233 800.826 438.284 801.026 438.284C801.314 438.284 801.547 438.174 801.725 437.955C801.907 437.731 801.992 437.394 801.981 436.943H803.629C803.647 437.629 803.553 438.201 803.344 438.659C803.14 439.117 802.854 439.462 802.487 439.693C802.119 439.92 801.704 440.034 801.242 440.034C800.863 440.034 800.511 439.955 800.185 439.795C799.86 439.636 799.494 439.381 799.089 439.028C798.839 438.809 798.638 438.652 798.487 438.557C798.339 438.462 798.166 438.415 797.969 438.415C797.693 438.415 797.462 438.519 797.276 438.727C797.094 438.932 797.007 439.275 797.015 439.756H795.373Z" fill="#9E9EAC"/>
<path d="M726.493 295.413C726.493 295.926 726.29 296.418 725.927 296.78C725.564 297.143 725.073 297.346 724.56 297.346C724.047 297.346 723.555 297.143 723.193 296.78C722.83 296.418 722.627 295.926 722.627 295.413C722.627 294.9 722.83 294.409 723.193 294.046C723.555 293.684 724.047 293.48 724.56 293.48C725.073 293.48 725.564 293.684 725.927 294.046C726.29 294.409 726.493 294.9 726.493 295.413ZM733.581 297.347C734.094 297.347 734.586 297.143 734.948 296.781C735.311 296.418 735.515 295.926 735.515 295.414C735.515 294.901 735.311 294.409 734.948 294.047C734.586 293.684 734.094 293.48 733.581 293.48C733.069 293.48 732.577 293.684 732.214 294.047C731.852 294.409 731.648 294.901 731.648 295.414C731.648 295.926 731.852 296.418 732.214 296.781C732.577 297.143 733.069 297.347 733.581 297.347ZM744.536 295.413C744.536 295.926 744.333 296.418 743.97 296.78C743.607 297.143 743.116 297.346 742.603 297.346C742.09 297.346 741.599 297.143 741.236 296.78C740.873 296.418 740.67 295.926 740.67 295.413C740.67 294.9 740.873 294.409 741.236 294.046C741.599 293.684 742.09 293.48 742.603 293.48C743.116 293.48 743.607 293.684 743.97 294.046C744.333 294.409 744.536 294.9 744.536 295.413Z" fill="#A4A3B6"/>
<path d="M733.677 278.015C724.068 278.015 716.278 285.805 716.278 295.414C716.278 301 718.912 305.972 723.002 309.154C722.653 309.611 722.114 310.106 721.391 310.592C720.281 311.339 718.945 311.921 717.803 312.207C717.528 312.275 717.282 312.432 717.105 312.655C716.929 312.877 716.83 313.151 716.825 313.435C716.821 313.719 716.91 313.997 717.079 314.225C717.249 314.453 717.489 314.619 717.762 314.696C720.254 315.408 723.198 315.394 725.762 314.942C727.053 314.714 728.284 314.369 729.346 313.925C730.149 313.589 730.904 313.177 731.518 312.68C732.226 312.767 732.947 312.812 733.677 312.812C743.286 312.812 751.076 305.023 751.076 295.414C751.076 285.805 743.286 278.015 733.677 278.015ZM718.856 295.413C718.856 287.228 725.491 280.592 733.677 280.592C741.862 280.592 748.498 287.228 748.498 295.413C748.498 303.599 741.862 310.234 733.677 310.234C732.868 310.234 732.076 310.17 731.304 310.046C731.097 310.012 730.885 310.03 730.686 310.097C730.488 310.164 730.309 310.279 730.164 310.431C729.829 310.785 729.226 311.181 728.352 311.547C727.495 311.905 726.452 312.203 725.315 312.403C724.536 312.54 723.731 312.63 722.927 312.665C724.203 311.789 725.446 310.59 725.888 309.137C725.968 308.874 725.962 308.592 725.87 308.332C725.778 308.073 725.606 307.849 725.378 307.695C721.44 305.028 718.856 300.522 718.856 295.413ZM725.3 328.922C725.3 329.435 725.096 329.927 724.733 330.289C724.371 330.652 723.879 330.856 723.366 330.856C722.854 330.856 722.362 330.652 721.999 330.289C721.637 329.927 721.433 329.435 721.433 328.922C721.433 328.41 721.637 327.918 721.999 327.555C722.362 327.193 722.854 326.989 723.366 326.989C723.879 326.989 724.371 327.193 724.733 327.555C725.096 327.918 725.3 328.41 725.3 328.922Z" fill="#A4A3B6"/>
<path d="M716.922 324.412L751.076 328.278L760.097 344.388L751.076 347.134V368.926C757.493 370.63 761.386 372.868 761.386 375.319C761.386 380.658 742.921 384.985 720.144 384.985C697.367 384.985 678.903 380.658 678.903 375.319C678.903 373.409 681.267 371.628 685.347 370.129V347.334L677.614 345.677L685.347 329.567L716.922 324.412ZM716.954 325.712L689.568 330.184L720.144 334.296L743.163 328.679L716.954 325.712ZM713.7 353.41L686.635 347.61V369.767L720.144 376.947V337.837L713.7 353.41ZM679.484 344.76L712.92 351.924L719.608 335.763L686.1 330.976L679.484 344.76ZM703.39 303.79C703.048 303.791 702.72 303.926 702.479 304.168C702.237 304.41 702.101 304.738 702.101 305.079V307.657H699.523C699.185 307.663 698.863 307.801 698.626 308.042C698.389 308.284 698.256 308.608 698.256 308.946C698.256 309.284 698.389 309.609 698.626 309.85C698.863 310.091 699.185 310.229 699.523 310.235H702.101V312.813C702.098 312.984 702.129 313.154 702.193 313.313C702.256 313.472 702.351 313.616 702.471 313.738C702.591 313.86 702.734 313.957 702.892 314.024C703.049 314.09 703.219 314.124 703.39 314.124C703.561 314.124 703.73 314.09 703.888 314.024C704.046 313.957 704.189 313.86 704.309 313.738C704.429 313.616 704.524 313.472 704.587 313.313C704.65 313.154 704.682 312.984 704.679 312.813V310.235H707.257C707.598 310.235 707.926 310.099 708.168 309.857C708.409 309.615 708.545 309.288 708.545 308.946C708.545 308.604 708.409 308.276 708.168 308.035C707.926 307.793 707.598 307.657 707.257 307.657H704.679V305.079C704.679 304.738 704.543 304.41 704.301 304.168C704.059 303.927 703.732 303.791 703.39 303.791V303.79ZM733.032 320.545C733.032 320.374 732.964 320.211 732.843 320.09C732.723 319.969 732.559 319.901 732.388 319.901C732.217 319.901 732.053 319.969 731.932 320.09C731.811 320.211 731.744 320.374 731.744 320.545V321.834H730.455C730.37 321.834 730.286 321.851 730.208 321.883C730.13 321.916 730.059 321.963 729.999 322.023C729.939 322.083 729.892 322.154 729.859 322.232C729.827 322.31 729.81 322.394 729.81 322.479C729.81 322.563 729.827 322.647 729.859 322.725C729.892 322.803 729.939 322.874 729.999 322.934C730.059 322.994 730.13 323.041 730.208 323.074C730.286 323.106 730.37 323.123 730.455 323.123H731.744V324.412C731.749 324.579 731.82 324.737 731.94 324.853C732.06 324.969 732.221 325.034 732.388 325.034C732.555 325.034 732.716 324.969 732.836 324.853C732.956 324.737 733.026 324.579 733.032 324.412V323.123H734.321C734.406 323.123 734.49 323.106 734.568 323.074C734.646 323.041 734.717 322.994 734.777 322.934C734.837 322.874 734.884 322.803 734.917 322.725C734.949 322.647 734.966 322.563 734.966 322.479C734.966 322.394 734.949 322.31 734.917 322.232C734.884 322.154 734.837 322.083 734.777 322.023C734.717 321.963 734.646 321.916 734.568 321.883C734.49 321.851 734.406 321.834 734.321 321.834H733.032V320.545ZM690.502 314.101C690.332 314.101 690.165 314.068 690.008 314.003C689.852 313.939 689.71 313.844 689.59 313.724C689.47 313.604 689.375 313.462 689.311 313.306C689.246 313.149 689.212 312.982 689.212 312.812C689.212 312.643 689.246 312.475 689.311 312.319C689.375 312.163 689.47 312.02 689.59 311.901C689.71 311.781 689.852 311.686 690.008 311.621C690.165 311.557 690.332 311.523 690.502 311.523C690.844 311.523 691.171 311.659 691.413 311.901C691.655 312.143 691.79 312.471 691.79 312.812C691.79 313.154 691.655 313.482 691.413 313.724C691.171 313.965 690.844 314.101 690.502 314.101Z" fill="#A4A3B6"/>
<defs>
<linearGradient id="paint0_linear_347_305" x1="720" y1="0" x2="720" y2="810" gradientUnits="userSpaceOnUse">
<stop stop-color="#050505"/>
<stop offset="1" stop-color="#2A2720"/>
</linearGradient>
<linearGradient id="paint1_linear_347_305" x1="42" y1="58" x2="74" y2="58" gradientUnits="userSpaceOnUse">
<stop stop-color="#4586FF"/>
<stop offset="1" stop-color="#FF90A9"/>
</linearGradient>
<linearGradient id="paint2_linear_347_305" x1="896" y1="58" x2="992" y2="58" gradientUnits="userSpaceOnUse">
<stop stop-color="#4586FF"/>
<stop offset="1" stop-color="#FF90A9"/>
</linearGradient>
</defs>
</svg>
