<svg width="24" height="24" viewBox="0 0 24 24" fill="none" xmlns="http://www.w3.org/2000/svg">
<path d="M12 15C13.6569 15 15 13.6569 15 12C15 10.3431 13.6569 9 12 9C10.3431 9 9 10.3431 9 12C9 13.6569 10.3431 15 12 15Z" stroke="#A4A3B6" stroke-width="2" stroke-linecap="round" stroke-linejoin="round"/>
<path d="M19.4 15C19.2669 15.3016 19.2272 15.6362 19.2862 15.9606C19.3452 16.285 19.4995 16.5843 19.73 16.82L19.79 16.88C19.976 17.0659 20.1235 17.2864 20.2238 17.5284C20.3241 17.7704 20.375 18.0291 20.3736 18.29C20.3722 18.5509 20.3186 18.8091 20.216 19.0501C20.1134 19.2911 19.9636 19.5101 19.7757 19.694C19.5878 19.8779 19.3657 20.0227 19.1226 20.12C18.8795 20.2172 18.6196 20.2646 18.3575 20.2593C18.0954 20.254 17.8366 20.1961 17.5955 20.0889C17.3545 19.9818 17.136 19.8272 16.952 19.634L16.89 19.57C16.6536 19.3395 16.3544 19.1853 16.0301 19.1262C15.7058 19.0672 15.3713 19.1069 15.07 19.24C14.7737 19.3692 14.5199 19.5803 14.3382 19.8487C14.1565 20.1171 14.0545 20.432 14.0435 20.756V21C14.0435 21.5304 13.8329 22.0391 13.4578 22.4142C13.0827 22.7893 12.574 23 12.0435 23C11.5131 23 11.0044 22.7893 10.6293 22.4142C10.2542 22.0391 10.0435 21.5304 10.0435 21V20.91C10.0349 20.581 9.91799 20.2626 9.70949 19.9975C9.50098 19.7324 9.21104 19.5334 8.88003 19.428C8.56109 19.2978 8.21272 19.2582 7.87278 19.3132C7.53283 19.3682 7.21488 19.5153 6.96003 19.736L6.89003 19.8C6.69165 19.986 6.45846 20.1315 6.20401 20.2284C5.94956 20.3253 5.67874 20.3715 5.40626 20.3642C5.13378 20.3569 4.8655 20.2963 4.61666 20.1857C4.36782 20.0751 4.14334 19.9167 3.9558 19.7196C3.76827 19.5225 3.62135 19.2906 3.52334 19.0371C3.42533 18.7836 3.37804 18.5131 3.38421 18.241C3.39037 17.9689 3.44989 17.7007 3.55913 17.4517C3.66837 17.2027 3.82481 16.9776 4.01903 16.789L4.08903 16.72C4.31956 16.4836 4.47379 16.1844 4.53282 15.8601C4.59185 15.5358 4.55215 15.2013 4.41903 14.9C4.29813 14.6053 4.09223 14.3533 3.82638 14.1737C3.56053 13.9942 3.24616 13.8947 2.92403 13.887H2.80003C2.26959 13.887 1.76088 13.6763 1.38581 13.3013C1.01073 12.9262 0.800049 12.4175 0.800049 11.887C0.800049 11.3566 1.01073 10.8479 1.38581 10.4728C1.76088 10.0977 2.26959 9.88704 2.80003 9.88704H2.89003C3.21902 9.87839 3.53741 9.76151 3.80249 9.553C4.06757 9.3445 4.26658 9.05455 4.37203 8.72354C4.50219 8.40461 4.54179 8.05624 4.48679 7.71629C4.43179 7.37635 4.28467 7.0584 4.06403 6.80354L4.00003 6.73354C3.81408 6.53516 3.66854 6.30196 3.57166 6.04751C3.47478 5.79306 3.42854 5.52225 3.43583 5.24976C3.44312 4.97728 3.50382 4.709 3.61442 4.46016C3.72502 4.21132 3.88338 3.98684 4.0805 3.79931C4.27762 3.61177 4.50949 3.46485 4.76298 3.36684C5.01648 3.26883 5.28698 3.22154 5.55908 3.2277C5.83118 3.23387 6.09937 3.29339 6.34838 3.40263C6.59738 3.51187 6.82248 3.66831 7.01103 3.86254L7.08103 3.93254C7.31743 4.16307 7.61669 4.3173 7.94098 4.37633C8.26528 4.43536 8.59979 4.39566 8.90103 4.26254C9.1973 4.13338 9.45109 3.9223 9.63281 3.65389C9.81452 3.38549 9.9165 3.07059 9.92753 2.74654V2.50004C9.92753 1.9696 10.1382 1.46089 10.5133 1.08582C10.8884 0.710743 11.3971 0.500061 11.9275 0.500061C12.458 0.500061 12.9667 0.710743 13.3418 1.08582C13.7168 1.46089 13.9275 1.9696 13.9275 2.50004V2.59004C13.9362 2.91903 14.053 3.23742 14.2615 3.5025C14.47 3.76758 14.76 3.96659 15.091 4.07204C15.4099 4.2022 15.7583 4.2418 16.0983 4.1868C16.4382 4.1318 16.7562 3.98468 17.011 3.76404L17.081 3.69404C17.2794 3.50809 17.5126 3.36255 17.767 3.26567C18.0215 3.16879 18.2923 3.12255 18.5648 3.12984C18.8373 3.13713 19.1056 3.19783 19.3544 3.30843C19.6032 3.41903 19.8277 3.57739 20.0152 3.77451C20.2028 3.97163 20.3497 4.2035 20.4477 4.45699C20.5457 4.71049 20.593 4.98099 20.5868 5.25309C20.5807 5.52519 20.5211 5.79338 20.4119 6.04239C20.3027 6.29139 20.1462 6.51649 19.952 6.70504L19.882 6.77504C19.6515 7.01144 19.4973 7.3107 19.4382 7.63499C19.3792 7.95928 19.4189 8.29379 19.552 8.59504C19.6812 8.8913 19.8923 9.1451 20.1607 9.32681C20.4291 9.50852 20.744 9.6105 21.068 9.62154H21.3145C21.845 9.62154 22.3537 9.83222 22.7287 10.2073C23.1038 10.5824 23.3145 11.0911 23.3145 11.6215C23.3145 12.152 23.1038 12.6607 22.7287 13.0357C22.3537 13.4108 21.845 13.6215 21.3145 13.6215H21.22C20.891 13.6301 20.5726 13.747 20.3075 13.9555C20.0424 14.164 19.8434 14.454 19.738 14.785L19.731 14.795L19.4 15Z" stroke="#A4A3B6" stroke-width="2" stroke-linecap="round" stroke-linejoin="round"/>
</svg>
