<svg width="107" height="107" viewBox="0 0 107 107" fill="none" xmlns="http://www.w3.org/2000/svg">
<path d="M60.4932 17.4132C60.4932 17.9259 60.2895 18.4177 59.927 18.7802C59.5644 19.1428 59.0727 19.3464 58.5599 19.3464C58.0472 19.3464 57.5555 19.1428 57.1929 18.7802C56.8304 18.4177 56.6267 17.9259 56.6267 17.4132C56.6267 16.9005 56.8304 16.4088 57.1929 16.0462C57.5555 15.6837 58.0472 15.48 58.5599 15.48C59.0727 15.48 59.5644 15.6837 59.927 16.0462C60.2895 16.4088 60.4932 16.9005 60.4932 17.4132ZM67.5815 19.3468C68.0942 19.3468 68.5859 19.1432 68.9485 18.7806C69.311 18.418 69.5147 17.9263 69.5147 17.4136C69.5147 16.9009 69.311 16.4091 68.9485 16.0466C68.5859 15.684 68.0942 15.4804 67.5815 15.4804C67.0687 15.4804 66.577 15.684 66.2144 16.0466C65.8519 16.4091 65.6482 16.9009 65.6482 17.4136C65.6482 17.9263 65.8519 18.418 66.2144 18.7806C66.577 19.1432 67.0687 19.3468 67.5815 19.3468ZM78.5362 17.4132C78.5362 17.9259 78.3325 18.4177 77.97 18.7802C77.6074 19.1428 77.1157 19.3464 76.603 19.3464C76.0902 19.3464 75.5985 19.1428 75.236 18.7802C74.8734 18.4177 74.6697 17.9259 74.6697 17.4132C74.6697 16.9005 74.8734 16.4088 75.236 16.0462C75.5985 15.6837 76.0902 15.48 76.603 15.48C77.1157 15.48 77.6074 15.6837 77.97 16.0462C78.3325 16.4088 78.5362 16.9005 78.5362 17.4132Z" fill="#A4A3B6"/>
<path d="M67.6769 0.0148621C58.0679 0.0148621 50.2778 7.80454 50.2778 17.4136C50.2778 23.0004 52.9125 27.9719 57.0021 31.1538C56.6529 31.6107 56.1141 32.1065 55.3914 32.5924C54.2814 33.3387 52.9452 33.9213 51.8032 34.2065C51.5276 34.2749 51.2823 34.4324 51.1054 34.6547C50.9286 34.8769 50.8301 35.1514 50.8254 35.4353C50.8206 35.7193 50.9099 35.9969 51.0792 36.2249C51.2486 36.4529 51.4885 36.6185 51.7617 36.6961C54.2536 37.4081 57.1978 37.3944 59.7624 36.942C61.0532 36.7143 62.2839 36.3693 63.3463 35.925C64.149 35.5891 64.9041 35.1767 65.5183 34.6798C66.2262 34.7674 66.9466 34.8123 67.6769 34.8123C77.286 34.8123 85.0757 27.0226 85.0757 17.4136C85.0757 7.80454 77.286 0.0148621 67.6769 0.0148621ZM52.8557 17.4132C52.8557 9.22752 59.4913 2.592 67.6769 2.592C75.8623 2.592 82.4982 9.22752 82.4982 17.4132C82.4982 25.5989 75.8623 32.2344 67.6769 32.2344C66.8682 32.2344 66.0758 32.1697 65.3039 32.0456C65.0969 32.0122 64.8849 32.0299 64.6863 32.0971C64.4877 32.1642 64.3085 32.2788 64.1642 32.4309C63.8288 32.785 63.2264 33.181 62.3517 33.5466C61.4946 33.9049 60.452 34.2027 59.3146 34.4034C58.5362 34.5404 57.7305 34.6296 56.9267 34.665C58.2034 33.7892 59.4463 32.5897 59.888 31.1374C59.9682 30.874 59.962 30.5918 59.8702 30.3323C59.7783 30.0727 59.6058 29.8493 59.3778 29.695C55.4397 27.0284 52.8557 22.5222 52.8557 17.4132ZM59.2997 50.9225C59.2997 51.4352 59.096 51.9269 58.7335 52.2895C58.3709 52.652 57.8792 52.8557 57.3665 52.8557C56.8538 52.8557 56.362 52.652 55.9995 52.2895C55.6369 51.9269 55.4332 51.4352 55.4332 50.9225C55.4332 50.4098 55.6369 49.918 55.9995 49.5555C56.362 49.1929 56.8538 48.9893 57.3665 48.9893C57.8792 48.9893 58.3709 49.1929 58.7335 49.5555C59.096 49.918 59.2997 50.4098 59.2997 50.9225Z" fill="#A4A3B6"/>
<path d="M50.9224 46.4117L85.0755 50.2782L94.0971 66.388L85.0755 69.1338V90.9256C91.4925 92.6296 95.386 94.8679 95.386 97.319C95.386 102.658 76.9215 106.985 54.1442 106.985C31.3673 106.985 12.9027 102.658 12.9027 97.319C12.9027 95.409 15.2666 93.6281 19.3467 92.1289V69.3341L11.6138 67.6769L19.3467 51.5668L50.9224 46.4117ZM50.9544 47.7121L23.5681 52.1844L54.1442 56.2965L77.1629 50.6792L50.9544 47.7121ZM47.7002 75.4099L20.6353 69.6102V91.7668L54.1442 98.9472V59.8366L47.7002 75.4099ZM13.4838 66.7596L46.9203 73.9244L53.6077 57.7633L20.0995 52.9764L13.4838 66.7596ZM37.3897 25.7904C37.0479 25.7905 36.7202 25.9264 36.4785 26.1681C36.2369 26.4098 36.1012 26.7376 36.1012 27.0794V29.6573H33.5233C33.1853 29.6631 32.8631 29.8014 32.6262 30.0425C32.3892 30.2835 32.2565 30.608 32.2565 30.946C32.2565 31.2841 32.3892 31.6085 32.6262 31.8496C32.8631 32.0907 33.1853 32.229 33.5233 32.2348H36.1012V34.8127C36.0982 34.9838 36.1294 35.1538 36.1928 35.3127C36.2563 35.4717 36.3507 35.6164 36.4707 35.7384C36.5907 35.8605 36.7337 35.9574 36.8915 36.0236C37.0494 36.0897 37.2188 36.1238 37.3899 36.1238C37.561 36.1238 37.7305 36.0897 37.8883 36.0236C38.0461 35.9574 38.1892 35.8605 38.3091 35.7384C38.4291 35.6164 38.5236 35.4717 38.587 35.3127C38.6505 35.1538 38.6816 34.9838 38.6787 34.8127V32.2348H41.2566C41.5984 32.2347 41.9261 32.0989 42.1678 31.8572C42.4094 31.6154 42.5452 31.2876 42.5452 30.9459C42.5452 30.6041 42.4094 30.2763 42.1678 30.0346C41.9261 29.7928 41.5984 29.657 41.2566 29.6569H38.6787V27.0794C38.6786 26.7376 38.5427 26.4098 38.301 26.1682C38.0593 25.9266 37.7315 25.7908 37.3897 25.7908V25.7904ZM67.0322 42.5453C67.0322 42.3744 66.9643 42.2105 66.8434 42.0897C66.7226 41.9689 66.5587 41.901 66.3879 41.901C66.217 41.901 66.0531 41.9689 65.9323 42.0897C65.8115 42.2105 65.7436 42.3744 65.7436 42.5453V43.8342H64.4546C64.37 43.8342 64.2862 43.8508 64.208 43.8832C64.1298 43.9155 64.0587 43.963 63.9989 44.0228C63.939 44.0827 63.8915 44.1537 63.8592 44.2319C63.8268 44.3101 63.8101 44.3939 63.8101 44.4785C63.8101 44.5631 63.8268 44.6469 63.8592 44.7251C63.8915 44.8033 63.939 44.8743 63.9989 44.9342C64.0587 44.994 64.1298 45.0415 64.208 45.0738C64.2862 45.1062 64.37 45.1228 64.4546 45.1228H65.7436V46.4117C65.7493 46.5788 65.8197 46.7371 65.9399 46.8532C66.0601 46.9693 66.2207 47.0342 66.3879 47.0342C66.555 47.0342 66.7156 46.9693 66.8358 46.8532C66.956 46.7371 67.0264 46.5788 67.0322 46.4117V45.1228H68.3211C68.4057 45.1228 68.4895 45.1062 68.5677 45.0738C68.6459 45.0415 68.717 44.994 68.7768 44.9342C68.8367 44.8743 68.8842 44.8033 68.9166 44.7251C68.949 44.6469 68.9656 44.5631 68.9656 44.4785C68.9656 44.3939 68.949 44.3101 68.9166 44.2319C68.8842 44.1537 68.8367 44.0827 68.7768 44.0228C68.717 43.963 68.6459 43.9155 68.5677 43.8832C68.4895 43.8508 68.4057 43.8342 68.3211 43.8342H67.0322V42.5453ZM24.5017 36.1013C24.3324 36.1013 24.1648 36.068 24.0084 36.0033C23.8519 35.9385 23.7098 35.8436 23.5901 35.7239C23.4704 35.6042 23.3754 35.4621 23.3106 35.3057C23.2458 35.1493 23.2124 34.9816 23.2124 34.8123C23.2124 34.643 23.2458 34.4754 23.3106 34.319C23.3754 34.1626 23.4704 34.0205 23.5901 33.9008C23.7098 33.7811 23.8519 33.6861 24.0084 33.6214C24.1648 33.5566 24.3324 33.5233 24.5017 33.5234C24.8435 33.5235 25.1713 33.6593 25.4129 33.901C25.6546 34.1427 25.7903 34.4705 25.7903 34.8123C25.7903 35.1541 25.6546 35.4819 25.4129 35.7236C25.1713 35.9653 24.8435 36.1012 24.5017 36.1013Z" fill="#A4A3B6"/>
</svg>
