<svg width="46" height="38" viewBox="0 0 46 38" fill="none" xmlns="http://www.w3.org/2000/svg">
<path d="M30.6439 26.5543L23.0082 18.9977M23.0082 18.9977L15.3726 26.5543M23.0082 18.9977V36M39.024 31.0693C40.8859 30.0648 42.3567 28.4753 43.2043 26.5517C44.0519 24.628 44.2281 22.4798 43.7051 20.4461C43.182 18.4123 41.9895 16.6089 40.3157 15.3204C38.642 14.0318 36.5823 13.3316 34.4617 13.3302H32.0565C31.4787 11.1185 30.4018 9.06518 28.9067 7.32463C27.4116 5.58408 25.5373 4.2016 23.4246 3.28112C21.3119 2.36065 19.0158 1.92614 16.709 2.01025C14.4022 2.09436 12.1447 2.69491 10.1062 3.76675C8.06771 4.83858 6.30125 6.35381 4.93964 8.19853C3.57803 10.0432 2.65671 12.1694 2.24494 14.4172C1.83316 16.6651 1.94166 18.976 2.56226 21.1764C3.18286 23.3767 4.29943 25.4092 5.82801 27.121" stroke="#A4A3B6" stroke-width="4" stroke-linecap="round" stroke-linejoin="round"/>
</svg>
