<svg width="18" height="18" viewBox="0 0 18 18" fill="none" xmlns="http://www.w3.org/2000/svg">
<path d="M17.0742 15.0117L12.8867 10.8223L12.7324 10.6973C13.4395 9.61133 13.8535 8.31836 13.8535 6.92578C13.8535 3.10156 10.7539 0 6.92578 0C3.10156 0 0 3.10156 0 6.92578C0 10.752 3.10156 13.8516 6.92578 13.8516C8.31836 13.8516 9.61133 13.4375 10.6973 12.7305L10.8203 12.8828L15.0078 17.0703C15.293 17.3555 15.666 17.498 16.0391 17.498C16.4121 17.498 16.7852 17.3555 17.0703 17.0703C17.6426 16.5039 17.6426 15.5801 17.0742 15.0117ZM6.92578 11.666C4.31445 11.666 2.1875 9.53906 2.1875 6.92578C2.1875 4.31445 4.31445 2.1875 6.92578 2.1875C9.53906 2.1875 11.666 4.3125 11.666 6.92578C11.666 9.53906 9.53906 11.666 6.92578 11.666Z" fill="#FEFFFF"/>
</svg>
