<svg width="48" height="54" viewBox="0 0 48 54" fill="none" xmlns="http://www.w3.org/2000/svg">
<path d="M42.9415 0.196164L20.123 7.23204C17.3474 8.03767 15.1323 10.938 15.1323 13.704V37.8999C15.1323 37.8999 13.4776 36.772 9.79461 37.3091C4.37688 38.0878 0 42.2503 0 46.6276C0 51.0049 4.37688 53.6903 9.79461 52.9115C15.2123 52.1327 19.1622 48.1046 19.1622 43.7273V20.3639C19.1622 18.4304 21.4841 17.5979 21.4841 17.5979L41.6605 11.2334C41.6605 11.2334 43.9023 10.4814 43.9023 12.5492V31.8307C43.9023 31.8307 41.8473 30.6491 38.1643 31.0788C32.7466 31.7502 28.3697 35.8321 28.3697 40.2093C28.3697 44.5866 32.7466 47.3526 38.1643 46.7081C43.582 46.0368 47.9589 41.9549 47.9589 37.5776V3.76781C47.9322 1.02865 45.6904 -0.582616 42.9415 0.196164Z" fill="#515151"/>
</svg>
